ZillaSlab-SemiBold.ufo
<glyph name="exclam" format="1">
  <advance width="253"/>
  <unicode hex="0021"/>
  <outline>
    <contour>
      <point x="190" y="650" type="line"/>
      <point x="63" y="650" type="line"/>
      <point x="87" y="217" type="line"/>
      <point x="165" y="217" type="line"/>
    </contour>
    <contour>
      <point x="64" y="0" type="line"/>
      <point x="192" y="0" type="line"/>
      <point x="192" y="127" type="line"/>
      <point x="64" y="127" type="line"/>
    </contour>
  </outline>
</glyph>
<glyph name="dollar" format="1">
  <advance width="483"/>
  <unicode hex="0024"/>
  <outline>
    <contour>
      <point x="448" y="157" type="curve" smooth="yes"/>
      <point x="448" y="277"/>
      <point x="336" y="302"/>
      <point x="274" y="314" type="curve"/>
      <point x="274" y="443" type="line"/>
      <point x="292" y="440"/>
      <point x="311" y="435"/>
      <point x="331" y="425" type="curve"/>
      <point x="343" y="350" type="line"/>
      <point x="432" y="357" type="line"/>
      <point x="422" y="480" type="line"/>
      <point x="387" y="504"/>
      <point x="337" y="523"/>
      <point x="274" y="528" type="curve"/>
      <point x="274" y="593" type="line"/>
      <point x="218" y="593" type="line"/>
      <point x="218" y="528" type="line"/>
      <point x="133" y="521"/>
      <point x="46" y="481"/>
      <point x="46" y="375" type="curve" smooth="yes"/>
      <point x="46" y="267"/>
      <point x="136" y="248"/>
      <point x="218" y="232" type="curve"/>
      <point x="218" y="78" type="line"/>
      <point x="194" y="80"/>
      <point x="166" y="87"/>
      <point x="144" y="98" type="curve"/>
      <point x="149" y="163" type="line"/>
      <point x="60" y="170" type="line"/>
      <point x="41" y="45" type="line"/>
      <point x="79" y="19"/>
      <point x="144" y="-3"/>
      <point x="218" y="-7" type="curve"/>
      <point x="218" y="-65" type="line"/>
      <point x="274" y="-65" type="line"/>
      <point x="274" y="-6" type="line"/>
      <point x="376" y="3"/>
      <point x="448" y="60"/>
    </contour>
    <contour>
      <point x="334" y="145" type="curve" smooth="yes"/>
      <point x="334" y="110"/>
      <point x="315" y="87"/>
      <point x="274" y="79" type="curve"/>
      <point x="274" y="218" type="line"/>
      <point x="308" y="205"/>
      <point x="334" y="185"/>
    </contour>
    <contour>
      <point x="161" y="387" type="curve" smooth="yes"/>
      <point x="161" y="419"/>
      <point x="185" y="436"/>
      <point x="218" y="442" type="curve"/>
      <point x="218" y="327" type="line"/>
      <point x="185" y="337"/>
      <point x="161" y="353"/>
    </contour>
  </outline>
</glyph>
<glyph name="quotesingle" format="1">
  <advance width="202"/>
  <unicode hex="0027"/>
  <outline>
    <contour>
      <point x="146" y="377" type="line"/>
      <point x="154" y="650" type="line"/>
      <point x="47" y="650" type="line"/>
      <point x="55" y="377" type="line"/>
    </contour>
  </outline>
</glyph>
<glyph name="parenleft" format="1">
  <advance width="283"/>
  <unicode hex="0028"/>
  <outline>
    <contour>
      <point x="190" y="718" type="curve"/>
      <point x="286" y="718" type="line"/>
      <point x="176" y="578"/>
      <point x="120" y="427"/>
      <point x="120" y="270" type="curve" smooth="yes"/>
      <point x="120" y="115"/>
      <point x="175" y="-45"/>
      <point x="286" y="-183" type="curve"/>
      <point x="188" y="-183" type="line"/>
      <point x="77" y="-36"/>
      <point x="29" y="118"/>
      <point x="29" y="270" type="curve" smooth="yes"/>
      <point x="29" y="424"/>
      <point x="80" y="576"/>
    </contour>
  </outline>
</glyph>
<glyph name="parenright" format="1">
  <advance width="284"/>
  <unicode hex="0029"/>
  <outline>
    <contour>
      <point x="93" y="-183" type="curve"/>
      <point x="-3" y="-183" type="line"/>
      <point x="107" y="-43"/>
      <point x="163" y="108"/>
      <point x="163" y="265" type="curve" smooth="yes"/>
      <point x="163" y="420"/>
      <point x="108" y="580"/>
      <point x="-3" y="718" type="curve"/>
      <point x="95" y="718" type="line"/>
      <point x="206" y="571"/>
      <point x="254" y="417"/>
      <point x="254" y="265" type="curve" smooth="yes"/>
      <point x="254" y="111"/>
      <point x="203" y="-41"/>
    </contour>
  </outline>
</glyph>
<glyph name="asterisk" format="1">
  <advance width="416"/>
  <unicode hex="002A"/>
  <outline>
    <contour>
      <point x="379" y="541" type="line"/>
      <point x="268" y="483" type="line"/>
      <point x="379" y="425" type="line"/>
      <point x="339" y="362" type="line"/>
      <point x="239" y="428" type="line"/>
      <point x="245" y="318" type="line"/>
      <point x="170" y="318" type="line"/>
      <point x="176" y="428" type="line"/>
      <point x="77" y="362" type="line"/>
      <point x="36" y="425" type="line"/>
      <point x="148" y="483" type="line"/>
      <point x="36" y="541" type="line"/>
      <point x="77" y="605" type="line"/>
      <point x="177" y="537" type="line"/>
      <point x="170" y="650" type="line"/>
      <point x="245" y="650" type="line"/>
      <point x="238" y="537" type="line"/>
      <point x="339" y="605" type="line"/>
    </contour>
  </outline>
</glyph>
<glyph name="plus" format="1">
  <advance width="408"/>
  <unicode hex="002B"/>
  <outline>
    <contour>
      <point x="31" y="244" type="line"/>
      <point x="170" y="244" type="line"/>
      <point x="170" y="108" type="line"/>
      <point x="244" y="108" type="line"/>
      <point x="244" y="244" type="line"/>
      <point x="378" y="244" type="line"/>
      <point x="378" y="318" type="line"/>
      <point x="244" y="318" type="line"/>
      <point x="244" y="455" type="line"/>
      <point x="170" y="455" type="line"/>
      <point x="170" y="318" type="line"/>
      <point x="31" y="318" type="line"/>
    </contour>
  </outline>
</glyph>
<glyph name="hyphen" format="1">
  <advance width="331"/>
  <unicode hex="002D"/>
  <unicode hex="00AD"/>
  <outline>
    <contour>
      <point x="48" y="278" type="line"/>
      <point x="284" y="278" type="line"/>
      <point x="284" y="188" type="line"/>
      <point x="48" y="188" type="line"/>
    </contour>
  </outline>
</glyph>
<glyph name="period" format="1">
  <advance width="222"/>
  <unicode hex="002E"/>
  <outline>
    <contour>
      <point x="44" y="0" type="line"/>
      <point x="176" y="0" type="line"/>
      <point x="176" y="142" type="line"/>
      <point x="44" y="142" type="line"/>
    </contour>
  </outline>
</glyph>
<glyph name="one" format="1">
  <advance width="397"/>
  <unicode hex="0031"/>
  <outline>
    <contour>
      <point x="379" y="0" type="line"/>
      <point x="379" y="95" type="line"/>
      <point x="272" y="95" type="line"/>
      <point x="272" y="521" type="line"/>
      <point x="47" y="521" type="line"/>
      <point x="47" y="426" type="line"/>
      <point x="161" y="426" type="line"/>
      <point x="161" y="95" type="line"/>
      <point x="47" y="95" type="line"/>
      <point x="47" y="0" type="line"/>
    </contour>
  </outline>
</glyph>
<glyph name="two" format="1">
  <advance width="529"/>
  <unicode hex="0032"/>
  <outline>
    <contour>
      <point x="73" y="490" type="curve"/>
      <point x="53" y="353" type="line"/>
      <point x="139" y="344" type="line"/>
      <point x="155" y="418" type="line"/>
      <point x="181" y="431"/>
      <point x="220" y="436"/>
      <point x="246" y="436" type="curve" smooth="yes"/>
      <point x="304" y="436"/>
      <point x="345" y="412"/>
      <point x="345" y="362" type="curve" smooth="yes"/>
      <point x="345" y="273"/>
      <point x="210" y="198"/>
      <point x="40" y="87" type="curve"/>
      <point x="50" y="0" type="line"/>
      <point x="486" y="0" type="line"/>
      <point x="500" y="154" type="line"/>
      <point x="410" y="162" type="line"/>
      <point x="402" y="95" type="line"/>
      <point x="172" y="95" type="line"/>
      <point x="298" y="164"/>
      <point x="464" y="244"/>
      <point x="464" y="378" type="curve" smooth="yes"/>
      <point x="464" y="454"/>
      <point x="411" y="531"/>
      <point x="263" y="531" type="curve" smooth="yes"/>
      <point x="211" y="531"/>
      <point x="139" y="520"/>
    </contour>
  </outline>
</glyph>
<glyph name="five" format="1">
  <advance width="518"/>
  <unicode hex="0035"/>
  <outline>
    <contour>
      <point x="487" y="68" type="curve" smooth="yes"/>
      <point x="487" y="238"/>
      <point x="354" y="276"/>
      <point x="213" y="276" type="curve" smooth="yes"/>
      <point x="200" y="276"/>
      <point x="185" y="276"/>
      <point x="171" y="275" type="curve"/>
      <point x="171" y="426" type="line"/>
      <point x="360" y="426" type="line"/>
      <point x="376" y="347" type="line"/>
      <point x="469" y="355" type="line"/>
      <point x="454" y="521" type="line"/>
      <point x="69" y="521" type="line"/>
      <point x="69" y="215" type="line"/>
      <point x="105" y="180" type="line"/>
      <point x="134" y="182"/>
      <point x="165" y="185"/>
      <point x="195" y="185" type="curve" smooth="yes"/>
      <point x="286" y="185"/>
      <point x="368" y="167"/>
      <point x="368" y="67" type="curve" smooth="yes"/>
      <point x="368" y="5"/>
      <point x="332" y="-46"/>
      <point x="248" y="-46" type="curve" smooth="yes"/>
      <point x="172" y="-46"/>
      <point x="137" y="1"/>
      <point x="130" y="52" type="curve"/>
      <point x="41" y="24" type="line"/>
      <point x="48" y="-75"/>
      <point x="117" y="-141"/>
      <point x="252" y="-141" type="curve" smooth="yes"/>
      <point x="387" y="-141"/>
      <point x="487" y="-78"/>
    </contour>
  </outline>
</glyph>
<glyph name="eight" format="1">
  <advance width="539"/>
  <unicode hex="0038"/>
  <outline>
    <contour>
      <point x="505" y="167" type="curve" smooth="yes"/>
      <point x="505" y="265"/>
      <point x="435" y="315"/>
      <point x="360" y="353" type="curve"/>
      <point x="425" y="382"/>
      <point x="483" y="420"/>
      <point x="483" y="498" type="curve" smooth="yes"/>
      <point x="483" y="597"/>
      <point x="394" y="660"/>
      <point x="269" y="660" type="curve" smooth="yes"/>
      <point x="139" y="660"/>
      <point x="51" y="590"/>
      <point x="51" y="488" type="curve" smooth="yes"/>
      <point x="51" y="406"/>
      <point x="108" y="360"/>
      <point x="174" y="324" type="curve"/>
      <point x="101" y="293"/>
      <point x="36" y="252"/>
      <point x="36" y="159" type="curve" smooth="yes"/>
      <point x="36" y="48"/>
      <point x="129" y="-10"/>
      <point x="267" y="-10" type="curve" smooth="yes"/>
      <point x="402" y="-10"/>
      <point x="505" y="57"/>
    </contour>
    <contour>
      <point x="371" y="482" type="curve" smooth="yes"/>
      <point x="371" y="435"/>
      <point x="343" y="407"/>
      <point x="299" y="382" type="curve"/>
      <point x="229" y="413"/>
      <point x="169" y="442"/>
      <point x="169" y="496" type="curve" smooth="yes"/>
      <point x="169" y="541"/>
      <point x="208" y="569"/>
      <point x="269" y="569" type="curve" smooth="yes"/>
      <point x="323" y="569"/>
      <point x="371" y="548"/>
    </contour>
    <contour>
      <point x="386" y="165" type="curve" smooth="yes"/>
      <point x="386" y="115"/>
      <point x="340" y="81"/>
      <point x="269" y="81" type="curve" smooth="yes"/>
      <point x="192" y="81"/>
      <point x="147" y="120"/>
      <point x="147" y="183" type="curve" smooth="yes"/>
      <point x="147" y="239"/>
      <point x="184" y="270"/>
      <point x="232" y="296" type="curve"/>
      <point x="311" y="260"/>
      <point x="386" y="229"/>
    </contour>
  </outline>
</glyph>
<glyph name="colon" format="1">
  <advance width="239"/>
  <unicode hex="003A"/>
  <outline>
    <contour>
      <point x="61" y="0" type="line"/>
      <point x="180" y="0" type="line"/>
      <point x="180" y="142" type="line"/>
      <point x="61" y="142" type="line"/>
    </contour>
    <contour>
      <point x="61" y="307" type="line"/>
      <point x="180" y="307" type="line"/>
      <point x="180" y="449" type="line"/>
      <point x="61" y="449" type="line"/>
    </contour>
  </outline>
</glyph>
<glyph name="semicolon" format="1">
  <advance width="243"/>
  <unicode hex="003B"/>
  <outline>
    <contour>
      <point x="178" y="136" type="line"/>
      <point x="73" y="136" type="line"/>
      <point x="16" y="-92" type="line"/>
      <point x="120" y="-92" type="line"/>
    </contour>
    <contour>
      <point x="68" y="307" type="line"/>
      <point x="187" y="307" type="line"/>
      <point x="187" y="449" type="line"/>
      <point x="68" y="449" type="line"/>
    </contour>
  </outline>
</glyph>
<glyph name="less" format="1">
  <advance width="401"/>
  <unicode hex="003C"/>
  <outline>
    <contour>
      <point x="346" y="14" type="line"/>
      <point x="346" y="116" type="line"/>
      <point x="137" y="281" type="line"/>
      <point x="345" y="447" type="line"/>
      <point x="345" y="549" type="line"/>
      <point x="27" y="296" type="line"/>
      <point x="27" y="262" type="line"/>
    </contour>
  </outline>
</glyph>
<glyph name="equal" format="1">
  <advance width="558"/>
  <unicode hex="003D"/>
  <outline>
    <contour>
      <point x="50" y="354" type="line"/>
      <point x="507" y="354" type="line"/>
      <point x="507" y="428" type="line"/>
      <point x="50" y="428" type="line"/>
    </contour>
    <contour>
      <point x="50" y="132" type="line"/>
      <point x="507" y="132" type="line"/>
      <point x="507" y="207" type="line"/>
      <point x="50" y="207" type="line"/>
    </contour>
  </outline>
</glyph>
<glyph name="greater" format="1">
  <advance width="400"/>
  <unicode hex="003E"/>
  <outline>
    <contour>
      <point x="373" y="262" type="line"/>
      <point x="373" y="296" type="line"/>
      <point x="55" y="549" type="line"/>
      <point x="55" y="447" type="line"/>
      <point x="263" y="281" type="line"/>
      <point x="54" y="116" type="line"/>
      <point x="54" y="14" type="line"/>
    </contour>
  </outline>
</glyph>
<glyph name="at" format="1">
  <advance width="898"/>
  <unicode hex="0040"/>
  <outline>
    <contour>
      <point x="294" y="414" type="curve"/>
      <point x="274" y="298" type="line"/>
      <point x="355" y="289" type="line"/>
      <point x="377" y="361" type="line"/>
      <point x="402" y="376"/>
      <point x="429" y="380"/>
      <point x="452" y="380" type="curve" smooth="yes"/>
      <point x="509" y="380"/>
      <point x="530" y="351"/>
      <point x="530" y="275" type="curve" smooth="yes"/>
      <point x="530" y="250" type="line"/>
      <point x="507" y="252"/>
      <point x="479" y="253"/>
      <point x="456" y="253" type="curve" smooth="yes"/>
      <point x="353" y="253"/>
      <point x="241" y="230"/>
      <point x="241" y="118" type="curve" smooth="yes"/>
      <point x="241" y="23"/>
      <point x="320" y="-10"/>
      <point x="383" y="-10" type="curve" smooth="yes"/>
      <point x="456" y="-10"/>
      <point x="504" y="35"/>
      <point x="532" y="83" type="curve"/>
      <point x="541" y="26"/>
      <point x="595" y="-10"/>
      <point x="666" y="-10" type="curve" smooth="yes"/>
      <point x="814" y="-10"/>
      <point x="862" y="144"/>
      <point x="862" y="274" type="curve" smooth="yes"/>
      <point x="862" y="549"/>
      <point x="647" y="654"/>
      <point x="458" y="654" type="curve" smooth="yes"/>
      <point x="204" y="654"/>
      <point x="33" y="461"/>
      <point x="33" y="216" type="curve" smooth="yes"/>
      <point x="33" y="-42"/>
      <point x="222" y="-202"/>
      <point x="454" y="-202" type="curve" smooth="yes"/>
      <point x="553" y="-202"/>
      <point x="644" y="-173"/>
      <point x="709" y="-130" type="curve"/>
      <point x="673" y="-65" type="line"/>
      <point x="614" y="-106"/>
      <point x="535" y="-122"/>
      <point x="468" y="-122" type="curve" smooth="yes"/>
      <point x="292" y="-122"/>
      <point x="122" y="-16"/>
      <point x="122" y="226" type="curve" smooth="yes"/>
      <point x="122" y="444"/>
      <point x="258" y="574"/>
      <point x="462" y="574" type="curve" smooth="yes"/>
      <point x="624" y="574"/>
      <point x="772" y="494"/>
      <point x="772" y="237" type="curve" smooth="yes"/>
      <point x="772" y="155"/>
      <point x="756" y="62"/>
      <point x="689" y="62" type="curve" smooth="yes"/>
      <point x="661" y="62"/>
      <point x="637" y="79"/>
      <point x="637" y="111" type="curve" smooth="yes"/>
      <point x="637" y="306" type="line" smooth="yes"/>
      <point x="637" y="399"/>
      <point x="574" y="458"/>
      <point x="455" y="458" type="curve" smooth="yes"/>
      <point x="395" y="458"/>
      <point x="345" y="444"/>
    </contour>
    <contour>
      <point x="530" y="195" type="curve"/>
      <point x="530" y="182" type="line" smooth="yes"/>
      <point x="527" y="107"/>
      <point x="472" y="68"/>
      <point x="420" y="68" type="curve" smooth="yes"/>
      <point x="380" y="68"/>
      <point x="355" y="90"/>
      <point x="355" y="130" type="curve" smooth="yes"/>
      <point x="355" y="187"/>
      <point x="405" y="201"/>
      <point x="459" y="201" type="curve" smooth="yes"/>
      <point x="483" y="201"/>
      <point x="508" y="198"/>
    </contour>
  </outline>
</glyph>
<glyph name="C" format="1">
  <advance width="645"/>
  <unicode hex="0043"/>
  <outline>
    <contour>
      <point x="587" y="62" type="curve"/>
      <point x="601" y="204" type="line"/>
      <point x="510" y="213" type="line"/>
      <point x="494" y="116" type="line"/>
      <point x="463" y="99"/>
      <point x="415" y="88"/>
      <point x="363" y="88" type="curve" smooth="yes"/>
      <point x="235" y="88"/>
      <point x="149" y="168"/>
      <point x="149" y="323" type="curve" smooth="yes"/>
      <point x="149" y="471"/>
      <point x="229" y="562"/>
      <point x="352" y="562" type="curve" smooth="yes"/>
      <point x="408" y="562"/>
      <point x="459" y="547"/>
      <point x="496" y="523" type="curve"/>
      <point x="512" y="433" type="line"/>
      <point x="603" y="442" type="line"/>
      <point x="586" y="583" type="line"/>
      <point x="540" y="624"/>
      <point x="464" y="660"/>
      <point x="354" y="660" type="curve" smooth="yes"/>
      <point x="129" y="660"/>
      <point x="30" y="478"/>
      <point x="30" y="317" type="curve" smooth="yes"/>
      <point x="30" y="125"/>
      <point x="166" y="-10"/>
      <point x="354" y="-10" type="curve" smooth="yes"/>
      <point x="446" y="-10"/>
      <point x="540" y="18"/>
    </contour>
  </outline>
</glyph>
<glyph name="F" format="1">
  <advance width="564"/>
  <unicode hex="0046"/>
  <outline>
    <contour>
      <point x="542" y="455" type="line"/>
      <point x="522" y="650" type="line"/>
      <point x="40" y="650" type="line"/>
      <point x="40" y="555" type="line"/>
      <point x="115" y="555" type="line"/>
      <point x="115" y="95" type="line"/>
      <point x="40" y="95" type="line"/>
      <point x="40" y="0" type="line"/>
      <point x="335" y="0" type="line"/>
      <point x="335" y="95" type="line"/>
      <point x="226" y="95" type="line"/>
      <point x="226" y="252" type="line"/>
      <point x="508" y="252" type="line"/>
      <point x="508" y="346" type="line"/>
      <point x="226" y="346" type="line"/>
      <point x="226" y="555" type="line"/>
      <point x="427" y="555" type="line"/>
      <point x="447" y="446" type="line"/>
    </contour>
  </outline>
</glyph>
<glyph name="I" format="1">
  <advance width="341"/>
  <unicode hex="0049"/>
  <outline>
    <contour>
      <point x="300" y="0" type="line"/>
      <point x="300" y="95" type="line"/>
      <point x="226" y="95" type="line"/>
      <point x="226" y="555" type="line"/>
      <point x="300" y="555" type="line"/>
      <point x="300" y="650" type="line"/>
      <point x="40" y="650" type="line"/>
      <point x="40" y="555" type="line"/>
      <point x="115" y="555" type="line"/>
      <point x="115" y="95" type="line"/>
      <point x="40" y="95" type="line"/>
      <point x="40" y="0" type="line"/>
    </contour>
  </outline>
</glyph>
<glyph name="J" format="1">
  <advance width="475"/>
  <unicode hex="004A"/>
  <outline>
    <contour>
      <point x="442" y="555" type="line"/>
      <point x="442" y="650" type="line"/>
      <point x="147" y="650" type="line"/>
      <point x="147" y="555" type="line"/>
      <point x="267" y="555" type="line"/>
      <point x="267" y="177" type="line" smooth="yes"/>
      <point x="267" y="128"/>
      <point x="242" y="93"/>
      <point x="182" y="93" type="curve" smooth="yes"/>
      <point x="145" y="93"/>
      <point x="113" y="106"/>
      <point x="88" y="163" type="curve"/>
      <point x="10" y="104" type="line"/>
      <point x="38" y="41"/>
      <point x="91" y="-10"/>
      <point x="192" y="-10" type="curve" smooth="yes"/>
      <point x="305" y="-10"/>
      <point x="378" y="52"/>
      <point x="378" y="178" type="curve" smooth="yes"/>
      <point x="378" y="555" type="line"/>
    </contour>
  </outline>
</glyph>
<glyph name="M" format="1">
  <advance width="893"/>
  <unicode hex="004D"/>
  <outline>
    <contour>
      <point x="859" y="555" type="line"/>
      <point x="859" y="650" type="line"/>
      <point x="682" y="650" type="line"/>
      <point x="454" y="207" type="line"/>
      <point x="450" y="207" type="line"/>
      <point x="210" y="650" type="line"/>
      <point x="34" y="650" type="line"/>
      <point x="34" y="555" type="line"/>
      <point x="116" y="555" type="line"/>
      <point x="116" y="95" type="line"/>
      <point x="42" y="95" type="line"/>
      <point x="42" y="0" type="line"/>
      <point x="288" y="0" type="line"/>
      <point x="288" y="95" type="line"/>
      <point x="220" y="95" type="line"/>
      <point x="220" y="415" type="line"/>
      <point x="224" y="415" type="line"/>
      <point x="423" y="46" type="line"/>
      <point x="473" y="46" type="line"/>
      <point x="662" y="406" type="line"/>
      <point x="666" y="406" type="line"/>
      <point x="666" y="95" type="line"/>
      <point x="602" y="95" type="line"/>
      <point x="602" y="0" type="line"/>
      <point x="851" y="0" type="line"/>
      <point x="851" y="95" type="line"/>
      <point x="777" y="95" type="line"/>
      <point x="777" y="555" type="line"/>
    </contour>
  </outline>
</glyph>
<glyph name="P" format="1">
  <advance width="589"/>
  <unicode hex="0050"/>
  <outline>
    <contour>
      <point x="569" y="443" type="curve" smooth="yes"/>
      <point x="569" y="564"/>
      <point x="491" y="650"/>
      <point x="330" y="650" type="curve" smooth="yes"/>
      <point x="40" y="650" type="line"/>
      <point x="40" y="555" type="line"/>
      <point x="115" y="555" type="line"/>
      <point x="115" y="95" type="line"/>
      <point x="40" y="95" type="line"/>
      <point x="40" y="0" type="line"/>
      <point x="330" y="0" type="line"/>
      <point x="330" y="95" type="line"/>
      <point x="226" y="95" type="line"/>
      <point x="226" y="227" type="line"/>
      <point x="336" y="227" type="line" smooth="yes"/>
      <point x="464" y="227"/>
      <point x="569" y="300"/>
    </contour>
    <contour>
      <point x="450" y="441" type="curve" smooth="yes"/>
      <point x="450" y="367"/>
      <point x="411" y="321"/>
      <point x="317" y="321" type="curve" smooth="yes"/>
      <point x="226" y="321" type="line"/>
      <point x="226" y="555" type="line"/>
      <point x="317" y="555" type="line" smooth="yes"/>
      <point x="413" y="555"/>
      <point x="450" y="513"/>
    </contour>
  </outline>
</glyph>
<glyph name="Q" format="1">
  <advance width="725"/>
  <unicode hex="0051"/>
  <outline>
    <contour>
      <point x="689" y="326" type="curve" smooth="yes"/>
      <point x="689" y="509"/>
      <point x="563" y="660"/>
      <point x="360" y="660" type="curve" smooth="yes"/>
      <point x="160" y="660"/>
      <point x="30" y="513"/>
      <point x="30" y="324" type="curve" smooth="yes"/>
      <point x="30" y="142"/>
      <point x="151" y="-10"/>
      <point x="357" y="-10" type="curve" smooth="yes"/>
      <point x="423" y="-10"/>
      <point x="482" y="7"/>
      <point x="530" y="35" type="curve"/>
      <point x="607" y="-43" type="line"/>
      <point x="676" y="26" type="line"/>
      <point x="607" y="97" type="line"/>
      <point x="659" y="158"/>
      <point x="689" y="237"/>
    </contour>
    <contour>
      <point x="569" y="323" type="curve" smooth="yes"/>
      <point x="569" y="266"/>
      <point x="556" y="215"/>
      <point x="530" y="176" type="curve"/>
      <point x="420" y="288" type="line"/>
      <point x="351" y="219" type="line"/>
      <point x="457" y="110" type="line"/>
      <point x="431" y="96"/>
      <point x="398" y="88"/>
      <point x="362" y="88" type="curve" smooth="yes"/>
      <point x="217" y="88"/>
      <point x="150" y="198"/>
      <point x="150" y="327" type="curve" smooth="yes"/>
      <point x="150" y="460"/>
      <point x="220" y="562"/>
      <point x="359" y="562" type="curve" smooth="yes"/>
      <point x="491" y="562"/>
      <point x="569" y="468"/>
    </contour>
  </outline>
</glyph>
<glyph name="R" format="1">
  <advance width="630"/>
  <unicode hex="0052"/>
  <outline>
    <contour>
      <point x="619" y="0" type="line"/>
      <point x="619" y="95" type="line"/>
      <point x="539" y="95" type="line"/>
      <point x="440" y="280" type="line"/>
      <point x="521" y="307"/>
      <point x="570" y="371"/>
      <point x="570" y="458" type="curve" smooth="yes"/>
      <point x="570" y="579"/>
      <point x="490" y="650"/>
      <point x="329" y="650" type="curve" smooth="yes"/>
      <point x="40" y="650" type="line"/>
      <point x="40" y="555" type="line"/>
      <point x="115" y="555" type="line"/>
      <point x="115" y="95" type="line"/>
      <point x="40" y="95" type="line"/>
      <point x="40" y="0" type="line"/>
      <point x="302" y="0" type="line"/>
      <point x="302" y="95" type="line"/>
      <point x="226" y="95" type="line"/>
      <point x="226" y="257" type="line"/>
      <point x="333" y="257" type="line"/>
      <point x="467" y="0" type="line"/>
    </contour>
    <contour>
      <point x="452" y="455" type="curve" smooth="yes"/>
      <point x="452" y="386"/>
      <point x="416" y="346"/>
      <point x="310" y="346" type="curve" smooth="yes"/>
      <point x="226" y="346" type="line"/>
      <point x="226" y="555" type="line"/>
      <point x="311" y="555" type="line" smooth="yes"/>
      <point x="414" y="555"/>
      <point x="452" y="528"/>
    </contour>
  </outline>
</glyph>
<glyph name="S" format="1">
  <advance width="548"/>
  <unicode hex="0053"/>
  <outline>
    <contour>
      <point x="512" y="191" type="curve" smooth="yes"/>
      <point x="512" y="351"/>
      <point x="372" y="369"/>
      <point x="290" y="387" type="curve" smooth="yes"/>
      <point x="226" y="402"/>
      <point x="165" y="417"/>
      <point x="165" y="482" type="curve" smooth="yes"/>
      <point x="165" y="538"/>
      <point x="211" y="562"/>
      <point x="274" y="562" type="curve" smooth="yes"/>
      <point x="309" y="562"/>
      <point x="347" y="556"/>
      <point x="384" y="534" type="curve"/>
      <point x="393" y="450" type="line"/>
      <point x="482" y="458" type="line"/>
      <point x="476" y="595" type="line"/>
      <point x="434" y="634"/>
      <point x="351" y="660"/>
      <point x="271" y="660" type="curve" smooth="yes"/>
      <point x="156" y="660"/>
      <point x="46" y="605"/>
      <point x="46" y="469" type="curve" smooth="yes"/>
      <point x="46" y="333"/>
      <point x="155" y="310"/>
      <point x="248" y="292" type="curve" smooth="yes"/>
      <point x="324" y="277"/>
      <point x="393" y="261"/>
      <point x="393" y="179" type="curve" smooth="yes"/>
      <point x="393" y="104"/>
      <point x="335" y="86"/>
      <point x="258" y="86" type="curve" smooth="yes"/>
      <point x="226" y="86"/>
      <point x="190" y="89"/>
      <point x="146" y="112" type="curve"/>
      <point x="148" y="192" type="line"/>
      <point x="59" y="201" type="line"/>
      <point x="41" y="52" type="line"/>
      <point x="89" y="12"/>
      <point x="178" y="-10"/>
      <point x="266" y="-10" type="curve" smooth="yes"/>
      <point x="414" y="-10"/>
      <point x="512" y="61"/>
    </contour>
  </outline>
</glyph>
<glyph name="U" format="1">
  <advance width="719"/>
  <unicode hex="0055"/>
  <outline>
    <contour>
      <point x="688" y="555" type="line"/>
      <point x="688" y="650" type="line"/>
      <point x="441" y="650" type="line"/>
      <point x="441" y="555" type="line"/>
      <point x="524" y="555" type="line"/>
      <point x="524" y="268" type="line" smooth="yes"/>
      <point x="524" y="155"/>
      <point x="471" y="88"/>
      <point x="362" y="88" type="curve" smooth="yes"/>
      <point x="250" y="88"/>
      <point x="204" y="157"/>
      <point x="204" y="260" type="curve" smooth="yes"/>
      <point x="204" y="555" type="line"/>
      <point x="285" y="555" type="line"/>
      <point x="285" y="650" type="line"/>
      <point x="31" y="650" type="line"/>
      <point x="31" y="555" type="line"/>
      <point x="93" y="555" type="line"/>
      <point x="93" y="257" type="line" smooth="yes"/>
      <point x="93" y="117"/>
      <point x="160" y="-10"/>
      <point x="356" y="-10" type="curve" smooth="yes"/>
      <point x="561" y="-10"/>
      <point x="628" y="130"/>
      <point x="628" y="268" type="curve" smooth="yes"/>
      <point x="628" y="555" type="line"/>
    </contour>
  </outline>
</glyph>
<glyph name="V" format="1">
  <advance width="671"/>
  <unicode hex="0056"/>
  <outline>
    <contour>
      <point x="668" y="555" type="line"/>
      <point x="668" y="650" type="line"/>
      <point x="422" y="650" type="line"/>
      <point x="422" y="555" type="line"/>
      <point x="495" y="555" type="line"/>
      <point x="345" y="170" type="line"/>
      <point x="340" y="170" type="line"/>
      <point x="186" y="555" type="line"/>
      <point x="258" y="555" type="line"/>
      <point x="258" y="650" type="line"/>
      <point x="2" y="650" type="line"/>
      <point x="2" y="555" type="line"/>
      <point x="64" y="555" type="line"/>
      <point x="296" y="0" type="line"/>
      <point x="376" y="0" type="line"/>
      <point x="608" y="555" type="line"/>
    </contour>
  </outline>
</glyph>
<glyph name="X" format="1">
  <advance width="653"/>
  <unicode hex="0058"/>
  <outline>
    <contour>
      <point x="645" y="0" type="line"/>
      <point x="645" y="95" type="line"/>
      <point x="586" y="95" type="line"/>
      <point x="388" y="336" type="line"/>
      <point x="568" y="555" type="line"/>
      <point x="632" y="555" type="line"/>
      <point x="632" y="650" type="line"/>
      <point x="390" y="650" type="line"/>
      <point x="390" y="555" type="line"/>
      <point x="444" y="555" type="line"/>
      <point x="331" y="406" type="line"/>
      <point x="211" y="555" type="line"/>
      <point x="266" y="555" type="line"/>
      <point x="266" y="650" type="line"/>
      <point x="20" y="650" type="line"/>
      <point x="20" y="555" type="line"/>
      <point x="81" y="555" type="line"/>
      <point x="264" y="334" type="line"/>
      <point x="75" y="95" type="line"/>
      <point x="6" y="95" type="line"/>
      <point x="6" y="0" type="line"/>
      <point x="260" y="0" type="line"/>
      <point x="260" y="95" type="line"/>
      <point x="197" y="95" type="line"/>
      <point x="321" y="261" type="line"/>
      <point x="454" y="95" type="line"/>
      <point x="395" y="95" type="line"/>
      <point x="395" y="0" type="line"/>
    </contour>
  </outline>
</glyph>
<glyph name="backslash" format="1">
  <advance width="408"/>
  <unicode hex="005C"/>
  <outline>
    <contour>
      <point x="72" y="688" type="line"/>
      <point x="275" y="0" type="line"/>
      <point x="380" y="0" type="line"/>
      <point x="177" y="688" type="line"/>
    </contour>
  </outline>
</glyph>
<glyph name="bracketright" format="1">
  <advance width="293"/>
  <unicode hex="005D"/>
  <outline>
    <contour>
      <point x="218" y="-235" type="line"/>
      <point x="13" y="-235" type="line"/>
      <point x="13" y="-161" type="line"/>
      <point x="127" y="-161" type="line"/>
      <point x="127" y="698" type="line"/>
      <point x="13" y="698" type="line"/>
      <point x="13" y="772" type="line"/>
      <point x="218" y="772" type="line"/>
    </contour>
  </outline>
</glyph>
<glyph name="asciicircum" format="1">
  <advance width="463"/>
  <unicode hex="005E"/>
  <outline>
    <contour>
      <point x="194" y="652" type="line"/>
      <point x="33" y="369" type="line"/>
      <point x="132" y="369" type="line"/>
      <point x="228" y="548" type="line"/>
      <point x="332" y="369" type="line"/>
      <point x="430" y="369" type="line"/>
      <point x="261" y="652" type="line"/>
    </contour>
  </outline>
</glyph>
<glyph name="underscore" format="1">
  <advance width="514"/>
  <unicode hex="005F"/>
  <outline>
    <contour>
      <point x="41" y="-70" type="line"/>
      <point x="473" y="-70" type="line"/>
      <point x="473" y="-142" type="line"/>
      <point x="41" y="-142" type="line"/>
    </contour>
  </outline>
</glyph>
<glyph name="grave" format="1">
  <advance width="440"/>
  <unicode hex="0060"/>
  <outline>
    <contour>
      <point x="366" y="555" type="line"/>
      <point x="207" y="693" type="line"/>
      <point x="150" y="609" type="line"/>
      <point x="336" y="512" type="line"/>
    </contour>
  </outline>
</glyph>
<glyph name="b" format="1">
  <advance width="544"/>
  <unicode hex="0062"/>
  <outline>
    <contour>
      <point x="517" y="235" type="curve" smooth="yes"/>
      <point x="517" y="376"/>
      <point x="438" y="458"/>
      <point x="325" y="458" type="curve" smooth="yes"/>
      <point x="242" y="458"/>
      <point x="196" y="413"/>
      <point x="170" y="360" type="curve"/>
      <point x="170" y="688" type="line"/>
      <point x="-3" y="688" type="line"/>
      <point x="-3" y="606" type="line"/>
      <point x="64" y="606" type="line"/>
      <point x="64" y="135" type="line" smooth="yes"/>
      <point x="64" y="91"/>
      <point x="56" y="44"/>
      <point x="48" y="0" type="curve"/>
      <point x="154" y="0" type="line"/>
      <point x="157" y="16"/>
      <point x="162" y="54"/>
      <point x="164" y="70" type="curve"/>
      <point x="191" y="20"/>
      <point x="243" y="-10"/>
      <point x="313" y="-10" type="curve" smooth="yes"/>
      <point x="452" y="-10"/>
      <point x="517" y="108"/>
    </contour>
    <contour>
      <point x="406" y="226" type="curve" smooth="yes"/>
      <point x="406" y="134"/>
      <point x="362" y="75"/>
      <point x="288" y="75" type="curve" smooth="yes"/>
      <point x="217" y="75"/>
      <point x="170" y="133"/>
      <point x="170" y="207" type="curve" smooth="yes"/>
      <point x="170" y="239" type="line"/>
      <point x="171" y="305"/>
      <point x="216" y="372"/>
      <point x="292" y="372" type="curve" smooth="yes"/>
      <point x="359" y="372"/>
      <point x="406" y="321"/>
    </contour>
    <contour>
      <point x="268" y="566" type="move" name="top"/>
    </contour>
  </outline>
</glyph>
<glyph name="f" format="1">
  <advance width="334"/>
  <unicode hex="0066"/>
  <outline>
    <contour>
      <point x="265" y="698" type="curve" smooth="yes"/>
      <point x="160" y="698"/>
      <point x="94" y="621"/>
      <point x="94" y="523" type="curve" smooth="yes"/>
      <point x="94" y="449" type="line"/>
      <point x="35" y="449" type="line"/>
      <point x="35" y="370" type="line"/>
      <point x="94" y="370" type="line"/>
      <point x="94" y="82" type="line"/>
      <point x="27" y="82" type="line"/>
      <point x="27" y="0" type="line"/>
      <point x="285" y="0" type="line"/>
      <point x="285" y="82" type="line"/>
      <point x="200" y="82" type="line"/>
      <point x="200" y="370" type="line"/>
      <point x="313" y="370" type="line"/>
      <point x="313" y="449" type="line"/>
      <point x="200" y="449" type="line"/>
      <point x="200" y="538" type="line" smooth="yes"/>
      <point x="200" y="589"/>
      <point x="223" y="616"/>
      <point x="262" y="616" type="curve" smooth="yes"/>
      <point x="275" y="616"/>
      <point x="289" y="614"/>
      <point x="303" y="609" type="curve"/>
      <point x="324" y="536" type="line"/>
      <point x="408" y="546" type="line"/>
      <point x="389" y="661" type="line"/>
      <point x="351" y="690"/>
      <point x="306" y="698"/>
    </contour>
  </outline>
</glyph>
<glyph name="j" format="1">
  <advance width="260"/>
  <unicode hex="006A"/>
  <outline>
    <contour>
      <point x="198" y="5" type="curve" smooth="yes"/>
      <point x="198" y="449" type="line"/>
      <point x="10" y="449" type="line"/>
      <point x="10" y="366" type="line"/>
      <point x="91" y="366" type="line"/>
      <point x="91" y="5" type="line" smooth="yes"/>
      <point x="91" y="-139"/>
      <point x="38" y="-150"/>
      <point x="-17" y="-150" type="curve"/>
      <point x="-14" y="-223" type="line"/>
      <point x="136" y="-237"/>
      <point x="198" y="-165"/>
    </contour>
    <contour>
      <point x="89" y="542" type="line"/>
      <point x="198" y="542" type="line"/>
      <point x="198" y="660" type="line"/>
      <point x="89" y="660" type="line"/>
    </contour>
  </outline>
</glyph>
<glyph name="k" format="1">
  <advance width="540"/>
  <unicode hex="006B"/>
  <outline>
    <contour>
      <point x="528" y="0" type="line"/>
      <point x="528" y="82" type="line"/>
      <point x="480" y="82" type="line"/>
      <point x="344" y="242" type="line"/>
      <point x="450" y="366" type="line"/>
      <point x="506" y="366" type="line"/>
      <point x="506" y="449" type="line"/>
      <point x="287" y="449" type="line"/>
      <point x="287" y="366" type="line"/>
      <point x="346" y="366" type="line"/>
      <point x="267" y="271" type="line"/>
      <point x="190" y="271" type="line"/>
      <point x="190" y="688" type="line"/>
      <point x="12" y="688" type="line"/>
      <point x="12" y="606" type="line"/>
      <point x="83" y="606" type="line"/>
      <point x="83" y="82" type="line"/>
      <point x="16" y="82" type="line"/>
      <point x="16" y="0" type="line"/>
      <point x="240" y="0" type="line"/>
      <point x="240" y="82" type="line"/>
      <point x="190" y="82" type="line"/>
      <point x="190" y="194" type="line"/>
      <point x="262" y="194" type="line"/>
      <point x="356" y="82" type="line"/>
      <point x="304" y="82" type="line"/>
      <point x="304" y="0" type="line"/>
    </contour>
  </outline>
</glyph>
<glyph name="m" format="1">
  <advance width="871"/>
  <unicode hex="006D"/>
  <outline>
    <contour>
      <point x="860" y="0" type="line"/>
      <point x="860" y="82" type="line"/>
      <point x="794" y="82" type="line"/>
      <point x="794" y="297" type="line" smooth="yes"/>
      <point x="794" y="408"/>
      <point x="723" y="458"/>
      <point x="641" y="458" type="curve" smooth="yes"/>
      <point x="568" y="458"/>
      <point x="516" y="418"/>
      <point x="490" y="357" type="curve"/>
      <point x="469" y="426"/>
      <point x="411" y="458"/>
      <point x="344" y="458" type="curve" smooth="yes"/>
      <point x="278" y="458"/>
      <point x="231" y="425"/>
      <point x="203" y="375" type="curve"/>
      <point x="203" y="449" type="line"/>
      <point x="30" y="449" type="line"/>
      <point x="30" y="366" type="line"/>
      <point x="96" y="366" type="line"/>
      <point x="96" y="82" type="line"/>
      <point x="29" y="82" type="line"/>
      <point x="29" y="0" type="line"/>
      <point x="287" y="0" type="line"/>
      <point x="287" y="82" type="line"/>
      <point x="203" y="82" type="line"/>
      <point x="203" y="258" type="line"/>
      <point x="204" y="319"/>
      <point x="236" y="375"/>
      <point x="306" y="375" type="curve" smooth="yes"/>
      <point x="359" y="375"/>
      <point x="391" y="343"/>
      <point x="391" y="258" type="curve" smooth="yes"/>
      <point x="391" y="82" type="line"/>
      <point x="367" y="82" type="line"/>
      <point x="367" y="0" type="line"/>
      <point x="565" y="0" type="line"/>
      <point x="565" y="82" type="line"/>
      <point x="498" y="82" type="line"/>
      <point x="498" y="257" type="line"/>
      <point x="499" y="318"/>
      <point x="531" y="375"/>
      <point x="601" y="375" type="curve" smooth="yes"/>
      <point x="655" y="375"/>
      <point x="687" y="343"/>
      <point x="687" y="258" type="curve" smooth="yes"/>
      <point x="687" y="82" type="line"/>
      <point x="662" y="82" type="line"/>
      <point x="662" y="0" type="line"/>
    </contour>
    <contour>
      <point x="304" y="566" type="move" name="top"/>
    </contour>
  </outline>
</glyph>
<glyph name="s" format="1">
  <advance width="451"/>
  <unicode hex="0073"/>
  <outline>
    <contour>
      <point x="421" y="134" type="curve" smooth="yes"/>
      <point x="421" y="310"/>
      <point x="153" y="234"/>
      <point x="153" y="326" type="curve" smooth="yes"/>
      <point x="153" y="362"/>
      <point x="185" y="378"/>
      <point x="227" y="378" type="curve" smooth="yes"/>
      <point x="254" y="378"/>
      <point x="280" y="373"/>
      <point x="306" y="363" type="curve"/>
      <point x="315" y="296" type="line"/>
      <point x="399" y="306" type="line"/>
      <point x="388" y="417" type="line"/>
      <point x="339" y="443"/>
      <point x="285" y="458"/>
      <point x="224" y="458" type="curve" smooth="yes"/>
      <point x="136" y="458"/>
      <point x="39" y="426"/>
      <point x="39" y="322" type="curve" smooth="yes"/>
      <point x="39" y="145"/>
      <point x="313" y="222"/>
      <point x="313" y="128" type="curve" smooth="yes"/>
      <point x="313" y="89"/>
      <point x="265" y="70"/>
      <point x="211" y="70" type="curve" smooth="yes"/>
      <point x="189" y="70"/>
      <point x="157" y="74"/>
      <point x="132" y="84" type="curve"/>
      <point x="133" y="142" type="line"/>
      <point x="49" y="150" type="line"/>
      <point x="33" y="34" type="line"/>
      <point x="85" y="5"/>
      <point x="153" y="-10"/>
      <point x="217" y="-10" type="curve" smooth="yes"/>
      <point x="336" y="-10"/>
      <point x="421" y="40"/>
    </contour>
  </outline>
</glyph>
<glyph name="v" format="1">
  <advance width="520"/>
  <unicode hex="0076"/>
  <outline>
    <contour>
      <point x="512" y="367" type="line"/>
      <point x="512" y="449" type="line"/>
      <point x="310" y="449" type="line"/>
      <point x="310" y="367" type="line"/>
      <point x="360" y="367" type="line"/>
      <point x="276" y="139" type="line"/>
      <point x="270" y="139" type="line"/>
      <point x="169" y="367" type="line"/>
      <point x="224" y="367" type="line"/>
      <point x="224" y="449" type="line"/>
      <point x="4" y="449" type="line"/>
      <point x="4" y="367" type="line"/>
      <point x="54" y="367" type="line"/>
      <point x="224" y="0" type="line"/>
      <point x="302" y="0" type="line"/>
      <point x="463" y="367" type="line"/>
    </contour>
  </outline>
</glyph>
<glyph name="w" format="1">
  <advance width="762"/>
  <unicode hex="0077"/>
  <outline>
    <contour>
      <point x="754" y="367" type="line"/>
      <point x="754" y="449" type="line"/>
      <point x="544" y="449" type="line"/>
      <point x="544" y="367" type="line"/>
      <point x="611" y="367" type="line"/>
      <point x="557" y="154" type="line"/>
      <point x="551" y="154" type="line"/>
      <point x="422" y="449" type="line"/>
      <point x="356" y="449" type="line"/>
      <point x="241" y="151" type="line"/>
      <point x="235" y="151" type="line"/>
      <point x="166" y="367" type="line"/>
      <point x="236" y="367" type="line"/>
      <point x="236" y="449" type="line"/>
      <point x="8" y="449" type="line"/>
      <point x="8" y="367" type="line"/>
      <point x="52" y="367" type="line"/>
      <point x="181" y="0" type="line"/>
      <point x="257" y="0" type="line"/>
      <point x="374" y="296" type="line"/>
      <point x="379" y="296" type="line"/>
      <point x="503" y="0" type="line"/>
      <point x="583" y="0" type="line"/>
      <point x="709" y="367" type="line"/>
    </contour>
  </outline>
</glyph>
<glyph name="x" format="1">
  <advance width="528"/>
  <unicode hex="0078"/>
  <outline>
    <contour>
      <point x="513" y="0" type="line"/>
      <point x="513" y="82" type="line"/>
      <point x="465" y="82" type="line"/>
      <point x="326" y="232" type="line"/>
      <point x="455" y="367" type="line"/>
      <point x="502" y="367" type="line"/>
      <point x="502" y="449" type="line"/>
      <point x="313" y="449" type="line"/>
      <point x="313" y="367" type="line"/>
      <point x="352" y="367" type="line"/>
      <point x="272" y="277" type="line"/>
      <point x="197" y="367" type="line"/>
      <point x="239" y="367" type="line"/>
      <point x="239" y="449" type="line"/>
      <point x="20" y="449" type="line"/>
      <point x="20" y="367" type="line"/>
      <point x="71" y="367" type="line"/>
      <point x="209" y="222" type="line"/>
      <point x="79" y="82" type="line"/>
      <point x="17" y="82" type="line"/>
      <point x="17" y="0" type="line"/>
      <point x="218" y="0" type="line"/>
      <point x="218" y="82" type="line"/>
      <point x="180" y="82" type="line"/>
      <point x="260" y="174" type="line"/>
      <point x="341" y="82" type="line"/>
      <point x="298" y="82" type="line"/>
      <point x="298" y="0" type="line"/>
    </contour>
  </outline>
</glyph>
<glyph name="y" format="1">
  <advance width="523"/>
  <unicode hex="0079"/>
  <outline>
    <contour>
      <point x="515" y="367" type="line"/>
      <point x="515" y="449" type="line"/>
      <point x="313" y="449" type="line"/>
      <point x="313" y="367" type="line"/>
      <point x="364" y="367" type="line"/>
      <point x="280" y="124" type="line"/>
      <point x="274" y="124" type="line"/>
      <point x="170" y="367" type="line"/>
      <point x="227" y="367" type="line"/>
      <point x="227" y="449" type="line"/>
      <point x="6" y="449" type="line"/>
      <point x="6" y="367" type="line"/>
      <point x="55" y="367" type="line"/>
      <point x="214" y="-4" type="line"/>
      <point x="170" y="-129" type="line"/>
      <point x="94" y="-129" type="line"/>
      <point x="94" y="-213" type="line"/>
      <point x="334" y="-213" type="line"/>
      <point x="334" y="-129" type="line"/>
      <point x="268" y="-129" type="line"/>
      <point x="318" y="0" type="line"/>
      <point x="468" y="367" type="line"/>
    </contour>
  </outline>
</glyph>
<glyph name="z" format="1">
  <advance width="472"/>
  <unicode hex="007A"/>
  <outline>
    <contour>
      <point x="424" y="0" type="line"/>
      <point x="450" y="150" type="line"/>
      <point x="365" y="160" type="line"/>
      <point x="343" y="82" type="line"/>
      <point x="167" y="82" type="line"/>
      <point x="428" y="390" type="line"/>
      <point x="421" y="449" type="line"/>
      <point x="39" y="449" type="line"/>
      <point x="24" y="298" type="line"/>
      <point x="103" y="290" type="line"/>
      <point x="121" y="367" type="line"/>
      <point x="284" y="367" type="line"/>
      <point x="28" y="58" type="line"/>
      <point x="37" y="0" type="line"/>
    </contour>
    <contour>
      <point x="189" y="505" type="move" name="top"/>
    </contour>
  </outline>
</glyph>
<glyph name="bar" format="1">
  <advance width="240"/>
  <unicode hex="007C"/>
  <outline>
    <contour>
      <point x="166" y="730" type="line"/>
      <point x="166" y="-80" type="line"/>
      <point x="74" y="-80" type="line"/>
      <point x="74" y="730" type="line"/>
    </contour>
  </outline>
</glyph>
<glyph name="braceright" format="1">
  <advance width="292"/>
  <unicode hex="007D"/>
  <outline>
    <contour>
      <point x="176" y="271" type="curve"/>
      <point x="93" y="261"/>
      <point x="64" y="219"/>
      <point x="64" y="182" type="curve" smooth="yes"/>
      <point x="64" y="117"/>
      <point x="150" y="-8"/>
      <point x="150" y="-96" type="curve" smooth="yes"/>
      <point x="150" y="-140"/>
      <point x="129" y="-160"/>
      <point x="87" y="-160" type="curve" smooth="yes"/>
      <point x="23" y="-160" type="line"/>
      <point x="23" y="-234" type="line"/>
      <point x="87" y="-234" type="line" smooth="yes"/>
      <point x="195" y="-234"/>
      <point x="239" y="-176"/>
      <point x="239" y="-99" type="curve" smooth="yes"/>
      <point x="239" y="6"/>
      <point x="154" y="131"/>
      <point x="154" y="188" type="curve" smooth="yes"/>
      <point x="154" y="237"/>
      <point x="222" y="246"/>
      <point x="252" y="246" type="curve" smooth="yes"/>
      <point x="271" y="246" type="line"/>
      <point x="271" y="296" type="line"/>
      <point x="252" y="296" type="line" smooth="yes"/>
      <point x="221" y="296"/>
      <point x="154" y="305"/>
      <point x="154" y="355" type="curve" smooth="yes"/>
      <point x="154" y="412"/>
      <point x="239" y="534"/>
      <point x="239" y="637" type="curve" smooth="yes"/>
      <point x="239" y="708"/>
      <point x="199" y="772"/>
      <point x="87" y="772" type="curve" smooth="yes"/>
      <point x="23" y="772" type="line"/>
      <point x="23" y="699" type="line"/>
      <point x="87" y="699" type="line" smooth="yes"/>
      <point x="129" y="699"/>
      <point x="150" y="679"/>
      <point x="150" y="635" type="curve" smooth="yes"/>
      <point x="150" y="547"/>
      <point x="64" y="426"/>
      <point x="64" y="361" type="curve" smooth="yes"/>
      <point x="64" y="323"/>
      <point x="94" y="282"/>
    </contour>
  </outline>
</glyph>
<glyph name="asciitilde" format="1">
  <advance width="584"/>
  <unicode hex="007E"/>
  <outline>
    <contour>
      <point x="393" y="185" type="curve" smooth="yes"/>
      <point x="465" y="185"/>
      <point x="518" y="234"/>
      <point x="557" y="311" type="curve"/>
      <point x="490" y="355" type="line"/>
      <point x="456" y="297"/>
      <point x="431" y="283"/>
      <point x="392" y="283" type="curve" smooth="yes"/>
      <point x="306" y="283"/>
      <point x="261" y="351"/>
      <point x="183" y="351" type="curve" smooth="yes"/>
      <point x="125" y="351"/>
      <point x="70" y="311"/>
      <point x="30" y="230" type="curve"/>
      <point x="90" y="190" type="line"/>
      <point x="124" y="244"/>
      <point x="152" y="253"/>
      <point x="180" y="253" type="curve" smooth="yes"/>
      <point x="255" y="253"/>
      <point x="307" y="185"/>
    </contour>
  </outline>
</glyph>
<glyph name="exclamdown" format="1">
  <advance width="238"/>
  <unicode hex="00A1"/>
  <outline>
    <contour>
      <point x="183" y="-201" type="line"/>
      <point x="159" y="232" type="line"/>
      <point x="80" y="232" type="line"/>
      <point x="56" y="-201" type="line"/>
    </contour>
    <contour>
      <point x="54" y="324" type="line"/>
      <point x="181" y="324" type="line"/>
      <point x="181" y="451" type="line"/>
      <point x="54" y="451" type="line"/>
    </contour>
  </outline>
</glyph>
<glyph name="cent" format="1">
  <advance width="487"/>
  <unicode hex="00A2"/>
  <outline>
    <contour>
      <point x="452" y="161" type="curve"/>
      <point x="363" y="178" type="line"/>
      <point x="353" y="120"/>
      <point x="329" y="90"/>
      <point x="287" y="82" type="curve"/>
      <point x="287" y="366" type="line"/>
      <point x="304" y="363"/>
      <point x="320" y="357"/>
      <point x="337" y="350" type="curve"/>
      <point x="352" y="280" type="line"/>
      <point x="438" y="289" type="line"/>
      <point x="419" y="415" type="line"/>
      <point x="376" y="441"/>
      <point x="332" y="453"/>
      <point x="287" y="457" type="curve"/>
      <point x="287" y="529" type="line"/>
      <point x="227" y="529" type="line"/>
      <point x="227" y="456" type="line"/>
      <point x="112" y="441"/>
      <point x="35" y="350"/>
      <point x="35" y="217" type="curve" smooth="yes"/>
      <point x="35" y="79"/>
      <point x="112" y="1"/>
      <point x="227" y="-9" type="curve"/>
      <point x="227" y="-84" type="line"/>
      <point x="287" y="-84" type="line"/>
      <point x="287" y="-8" type="line"/>
      <point x="397" y="6"/>
      <point x="443" y="88"/>
    </contour>
    <contour>
      <point x="150" y="222" type="curve" smooth="yes"/>
      <point x="150" y="303"/>
      <point x="177" y="350"/>
      <point x="227" y="364" type="curve"/>
      <point x="227" y="84" type="line"/>
      <point x="175" y="98"/>
      <point x="150" y="145"/>
    </contour>
  </outline>
</glyph>
<glyph name="currency" format="1">
  <advance width="492"/>
  <unicode hex="00A4"/>
  <outline>
    <contour>
      <point x="95" y="266" type="curve" smooth="yes"/>
      <point x="95" y="235"/>
      <point x="104" y="207"/>
      <point x="119" y="183" type="curve"/>
      <point x="32" y="96" type="line"/>
      <point x="73" y="55" type="line"/>
      <point x="160" y="141" type="line"/>
      <point x="185" y="124"/>
      <point x="214" y="115"/>
      <point x="246" y="115" type="curve" smooth="yes"/>
      <point x="277" y="115"/>
      <point x="307" y="124"/>
      <point x="331" y="141" type="curve"/>
      <point x="419" y="55" type="line"/>
      <point x="460" y="96" type="line"/>
      <point x="372" y="183" type="line"/>
      <point x="388" y="207"/>
      <point x="397" y="235"/>
      <point x="397" y="266" type="curve" smooth="yes"/>
      <point x="397" y="295"/>
      <point x="389" y="322"/>
      <point x="375" y="345" type="curve"/>
      <point x="460" y="430" type="line"/>
      <point x="419" y="471" type="line"/>
      <point x="335" y="388" type="line"/>
      <point x="310" y="406"/>
      <point x="279" y="417"/>
      <point x="246" y="417" type="curve" smooth="yes"/>
      <point x="213" y="417"/>
      <point x="182" y="406"/>
      <point x="157" y="388" type="curve"/>
      <point x="73" y="471" type="line"/>
      <point x="32" y="430" type="line"/>
      <point x="117" y="345" type="line"/>
      <point x="103" y="322"/>
      <point x="95" y="295"/>
    </contour>
    <contour>
      <point x="187" y="266" type="curve" smooth="yes"/>
      <point x="187" y="305"/>
      <point x="214" y="333"/>
      <point x="247" y="333" type="curve" smooth="yes"/>
      <point x="279" y="333"/>
      <point x="305" y="305"/>
      <point x="305" y="266" type="curve" smooth="yes"/>
      <point x="305" y="227"/>
      <point x="279" y="199"/>
      <point x="247" y="199" type="curve" smooth="yes"/>
      <point x="213" y="199"/>
      <point x="187" y="227"/>
    </contour>
  </outline>
</glyph>
<glyph name="brokenbar" format="1">
  <advance width="236"/>
  <unicode hex="00A6"/>
  <outline>
    <contour>
      <point x="164" y="730" type="line"/>
      <point x="164" y="426" type="line"/>
      <point x="72" y="426" type="line"/>
      <point x="72" y="730" type="line"/>
    </contour>
    <contour>
      <point x="164" y="224" type="line"/>
      <point x="164" y="-80" type="line"/>
      <point x="72" y="-80" type="line"/>
      <point x="72" y="224" type="line"/>
    </contour>
  </outline>
</glyph>
<glyph name="section" format="1">
  <advance width="615"/>
  <unicode hex="00A7"/>
  <outline>
    <contour>
      <point x="521" y="146" type="curve" smooth="yes"/>
      <point x="521" y="163"/>
      <point x="517" y="178"/>
      <point x="510" y="190" type="curve"/>
      <point x="553" y="214"/>
      <point x="586" y="247"/>
      <point x="586" y="300" type="curve" smooth="yes"/>
      <point x="586" y="421"/>
      <point x="415" y="427"/>
      <point x="314" y="443" type="curve" smooth="yes"/>
      <point x="248" y="453"/>
      <point x="195" y="473"/>
      <point x="195" y="522" type="curve" smooth="yes"/>
      <point x="195" y="568"/>
      <point x="242" y="584"/>
      <point x="296" y="584" type="curve" smooth="yes"/>
      <point x="338" y="584"/>
      <point x="385" y="574"/>
      <point x="411" y="561" type="curve"/>
      <point x="421" y="482" type="line"/>
      <point x="505" y="491" type="line"/>
      <point x="494" y="619" type="line"/>
      <point x="430" y="648"/>
      <point x="362" y="660"/>
      <point x="296" y="660" type="curve" smooth="yes"/>
      <point x="169" y="660"/>
      <point x="89" y="606"/>
      <point x="89" y="514" type="curve" smooth="yes"/>
      <point x="89" y="483"/>
      <point x="99" y="459"/>
      <point x="114" y="440" type="curve"/>
      <point x="71" y="420"/>
      <point x="35" y="389"/>
      <point x="35" y="337" type="curve" smooth="yes"/>
      <point x="35" y="240"/>
      <point x="167" y="220"/>
      <point x="274" y="209" type="curve"/>
      <point x="353" y="200"/>
      <point x="415" y="194"/>
      <point x="415" y="139" type="curve" smooth="yes"/>
      <point x="415" y="92"/>
      <point x="371" y="66"/>
      <point x="310" y="66" type="curve" smooth="yes"/>
      <point x="273" y="66"/>
      <point x="206" y="73"/>
      <point x="174" y="87" type="curve"/>
      <point x="178" y="156" type="line"/>
      <point x="94" y="165" type="line"/>
      <point x="78" y="39" type="line"/>
      <point x="144" y="5"/>
      <point x="251" y="-10"/>
      <point x="314" y="-10" type="curve" smooth="yes"/>
      <point x="441" y="-10"/>
      <point x="521" y="52"/>
    </contour>
    <contour>
      <point x="487" y="286" type="curve" smooth="yes"/>
      <point x="487" y="267"/>
      <point x="476" y="256"/>
      <point x="460" y="248" type="curve"/>
      <point x="419" y="270"/>
      <point x="365" y="278"/>
      <point x="314" y="285" type="curve" smooth="yes"/>
      <point x="200" y="300"/>
      <point x="133" y="305"/>
      <point x="133" y="352" type="curve" smooth="yes"/>
      <point x="133" y="373"/>
      <point x="148" y="388"/>
      <point x="168" y="397" type="curve"/>
      <point x="201" y="381"/>
      <point x="240" y="372"/>
      <point x="274" y="368" type="curve" smooth="yes"/>
      <point x="356" y="355"/>
      <point x="487" y="351"/>
    </contour>
  </outline>
</glyph>
<glyph name="dieresis" format="1">
  <advance width="406"/>
  <unicode hex="00A8"/>
  <outline>
    <contour>
      <point x="59" y="540" type="line"/>
      <point x="170" y="540" type="line"/>
      <point x="170" y="655" type="line"/>
      <point x="59" y="655" type="line"/>
    </contour>
    <contour>
      <point x="239" y="540" type="line"/>
      <point x="349" y="540" type="line"/>
      <point x="349" y="655" type="line"/>
      <point x="239" y="655" type="line"/>
    </contour>
  </outline>
</glyph>
<glyph name="ordfeminine" format="1">
  <advance width="376"/>
  <unicode hex="00AA"/>
  <outline>
    <contour>
      <point x="175" y="650" type="curve" smooth="yes"/>
      <point x="226" y="650"/>
      <point x="227" y="614"/>
      <point x="227" y="581" type="curve" smooth="yes"/>
      <point x="227" y="568" type="line"/>
      <point x="212" y="569"/>
      <point x="195" y="570"/>
      <point x="177" y="570" type="curve" smooth="yes"/>
      <point x="108" y="570"/>
      <point x="34" y="554"/>
      <point x="34" y="482" type="curve" smooth="yes"/>
      <point x="34" y="421"/>
      <point x="86" y="398"/>
      <point x="130" y="398" type="curve" smooth="yes"/>
      <point x="179" y="398"/>
      <point x="210" y="427"/>
      <point x="228" y="458" type="curve"/>
      <point x="231" y="421"/>
      <point x="253" y="398"/>
      <point x="292" y="398" type="curve" smooth="yes"/>
      <point x="311" y="398"/>
      <point x="330" y="403"/>
      <point x="346" y="412" type="curve"/>
      <point x="345" y="452" type="line"/>
      <point x="341" y="451"/>
      <point x="336" y="450"/>
      <point x="331" y="450" type="curve" smooth="yes"/>
      <point x="318" y="450"/>
      <point x="311" y="457"/>
      <point x="311" y="475" type="curve" smooth="yes"/>
      <point x="311" y="604" type="line" smooth="yes"/>
      <point x="311" y="667"/>
      <point x="266" y="704"/>
      <point x="185" y="704" type="curve" smooth="yes"/>
      <point x="140" y="704"/>
      <point x="101" y="693"/>
      <point x="64" y="673" type="curve"/>
      <point x="51" y="598" type="line"/>
      <point x="115" y="591" type="line"/>
      <point x="128" y="639" type="line"/>
      <point x="143" y="646"/>
      <point x="158" y="650"/>
    </contour>
    <contour>
      <point x="227" y="520" type="line"/>
      <point x="224" y="476"/>
      <point x="195" y="454"/>
      <point x="163" y="454" type="curve" smooth="yes"/>
      <point x="140" y="454"/>
      <point x="123" y="465"/>
      <point x="123" y="491" type="curve" smooth="yes"/>
      <point x="123" y="526"/>
      <point x="151" y="534"/>
      <point x="182" y="534" type="curve" smooth="yes"/>
      <point x="198" y="534"/>
      <point x="213" y="532"/>
      <point x="227" y="530" type="curve"/>
    </contour>
  </outline>
</glyph>
<glyph name="macron" format="1">
  <advance width="335"/>
  <unicode hex="00AF"/>
  <outline>
    <contour>
      <point x="301" y="547" type="line"/>
      <point x="301" y="629" type="line"/>
      <point x="42" y="629" type="line"/>
      <point x="42" y="547" type="line"/>
    </contour>
  </outline>
</glyph>
<glyph name="plusminus" format="1">
  <advance width="431"/>
  <unicode hex="00B1"/>
  <outline>
    <contour>
      <point x="42" y="253" type="line"/>
      <point x="181" y="253" type="line"/>
      <point x="181" y="117" type="line"/>
      <point x="256" y="117" type="line"/>
      <point x="256" y="253" type="line"/>
      <point x="389" y="253" type="line"/>
      <point x="389" y="328" type="line"/>
      <point x="256" y="328" type="line"/>
      <point x="256" y="464" type="line"/>
      <point x="181" y="464" type="line"/>
      <point x="181" y="328" type="line"/>
      <point x="42" y="328" type="line"/>
    </contour>
    <contour>
      <point x="42" y="0" type="line"/>
      <point x="389" y="0" type="line"/>
      <point x="389" y="75" type="line"/>
      <point x="42" y="75" type="line"/>
    </contour>
  </outline>
</glyph>
<glyph name="twosuperior" format="1">
  <advance width="360"/>
  <unicode hex="00B2"/>
  <outline>
    <contour>
      <point x="101" y="659" type="line"/>
      <point x="112" y="708" type="line"/>
      <point x="128" y="718"/>
      <point x="145" y="721"/>
      <point x="163" y="721" type="curve" smooth="yes"/>
      <point x="200" y="721"/>
      <point x="220" y="703"/>
      <point x="220" y="677" type="curve" smooth="yes"/>
      <point x="220" y="617"/>
      <point x="110" y="539"/>
      <point x="28" y="474" type="curve"/>
      <point x="36" y="415" type="line"/>
      <point x="327" y="415" type="line"/>
      <point x="337" y="525" type="line"/>
      <point x="269" y="533" type="line"/>
      <point x="258" y="479" type="line"/>
      <point x="133" y="479" type="line"/>
      <point x="186" y="517"/>
      <point x="313" y="600"/>
      <point x="313" y="687" type="curve" smooth="yes"/>
      <point x="313" y="735"/>
      <point x="276" y="785"/>
      <point x="179" y="785" type="curve" smooth="yes"/>
      <point x="132" y="785"/>
      <point x="83" y="774"/>
      <point x="49" y="755" type="curve"/>
      <point x="36" y="665" type="line"/>
    </contour>
  </outline>
</glyph>
<glyph name="acute" format="1">
  <advance width="440"/>
  <unicode hex="00B4"/>
  <outline>
    <contour>
      <point x="389" y="609" type="line"/>
      <point x="332" y="693" type="line"/>
      <point x="173" y="555" type="line"/>
      <point x="202" y="512" type="line"/>
    </contour>
  </outline>
</glyph>
<glyph name="paragraph" format="1">
  <advance width="642"/>
  <unicode hex="00B6"/>
  <outline>
    <contour>
      <point x="604" y="650" type="line"/>
      <point x="604" y="559" type="line"/>
      <point x="536" y="559" type="line"/>
      <point x="536" y="0" type="line"/>
      <point x="436" y="0" type="line"/>
      <point x="436" y="559" type="line"/>
      <point x="387" y="559" type="line"/>
      <point x="387" y="0" type="line"/>
      <point x="287" y="0" type="line"/>
      <point x="287" y="310" type="line"/>
      <point x="236" y="310" type="line" smooth="yes"/>
      <point x="119" y="310"/>
      <point x="27" y="357"/>
      <point x="27" y="484" type="curve" smooth="yes"/>
      <point x="27" y="575"/>
      <point x="101" y="650"/>
      <point x="242" y="650" type="curve" smooth="yes"/>
    </contour>
  </outline>
</glyph>
<glyph name="periodcentered" format="1">
  <advance width="226"/>
  <unicode hex="00B7"/>
  <outline>
    <contour>
      <point x="46" y="253" type="line"/>
      <point x="178" y="253" type="line"/>
      <point x="178" y="393" type="line"/>
      <point x="46" y="393" type="line"/>
    </contour>
  </outline>
</glyph>
<glyph name="ordmasculine" format="1">
  <advance width="376"/>
  <unicode hex="00BA"/>
  <outline>
    <contour>
      <point x="27" y="547" type="curve" smooth="yes"/>
      <point x="27" y="633"/>
      <point x="80" y="703"/>
      <point x="188" y="703" type="curve" smooth="yes"/>
      <point x="296" y="703"/>
      <point x="349" y="633"/>
      <point x="349" y="551" type="curve" smooth="yes"/>
      <point x="349" y="459"/>
      <point x="279" y="398"/>
      <point x="183" y="398" type="curve" smooth="yes"/>
      <point x="90" y="398"/>
      <point x="27" y="455"/>
    </contour>
    <contour>
      <point x="117" y="552" type="curve" smooth="yes"/>
      <point x="117" y="500"/>
      <point x="139" y="463"/>
      <point x="186" y="463" type="curve" smooth="yes"/>
      <point x="231" y="463"/>
      <point x="258" y="497"/>
      <point x="258" y="553" type="curve" smooth="yes"/>
      <point x="258" y="612"/>
      <point x="228" y="639"/>
      <point x="187" y="639" type="curve" smooth="yes"/>
      <point x="143" y="639"/>
      <point x="117" y="607"/>
    </contour>
    <contour>
      <point x="162" y="338" type="move" name="top"/>
    </contour>
  </outline>
</glyph>
<glyph name="onehalf" format="1">
  <advance width="770"/>
  <unicode hex="00BD"/>
  <outline>
    <contour>
      <point x="513" y="244" type="line"/>
      <point x="524" y="293" type="line"/>
      <point x="540" y="303"/>
      <point x="557" y="306"/>
      <point x="575" y="306" type="curve" smooth="yes"/>
      <point x="612" y="306"/>
      <point x="632" y="288"/>
      <point x="632" y="262" type="curve" smooth="yes"/>
      <point x="632" y="202"/>
      <point x="522" y="124"/>
      <point x="440" y="59" type="curve"/>
      <point x="448" y="0" type="line"/>
      <point x="739" y="0" type="line"/>
      <point x="749" y="110" type="line"/>
      <point x="681" y="118" type="line"/>
      <point x="670" y="64" type="line"/>
      <point x="545" y="64" type="line"/>
      <point x="598" y="102"/>
      <point x="725" y="185"/>
      <point x="725" y="272" type="curve" smooth="yes"/>
      <point x="725" y="320"/>
      <point x="688" y="370"/>
      <point x="591" y="370" type="curve" smooth="yes"/>
      <point x="544" y="370"/>
      <point x="495" y="359"/>
      <point x="461" y="340" type="curve"/>
      <point x="448" y="250" type="line"/>
    </contour>
    <contour>
      <point x="580" y="650" type="line"/>
      <point x="389" y="325" type="line"/>
      <point x="208" y="0" type="line"/>
      <point x="133" y="0" type="line"/>
      <point x="331" y="337" type="line"/>
      <point x="505" y="650" type="line"/>
    </contour>
    <contour>
      <point x="36" y="350" type="line"/>
      <point x="110" y="350" type="line"/>
      <point x="110" y="586" type="line"/>
      <point x="36" y="586" type="line"/>
      <point x="36" y="650" type="line"/>
      <point x="195" y="650" type="line"/>
      <point x="195" y="350" type="line"/>
      <point x="262" y="350" type="line"/>
      <point x="262" y="286" type="line"/>
      <point x="36" y="286" type="line"/>
    </contour>
  </outline>
</glyph>
<glyph name="threequarters" format="1">
  <advance width="760"/>
  <unicode hex="00BE"/>
  <outline>
    <contour>
      <point x="588" y="0" type="line"/>
      <point x="673" y="0" type="line"/>
      <point x="673" y="74" type="line"/>
      <point x="726" y="74" type="line"/>
      <point x="732" y="139" type="line"/>
      <point x="673" y="139" type="line"/>
      <point x="673" y="364" type="line"/>
      <point x="524" y="364" type="line"/>
      <point x="409" y="136" type="line"/>
      <point x="418" y="74" type="line"/>
      <point x="588" y="74" type="line"/>
    </contour>
    <contour>
      <point x="109" y="540" type="line"/>
      <point x="119" y="584" type="line"/>
      <point x="135" y="593"/>
      <point x="150" y="596"/>
      <point x="167" y="596" type="curve" smooth="yes"/>
      <point x="199" y="596"/>
      <point x="216" y="582"/>
      <point x="216" y="555" type="curve" smooth="yes"/>
      <point x="216" y="517"/>
      <point x="184" y="507"/>
      <point x="141" y="504" type="curve"/>
      <point x="141" y="456" type="line"/>
      <point x="197" y="454"/>
      <point x="229" y="439"/>
      <point x="229" y="404" type="curve" smooth="yes"/>
      <point x="229" y="374"/>
      <point x="207" y="350"/>
      <point x="166" y="350" type="curve" smooth="yes"/>
      <point x="125" y="350"/>
      <point x="106" y="372"/>
      <point x="97" y="402" type="curve"/>
      <point x="36" y="382" type="line"/>
      <point x="48" y="315"/>
      <point x="99" y="284"/>
      <point x="168" y="284" type="curve" smooth="yes"/>
      <point x="256" y="284"/>
      <point x="321" y="323"/>
      <point x="321" y="393" type="curve" smooth="yes"/>
      <point x="321" y="434"/>
      <point x="300" y="472"/>
      <point x="242" y="484" type="curve"/>
      <point x="242" y="486" type="line"/>
      <point x="287" y="503"/>
      <point x="307" y="534"/>
      <point x="307" y="569" type="curve" smooth="yes"/>
      <point x="307" y="621"/>
      <point x="262" y="660"/>
      <point x="183" y="660" type="curve" smooth="yes"/>
      <point x="143" y="660"/>
      <point x="89" y="650"/>
      <point x="56" y="631" type="curve"/>
      <point x="44" y="545" type="line"/>
    </contour>
    <contour>
      <point x="610" y="650" type="line"/>
      <point x="419" y="325" type="line"/>
      <point x="238" y="0" type="line"/>
      <point x="163" y="0" type="line"/>
      <point x="361" y="337" type="line"/>
      <point x="535" y="650" type="line"/>
    </contour>
    <contour>
      <point x="568" y="300" type="line"/>
      <point x="588" y="300" type="line"/>
      <point x="588" y="139" type="line"/>
      <point x="484" y="139" type="line"/>
    </contour>
  </outline>
</glyph>
<glyph name="Aacute" format="1">
  <advance width="672"/>
  <unicode hex="00C1"/>
  <outline>
    <contour>
      <point x="675" y="0" type="line"/>
      <point x="675" y="95" type="line"/>
      <point x="612" y="95" type="line"/>
      <point x="378" y="650" type="line"/>
      <point x="169" y="650" type="line"/>
      <point x="169" y="555" type="line"/>
      <point x="264" y="555" type="line"/>
      <point x="68" y="95" type="line"/>
      <point x="8" y="95" type="line"/>
      <point x="8" y="0" type="line"/>
      <point x="254" y="0" type="line"/>
      <point x="254" y="95" type="line"/>
      <point x="181" y="95" type="line"/>
      <point x="216" y="184" type="line"/>
      <point x="459" y="184" type="line"/>
      <point x="492" y="95" type="line"/>
      <point x="426" y="95" type="line"/>
      <point x="426" y="0" type="line"/>
    </contour>
    <contour>
      <point x="429" y="265" type="line"/>
      <point x="248" y="265" type="line"/>
      <point x="338" y="491" type="line"/>
      <point x="344" y="491" type="line"/>
    </contour>
    <contour>
      <point x="501" y="727" type="line"/>
      <point x="476" y="826" type="line"/>
      <point x="278" y="743" type="line"/>
      <point x="292" y="694" type="line"/>
    </contour>
  </outline>
</glyph>
<glyph name="Acircumflex" format="1">
  <advance width="672"/>
  <unicode hex="00C2"/>
  <outline>
    <contour>
      <point x="675" y="0" type="line"/>
      <point x="675" y="95" type="line"/>
      <point x="612" y="95" type="line"/>
      <point x="378" y="650" type="line"/>
      <point x="169" y="650" type="line"/>
      <point x="169" y="555" type="line"/>
      <point x="264" y="555" type="line"/>
      <point x="68" y="95" type="line"/>
      <point x="8" y="95" type="line"/>
      <point x="8" y="0" type="line"/>
      <point x="254" y="0" type="line"/>
      <point x="254" y="95" type="line"/>
      <point x="181" y="95" type="line"/>
      <point x="216" y="184" type="line"/>
      <point x="459" y="184" type="line"/>
      <point x="492" y="95" type="line"/>
      <point x="426" y="95" type="line"/>
      <point x="426" y="0" type="line"/>
    </contour>
    <contour>
      <point x="429" y="265" type="line"/>
      <point x="248" y="265" type="line"/>
      <point x="338" y="491" type="line"/>
      <point x="344" y="491" type="line"/>
    </contour>
    <contour>
      <point x="482" y="737" type="line"/>
      <point x="350" y="837" type="line"/>
      <point x="314" y="837" type="line"/>
      <point x="182" y="736" type="line"/>
      <point x="207" y="691" type="line"/>
      <point x="328" y="752" type="line"/>
      <point x="457" y="691" type="line"/>
    </contour>
  </outline>
</glyph>
<glyph name="Atilde" format="1">
  <advance width="672"/>
  <unicode hex="00C3"/>
  <outline>
    <contour>
      <point x="675" y="0" type="line"/>
      <point x="675" y="95" type="line"/>
      <point x="612" y="95" type="line"/>
      <point x="378" y="650" type="line"/>
      <point x="169" y="650" type="line"/>
      <point x="169" y="555" type="line"/>
      <point x="264" y="555" type="line"/>
      <point x="68" y="95" type="line"/>
      <point x="8" y="95" type="line"/>
      <point x="8" y="0" type="line"/>
      <point x="254" y="0" type="line"/>
      <point x="254" y="95" type="line"/>
      <point x="181" y="95" type="line"/>
      <point x="216" y="184" type="line"/>
      <point x="459" y="184" type="line"/>
      <point x="492" y="95" type="line"/>
      <point x="426" y="95" type="line"/>
      <point x="426" y="0" type="line"/>
    </contour>
    <contour>
      <point x="429" y="265" type="line"/>
      <point x="248" y="265" type="line"/>
      <point x="338" y="491" type="line"/>
      <point x="344" y="491" type="line"/>
    </contour>
    <contour>
      <point x="469" y="812" type="curve"/>
      <point x="422" y="822" type="line"/>
      <point x="412" y="790"/>
      <point x="393" y="782"/>
      <point x="374" y="782" type="curve" smooth="yes"/>
      <point x="335" y="782"/>
      <point x="302" y="815"/>
      <point x="258" y="815" type="curve" smooth="yes"/>
      <point x="196" y="815"/>
      <point x="173" y="751"/>
      <point x="173" y="716" type="curve"/>
      <point x="217" y="701" type="line"/>
      <point x="225" y="729"/>
      <point x="241" y="736"/>
      <point x="262" y="736" type="curve" smooth="yes"/>
      <point x="305" y="736"/>
      <point x="337" y="704"/>
      <point x="386" y="704" type="curve" smooth="yes"/>
      <point x="447" y="704"/>
      <point x="465" y="755"/>
    </contour>
  </outline>
</glyph>
<glyph name="Adieresis" format="1">
  <advance width="672"/>
  <unicode hex="00C4"/>
  <outline>
    <contour>
      <point x="675" y="0" type="line"/>
      <point x="675" y="95" type="line"/>
      <point x="612" y="95" type="line"/>
      <point x="378" y="650" type="line"/>
      <point x="169" y="650" type="line"/>
      <point x="169" y="555" type="line"/>
      <point x="264" y="555" type="line"/>
      <point x="68" y="95" type="line"/>
      <point x="8" y="95" type="line"/>
      <point x="8" y="0" type="line"/>
      <point x="254" y="0" type="line"/>
      <point x="254" y="95" type="line"/>
      <point x="181" y="95" type="line"/>
      <point x="216" y="184" type="line"/>
      <point x="459" y="184" type="line"/>
      <point x="492" y="95" type="line"/>
      <point x="426" y="95" type="line"/>
      <point x="426" y="0" type="line"/>
    </contour>
    <contour>
      <point x="429" y="265" type="line"/>
      <point x="248" y="265" type="line"/>
      <point x="338" y="491" type="line"/>
      <point x="344" y="491" type="line"/>
    </contour>
    <contour>
      <point x="189" y="710" type="line"/>
      <point x="300" y="710" type="line"/>
      <point x="300" y="825" type="line"/>
      <point x="189" y="825" type="line"/>
    </contour>
    <contour>
      <point x="369" y="710" type="line"/>
      <point x="480" y="710" type="line"/>
      <point x="480" y="825" type="line"/>
      <point x="369" y="825" type="line"/>
    </contour>
  </outline>
</glyph>
<glyph name="Aring" format="1">
  <advance width="672"/>
  <unicode hex="00C5"/>
  <outline>
    <contour>
      <point x="675" y="0" type="line"/>
      <point x="675" y="95" type="line"/>
      <point x="612" y="95" type="line"/>
      <point x="378" y="650" type="line"/>
      <point x="169" y="650" type="line"/>
      <point x="169" y="555" type="line"/>
      <point x="264" y="555" type="line"/>
      <point x="68" y="95" type="line"/>
      <point x="8" y="95" type="line"/>
      <point x="8" y="0" type="line"/>
      <point x="254" y="0" type="line"/>
      <point x="254" y="95" type="line"/>
      <point x="181" y="95" type="line"/>
      <point x="216" y="184" type="line"/>
      <point x="459" y="184" type="line"/>
      <point x="492" y="95" type="line"/>
      <point x="426" y="95" type="line"/>
      <point x="426" y="0" type="line"/>
    </contour>
    <contour>
      <point x="429" y="265" type="line"/>
      <point x="248" y="265" type="line"/>
      <point x="338" y="491" type="line"/>
      <point x="344" y="491" type="line"/>
    </contour>
    <contour>
      <point x="437" y="783" type="curve" smooth="yes"/>
      <point x="437" y="835"/>
      <point x="407" y="873"/>
      <point x="336" y="873" type="curve" smooth="yes"/>
      <point x="267" y="873"/>
      <point x="232" y="836"/>
      <point x="232" y="781" type="curve" smooth="yes"/>
      <point x="232" y="725"/>
      <point x="265" y="689"/>
      <point x="333" y="689" type="curve" smooth="yes"/>
      <point x="404" y="689"/>
      <point x="437" y="728"/>
    </contour>
    <contour>
      <point x="369" y="785" type="curve" smooth="yes"/>
      <point x="369" y="759"/>
      <point x="361" y="742"/>
      <point x="334" y="742" type="curve" smooth="yes"/>
      <point x="308" y="742"/>
      <point x="300" y="756"/>
      <point x="300" y="781" type="curve" smooth="yes"/>
      <point x="300" y="804"/>
      <point x="308" y="821"/>
      <point x="335" y="821" type="curve" smooth="yes"/>
      <point x="363" y="821"/>
      <point x="369" y="803"/>
    </contour>
  </outline>
</glyph>
<glyph name="Edieresis" format="1">
  <advance width="591"/>
  <unicode hex="00CB"/>
  <outline>
    <contour>
      <point x="175" y="710" type="line"/>
      <point x="286" y="710" type="line"/>
      <point x="286" y="825" type="line"/>
      <point x="175" y="825" type="line"/>
    </contour>
    <contour>
      <point x="355" y="710" type="line"/>
      <point x="466" y="710" type="line"/>
      <point x="466" y="825" type="line"/>
      <point x="355" y="825" type="line"/>
    </contour>
    <contour>
      <point x="535" y="0" type="line"/>
      <point x="555" y="188" type="line"/>
      <point x="460" y="196" type="line"/>
      <point x="440" y="95" type="line"/>
      <point x="226" y="95" type="line"/>
      <point x="226" y="280" type="line"/>
      <point x="512" y="280" type="line"/>
      <point x="512" y="375" type="line"/>
      <point x="226" y="375" type="line"/>
      <point x="226" y="555" type="line"/>
      <point x="433" y="555" type="line"/>
      <point x="453" y="454" type="line"/>
      <point x="548" y="462" type="line"/>
      <point x="528" y="650" type="line"/>
      <point x="40" y="650" type="line"/>
      <point x="40" y="555" type="line"/>
      <point x="115" y="555" type="line"/>
      <point x="115" y="95" type="line"/>
      <point x="40" y="95" type="line"/>
      <point x="40" y="0" type="line"/>
    </contour>
  </outline>
</glyph>
<glyph name="Idieresis" format="1">
  <advance width="341"/>
  <unicode hex="00CF"/>
  <outline>
    <contour>
      <point x="300" y="0" type="line"/>
      <point x="300" y="95" type="line"/>
      <point x="226" y="95" type="line"/>
      <point x="226" y="555" type="line"/>
      <point x="300" y="555" type="line"/>
      <point x="300" y="650" type="line"/>
      <point x="40" y="650" type="line"/>
      <point x="40" y="555" type="line"/>
      <point x="115" y="555" type="line"/>
      <point x="115" y="95" type="line"/>
      <point x="40" y="95" type="line"/>
      <point x="40" y="0" type="line"/>
    </contour>
    <contour>
      <point x="29" y="710" type="line"/>
      <point x="140" y="710" type="line"/>
      <point x="140" y="825" type="line"/>
      <point x="29" y="825" type="line"/>
    </contour>
    <contour>
      <point x="209" y="710" type="line"/>
      <point x="320" y="710" type="line"/>
      <point x="320" y="825" type="line"/>
      <point x="209" y="825" type="line"/>
    </contour>
  </outline>
</glyph>
<glyph name="Ntilde" format="1">
  <advance width="752"/>
  <unicode hex="00D1"/>
  <outline>
    <contour>
      <point x="519" y="812" type="curve"/>
      <point x="472" y="822" type="line"/>
      <point x="462" y="790"/>
      <point x="443" y="782"/>
      <point x="424" y="782" type="curve" smooth="yes"/>
      <point x="385" y="782"/>
      <point x="352" y="815"/>
      <point x="308" y="815" type="curve" smooth="yes"/>
      <point x="246" y="815"/>
      <point x="223" y="751"/>
      <point x="223" y="716" type="curve"/>
      <point x="267" y="701" type="line"/>
      <point x="275" y="729"/>
      <point x="291" y="736"/>
      <point x="312" y="736" type="curve" smooth="yes"/>
      <point x="355" y="736"/>
      <point x="387" y="704"/>
      <point x="436" y="704" type="curve" smooth="yes"/>
      <point x="497" y="704"/>
      <point x="515" y="755"/>
    </contour>
    <contour>
      <point x="722" y="555" type="line"/>
      <point x="722" y="650" type="line"/>
      <point x="448" y="650" type="line"/>
      <point x="448" y="555" type="line"/>
      <point x="543" y="555" type="line"/>
      <point x="543" y="220" type="line"/>
      <point x="539" y="220" type="line"/>
      <point x="196" y="650" type="line"/>
      <point x="33" y="650" type="line"/>
      <point x="33" y="555" type="line"/>
      <point x="115" y="555" type="line"/>
      <point x="115" y="95" type="line"/>
      <point x="43" y="95" type="line"/>
      <point x="43" y="0" type="line"/>
      <point x="314" y="0" type="line"/>
      <point x="314" y="95" type="line"/>
      <point x="219" y="95" type="line"/>
      <point x="219" y="450" type="line"/>
      <point x="223" y="450" type="line"/>
      <point x="583" y="-1" type="line"/>
      <point x="647" y="0" type="line"/>
      <point x="647" y="555" type="line"/>
    </contour>
  </outline>
</glyph>
<glyph name="Ocircumflex" format="1">
  <advance width="718"/>
  <unicode hex="00D4"/>
  <outline>
    <contour>
      <point x="689" y="326" type="curve" smooth="yes"/>
      <point x="689" y="509"/>
      <point x="563" y="660"/>
      <point x="360" y="660" type="curve" smooth="yes"/>
      <point x="160" y="660"/>
      <point x="30" y="513"/>
      <point x="30" y="324" type="curve" smooth="yes"/>
      <point x="30" y="142"/>
      <point x="151" y="-10"/>
      <point x="357" y="-10" type="curve" smooth="yes"/>
      <point x="562" y="-10"/>
      <point x="689" y="142"/>
    </contour>
    <contour>
      <point x="569" y="323" type="curve" smooth="yes"/>
      <point x="569" y="187"/>
      <point x="499" y="88"/>
      <point x="362" y="88" type="curve" smooth="yes"/>
      <point x="217" y="88"/>
      <point x="150" y="198"/>
      <point x="150" y="327" type="curve" smooth="yes"/>
      <point x="150" y="460"/>
      <point x="220" y="562"/>
      <point x="359" y="562" type="curve" smooth="yes"/>
      <point x="491" y="562"/>
      <point x="569" y="468"/>
    </contour>
    <contour>
      <point x="513" y="737" type="line"/>
      <point x="381" y="837" type="line"/>
      <point x="345" y="837" type="line"/>
      <point x="213" y="736" type="line"/>
      <point x="238" y="691" type="line"/>
      <point x="359" y="752" type="line"/>
      <point x="488" y="691" type="line"/>
    </contour>
  </outline>
</glyph>
<glyph name="Otilde" format="1">
  <advance width="718"/>
  <unicode hex="00D5"/>
  <outline>
    <contour>
      <point x="514" y="812" type="curve"/>
      <point x="467" y="822" type="line"/>
      <point x="457" y="790"/>
      <point x="438" y="782"/>
      <point x="419" y="782" type="curve" smooth="yes"/>
      <point x="380" y="782"/>
      <point x="347" y="815"/>
      <point x="303" y="815" type="curve" smooth="yes"/>
      <point x="241" y="815"/>
      <point x="218" y="751"/>
      <point x="218" y="716" type="curve"/>
      <point x="262" y="701" type="line"/>
      <point x="270" y="729"/>
      <point x="286" y="736"/>
      <point x="307" y="736" type="curve" smooth="yes"/>
      <point x="350" y="736"/>
      <point x="382" y="704"/>
      <point x="431" y="704" type="curve" smooth="yes"/>
      <point x="492" y="704"/>
      <point x="510" y="755"/>
    </contour>
    <contour>
      <point x="689" y="326" type="curve" smooth="yes"/>
      <point x="689" y="509"/>
      <point x="563" y="660"/>
      <point x="360" y="660" type="curve" smooth="yes"/>
      <point x="160" y="660"/>
      <point x="30" y="513"/>
      <point x="30" y="324" type="curve" smooth="yes"/>
      <point x="30" y="142"/>
      <point x="151" y="-10"/>
      <point x="357" y="-10" type="curve" smooth="yes"/>
      <point x="562" y="-10"/>
      <point x="689" y="142"/>
    </contour>
    <contour>
      <point x="569" y="323" type="curve" smooth="yes"/>
      <point x="569" y="187"/>
      <point x="499" y="88"/>
      <point x="362" y="88" type="curve" smooth="yes"/>
      <point x="217" y="88"/>
      <point x="150" y="198"/>
      <point x="150" y="327" type="curve" smooth="yes"/>
      <point x="150" y="460"/>
      <point x="220" y="562"/>
      <point x="359" y="562" type="curve" smooth="yes"/>
      <point x="491" y="562"/>
      <point x="569" y="468"/>
    </contour>
  </outline>
</glyph>
<glyph name="Uacute" format="1">
  <advance width="718"/>
  <unicode hex="00DA"/>
  <outline>
    <contour>
      <point x="522" y="727" type="line"/>
      <point x="497" y="826" type="line"/>
      <point x="299" y="743" type="line"/>
      <point x="313" y="694" type="line"/>
    </contour>
    <contour>
      <point x="688" y="555" type="line"/>
      <point x="688" y="650" type="line"/>
      <point x="441" y="650" type="line"/>
      <point x="441" y="555" type="line"/>
      <point x="524" y="555" type="line"/>
      <point x="524" y="268" type="line" smooth="yes"/>
      <point x="524" y="155"/>
      <point x="471" y="88"/>
      <point x="362" y="88" type="curve" smooth="yes"/>
      <point x="250" y="88"/>
      <point x="204" y="157"/>
      <point x="204" y="260" type="curve" smooth="yes"/>
      <point x="204" y="555" type="line"/>
      <point x="285" y="555" type="line"/>
      <point x="285" y="650" type="line"/>
      <point x="31" y="650" type="line"/>
      <point x="31" y="555" type="line"/>
      <point x="93" y="555" type="line"/>
      <point x="93" y="257" type="line" smooth="yes"/>
      <point x="93" y="117"/>
      <point x="160" y="-10"/>
      <point x="356" y="-10" type="curve" smooth="yes"/>
      <point x="561" y="-10"/>
      <point x="628" y="130"/>
      <point x="628" y="268" type="curve" smooth="yes"/>
      <point x="628" y="555" type="line"/>
    </contour>
  </outline>
</glyph>
<glyph name="Thorn" format="1">
  <advance width="592"/>
  <unicode hex="00DE"/>
  <outline>
    <contour>
      <point x="300" y="0" type="line"/>
      <point x="300" y="95" type="line"/>
      <point x="226" y="95" type="line"/>
      <point x="226" y="142" type="line"/>
      <point x="344" y="142" type="line" smooth="yes"/>
      <point x="472" y="142"/>
      <point x="577" y="201"/>
      <point x="577" y="337" type="curve" smooth="yes"/>
      <point x="577" y="452"/>
      <point x="498" y="520"/>
      <point x="338" y="520" type="curve" smooth="yes"/>
      <point x="226" y="520" type="line"/>
      <point x="226" y="555" type="line"/>
      <point x="300" y="555" type="line"/>
      <point x="300" y="650" type="line"/>
      <point x="40" y="650" type="line"/>
      <point x="40" y="555" type="line"/>
      <point x="115" y="555" type="line"/>
      <point x="115" y="95" type="line"/>
      <point x="40" y="95" type="line"/>
      <point x="40" y="0" type="line"/>
    </contour>
    <contour>
      <point x="325" y="447" type="line" smooth="yes"/>
      <point x="420" y="447"/>
      <point x="458" y="406"/>
      <point x="458" y="334" type="curve" smooth="yes"/>
      <point x="458" y="260"/>
      <point x="419" y="214"/>
      <point x="324" y="214" type="curve" smooth="yes"/>
      <point x="226" y="214" type="line"/>
      <point x="226" y="447" type="line"/>
    </contour>
  </outline>
</glyph>
<glyph name="iacute" format="1">
  <advance width="292"/>
  <unicode hex="00ED"/>
  <outline>
    <contour>
      <point x="33" y="82" type="line"/>
      <point x="100" y="82" type="line"/>
      <point x="100" y="366" type="line"/>
      <point x="29" y="366" type="line"/>
      <point x="29" y="449" type="line"/>
      <point x="206" y="449" type="line"/>
      <point x="206" y="82" type="line"/>
      <point x="273" y="82" type="line"/>
      <point x="273" y="0" type="line"/>
      <point x="33" y="0" type="line"/>
    </contour>
    <contour>
      <point x="270" y="609" type="line"/>
      <point x="213" y="693" type="line"/>
      <point x="54" y="555" type="line"/>
      <point x="83" y="512" type="line"/>
    </contour>
  </outline>
</glyph>
<glyph name="ntilde" format="1">
  <advance width="586"/>
  <unicode hex="00F1"/>
  <outline>
    <contour>
      <point x="575" y="0" type="line"/>
      <point x="575" y="82" type="line"/>
      <point x="508" y="82" type="line"/>
      <point x="508" y="297" type="line" smooth="yes"/>
      <point x="508" y="408"/>
      <point x="438" y="458"/>
      <point x="352" y="458" type="curve" smooth="yes"/>
      <point x="284" y="458"/>
      <point x="232" y="427"/>
      <point x="203" y="376" type="curve"/>
      <point x="203" y="449" type="line"/>
      <point x="26" y="449" type="line"/>
      <point x="26" y="366" type="line"/>
      <point x="96" y="366" type="line"/>
      <point x="96" y="82" type="line"/>
      <point x="29" y="82" type="line"/>
      <point x="29" y="0" type="line"/>
      <point x="270" y="0" type="line"/>
      <point x="270" y="82" type="line"/>
      <point x="203" y="82" type="line"/>
      <point x="203" y="261" type="line"/>
      <point x="205" y="325"/>
      <point x="246" y="375"/>
      <point x="314" y="375" type="curve" smooth="yes"/>
      <point x="369" y="375"/>
      <point x="401" y="343"/>
      <point x="401" y="258" type="curve" smooth="yes"/>
      <point x="401" y="82" type="line"/>
      <point x="335" y="82" type="line"/>
      <point x="335" y="0" type="line"/>
    </contour>
    <contour>
      <point x="444" y="647" type="curve"/>
      <point x="397" y="657" type="line"/>
      <point x="387" y="625"/>
      <point x="368" y="615"/>
      <point x="350" y="615" type="curve" smooth="yes"/>
      <point x="311" y="615"/>
      <point x="277" y="653"/>
      <point x="232" y="653" type="curve" smooth="yes"/>
      <point x="172" y="653"/>
      <point x="148" y="579"/>
      <point x="148" y="542" type="curve"/>
      <point x="192" y="528" type="line"/>
      <point x="201" y="558"/>
      <point x="217" y="571"/>
      <point x="239" y="571" type="curve" smooth="yes"/>
      <point x="278" y="571"/>
      <point x="312" y="531"/>
      <point x="363" y="531" type="curve" smooth="yes"/>
      <point x="422" y="531"/>
      <point x="441" y="590"/>
    </contour>
  </outline>
</glyph>
<glyph name="divide" format="1">
  <advance width="421"/>
  <unicode hex="00F7"/>
  <outline>
    <contour>
      <point x="384" y="244" type="line"/>
      <point x="384" y="318" type="line"/>
      <point x="37" y="318" type="line"/>
      <point x="37" y="244" type="line"/>
    </contour>
    <contour>
      <point x="144" y="366" type="line"/>
      <point x="276" y="366" type="line"/>
      <point x="276" y="506" type="line"/>
      <point x="144" y="506" type="line"/>
    </contour>
    <contour>
      <point x="144" y="57" type="line"/>
      <point x="276" y="57" type="line"/>
      <point x="276" y="197" type="line"/>
      <point x="144" y="197" type="line"/>
    </contour>
  </outline>
</glyph>
<glyph name="oslash" format="1">
  <advance width="521"/>
  <unicode hex="00F8"/>
  <outline>
    <contour>
      <point x="494" y="224" type="curve" smooth="yes"/>
      <point x="494" y="285"/>
      <point x="475" y="343"/>
      <point x="438" y="385" type="curve"/>
      <point x="494" y="449" type="line"/>
      <point x="417" y="449" type="line"/>
      <point x="394" y="423" type="line"/>
      <point x="359" y="445"/>
      <point x="315" y="458"/>
      <point x="262" y="458" type="curve" smooth="yes"/>
      <point x="106" y="458"/>
      <point x="28" y="350"/>
      <point x="28" y="219" type="curve" smooth="yes"/>
      <point x="28" y="154"/>
      <point x="47" y="101"/>
      <point x="81" y="62" type="curve"/>
      <point x="27" y="0" type="line"/>
      <point x="103" y="0" type="line"/>
      <point x="124" y="24" type="line"/>
      <point x="160" y="2"/>
      <point x="204" y="-10"/>
      <point x="255" y="-10" type="curve" smooth="yes"/>
      <point x="397" y="-10"/>
      <point x="494" y="83"/>
    </contour>
    <contour>
      <point x="379" y="227" type="curve" smooth="yes"/>
      <point x="379" y="138"/>
      <point x="335" y="80"/>
      <point x="259" y="80" type="curve" smooth="yes"/>
      <point x="231" y="80"/>
      <point x="209" y="87"/>
      <point x="191" y="101" type="curve"/>
      <point x="365" y="301" type="line"/>
      <point x="374" y="281"/>
      <point x="379" y="256"/>
    </contour>
    <contour>
      <point x="142" y="226" type="curve" smooth="yes"/>
      <point x="142" y="314"/>
      <point x="184" y="368"/>
      <point x="260" y="368" type="curve" smooth="yes"/>
      <point x="286" y="368"/>
      <point x="310" y="361"/>
      <point x="329" y="348" type="curve"/>
      <point x="156" y="148" type="line"/>
      <point x="146" y="170"/>
      <point x="142" y="197"/>
    </contour>
  </outline>
</glyph>
<glyph name="uacute" format="1">
  <advance width="576"/>
  <unicode hex="00FA"/>
  <outline>
    <contour>
      <point x="439" y="609" type="line"/>
      <point x="382" y="693" type="line"/>
      <point x="223" y="555" type="line"/>
      <point x="252" y="512" type="line"/>
    </contour>
    <contour>
      <point x="561" y="0" type="line"/>
      <point x="561" y="82" type="line"/>
      <point x="491" y="82" type="line"/>
      <point x="491" y="449" type="line"/>
      <point x="304" y="449" type="line"/>
      <point x="304" y="367" type="line"/>
      <point x="384" y="367" type="line"/>
      <point x="384" y="192" type="line"/>
      <point x="383" y="128"/>
      <point x="341" y="74"/>
      <point x="274" y="74" type="curve" smooth="yes"/>
      <point x="218" y="74"/>
      <point x="186" y="106"/>
      <point x="186" y="191" type="curve" smooth="yes"/>
      <point x="186" y="449" type="line"/>
      <point x="12" y="449" type="line"/>
      <point x="12" y="367" type="line"/>
      <point x="79" y="367" type="line"/>
      <point x="79" y="152" type="line" smooth="yes"/>
      <point x="79" y="40"/>
      <point x="150" y="-9"/>
      <point x="236" y="-9" type="curve" smooth="yes"/>
      <point x="303" y="-9"/>
      <point x="356" y="22"/>
      <point x="384" y="75" type="curve"/>
      <point x="384" y="0" type="line"/>
    </contour>
  </outline>
</glyph>
<glyph name="Aogonek" format="1">
  <advance width="672"/>
  <unicode hex="0104"/>
  <outline>
    <contour>
      <point x="674" y="-188" type="curve"/>
      <point x="666" y="-119" type="line"/>
      <point x="651" y="-128"/>
      <point x="633" y="-132"/>
      <point x="616" y="-132" type="curve" smooth="yes"/>
      <point x="589" y="-132"/>
      <point x="568" y="-121"/>
      <point x="568" y="-84" type="curve" smooth="yes"/>
      <point x="568" y="-57"/>
      <point x="578" y="-26"/>
      <point x="619" y="0" type="curve"/>
      <point x="675" y="0" type="line"/>
      <point x="675" y="95" type="line"/>
      <point x="612" y="95" type="line"/>
      <point x="378" y="650" type="line"/>
      <point x="169" y="650" type="line"/>
      <point x="169" y="555" type="line"/>
      <point x="264" y="555" type="line"/>
      <point x="68" y="95" type="line"/>
      <point x="8" y="95" type="line"/>
      <point x="8" y="0" type="line"/>
      <point x="254" y="0" type="line"/>
      <point x="254" y="95" type="line"/>
      <point x="181" y="95" type="line"/>
      <point x="216" y="184" type="line"/>
      <point x="459" y="184" type="line"/>
      <point x="492" y="95" type="line"/>
      <point x="426" y="95" type="line"/>
      <point x="426" y="0" type="line"/>
      <point x="548" y="0" type="line"/>
      <point x="507" y="-25"/>
      <point x="476" y="-66"/>
      <point x="476" y="-117" type="curve" smooth="yes"/>
      <point x="476" y="-179"/>
      <point x="525" y="-208"/>
      <point x="589" y="-208" type="curve" smooth="yes"/>
      <point x="624" y="-208"/>
      <point x="652" y="-200"/>
    </contour>
    <contour>
      <point x="429" y="265" type="line"/>
      <point x="248" y="265" type="line"/>
      <point x="338" y="491" type="line"/>
      <point x="344" y="491" type="line"/>
    </contour>
  </outline>
</glyph>
<glyph name="cacute" format="1">
  <advance width="467"/>
  <unicode hex="0107"/>
  <outline>
    <contour>
      <point x="395" y="609" type="line"/>
      <point x="338" y="693" type="line"/>
      <point x="179" y="555" type="line"/>
      <point x="208" y="512" type="line"/>
    </contour>
    <contour>
      <point x="445" y="161" type="curve"/>
      <point x="355" y="178" type="line"/>
      <point x="344" y="110"/>
      <point x="313" y="76"/>
      <point x="254" y="76" type="curve" smooth="yes"/>
      <point x="178" y="76"/>
      <point x="139" y="130"/>
      <point x="139" y="222" type="curve" smooth="yes"/>
      <point x="139" y="318"/>
      <point x="180" y="372"/>
      <point x="251" y="372" type="curve" smooth="yes"/>
      <point x="278" y="372"/>
      <point x="304" y="366"/>
      <point x="329" y="354" type="curve"/>
      <point x="344" y="280" type="line"/>
      <point x="430" y="289" type="line"/>
      <point x="412" y="415" type="line"/>
      <point x="360" y="446"/>
      <point x="306" y="458"/>
      <point x="253" y="458" type="curve" smooth="yes"/>
      <point x="119" y="458"/>
      <point x="27" y="363"/>
      <point x="27" y="217" type="curve" smooth="yes"/>
      <point x="27" y="69"/>
      <point x="116" y="-10"/>
      <point x="244" y="-10" type="curve" smooth="yes"/>
      <point x="380" y="-10"/>
      <point x="435" y="81"/>
    </contour>
  </outline>
</glyph>
<glyph name="Ebreve" format="1">
  <advance width="591"/>
  <unicode hex="0114"/>
  <outline>
    <contour>
      <point x="464" y="827" type="curve"/>
      <point x="379" y="827" type="line"/>
      <point x="379" y="788"/>
      <point x="365" y="762"/>
      <point x="331" y="762" type="curve" smooth="yes"/>
      <point x="299" y="762"/>
      <point x="284" y="784"/>
      <point x="284" y="827" type="curve"/>
      <point x="199" y="827" type="line"/>
      <point x="199" y="739"/>
      <point x="246" y="696"/>
      <point x="331" y="696" type="curve" smooth="yes"/>
      <point x="414" y="696"/>
      <point x="464" y="736"/>
    </contour>
    <contour>
      <point x="535" y="0" type="line"/>
      <point x="555" y="188" type="line"/>
      <point x="460" y="196" type="line"/>
      <point x="440" y="95" type="line"/>
      <point x="226" y="95" type="line"/>
      <point x="226" y="280" type="line"/>
      <point x="512" y="280" type="line"/>
      <point x="512" y="375" type="line"/>
      <point x="226" y="375" type="line"/>
      <point x="226" y="555" type="line"/>
      <point x="433" y="555" type="line"/>
      <point x="453" y="454" type="line"/>
      <point x="548" y="462" type="line"/>
      <point x="528" y="650" type="line"/>
      <point x="40" y="650" type="line"/>
      <point x="40" y="555" type="line"/>
      <point x="115" y="555" type="line"/>
      <point x="115" y="95" type="line"/>
      <point x="40" y="95" type="line"/>
      <point x="40" y="0" type="line"/>
    </contour>
  </outline>
</glyph>
<glyph name="Edotaccent" format="1">
  <advance width="591"/>
  <unicode hex="0116"/>
  <outline>
    <contour>
      <point x="271" y="710" type="line"/>
      <point x="382" y="710" type="line"/>
      <point x="382" y="825" type="line"/>
      <point x="271" y="825" type="line"/>
    </contour>
    <contour>
      <point x="535" y="0" type="line"/>
      <point x="555" y="188" type="line"/>
      <point x="460" y="196" type="line"/>
      <point x="440" y="95" type="line"/>
      <point x="226" y="95" type="line"/>
      <point x="226" y="280" type="line"/>
      <point x="512" y="280" type="line"/>
      <point x="512" y="375" type="line"/>
      <point x="226" y="375" type="line"/>
      <point x="226" y="555" type="line"/>
      <point x="433" y="555" type="line"/>
      <point x="453" y="454" type="line"/>
      <point x="548" y="462" type="line"/>
      <point x="528" y="650" type="line"/>
      <point x="40" y="650" type="line"/>
      <point x="40" y="555" type="line"/>
      <point x="115" y="555" type="line"/>
      <point x="115" y="95" type="line"/>
      <point x="40" y="95" type="line"/>
      <point x="40" y="0" type="line"/>
    </contour>
  </outline>
</glyph>
<glyph name="edotaccent" format="1">
  <advance width="478"/>
  <unicode hex="0117"/>
  <outline>
    <contour>
      <point x="452" y="137" type="curve"/>
      <point x="363" y="154" type="line"/>
      <point x="354" y="116"/>
      <point x="328" y="76"/>
      <point x="259" y="76" type="curve" smooth="yes"/>
      <point x="185" y="76"/>
      <point x="145" y="121"/>
      <point x="139" y="202" type="curve"/>
      <point x="442" y="202" type="line"/>
      <point x="446" y="223"/>
      <point x="448" y="243"/>
      <point x="448" y="262" type="curve" smooth="yes"/>
      <point x="447" y="375"/>
      <point x="369" y="458"/>
      <point x="245" y="458" type="curve" smooth="yes"/>
      <point x="108" y="458"/>
      <point x="27" y="355"/>
      <point x="27" y="217" type="curve" smooth="yes"/>
      <point x="27" y="68"/>
      <point x="120" y="-10"/>
      <point x="251" y="-10" type="curve" smooth="yes"/>
      <point x="373" y="-10"/>
      <point x="444" y="58"/>
    </contour>
    <contour>
      <point x="338" y="268" type="curve"/>
      <point x="140" y="268" type="line"/>
      <point x="148" y="331"/>
      <point x="180" y="379"/>
      <point x="244" y="379" type="curve" smooth="yes"/>
      <point x="315" y="379"/>
      <point x="344" y="321"/>
    </contour>
    <contour>
      <point x="195" y="539" type="line"/>
      <point x="304" y="539" type="line"/>
      <point x="304" y="657" type="line"/>
      <point x="195" y="657" type="line"/>
    </contour>
  </outline>
</glyph>
<glyph name="Eogonek" format="1">
  <advance width="590"/>
  <unicode hex="0118"/>
  <outline>
    <contour>
      <point x="534" y="0" type="line"/>
      <point x="554" y="188" type="line"/>
      <point x="459" y="196" type="line"/>
      <point x="439" y="95" type="line"/>
      <point x="225" y="95" type="line"/>
      <point x="225" y="280" type="line"/>
      <point x="511" y="280" type="line"/>
      <point x="511" y="375" type="line"/>
      <point x="225" y="375" type="line"/>
      <point x="225" y="555" type="line"/>
      <point x="432" y="555" type="line"/>
      <point x="452" y="454" type="line"/>
      <point x="547" y="462" type="line"/>
      <point x="527" y="650" type="line"/>
      <point x="39" y="650" type="line"/>
      <point x="39" y="555" type="line"/>
      <point x="114" y="555" type="line"/>
      <point x="114" y="95" type="line"/>
      <point x="39" y="95" type="line"/>
      <point x="39" y="0" type="line"/>
      <point x="433" y="0" type="line"/>
      <point x="392" y="-25"/>
      <point x="361" y="-66"/>
      <point x="361" y="-117" type="curve" smooth="yes"/>
      <point x="361" y="-179"/>
      <point x="410" y="-208"/>
      <point x="474" y="-208" type="curve" smooth="yes"/>
      <point x="509" y="-208"/>
      <point x="537" y="-200"/>
      <point x="559" y="-188" type="curve"/>
      <point x="551" y="-119" type="line"/>
      <point x="536" y="-128"/>
      <point x="518" y="-132"/>
      <point x="501" y="-132" type="curve" smooth="yes"/>
      <point x="474" y="-132"/>
      <point x="453" y="-121"/>
      <point x="453" y="-84" type="curve" smooth="yes"/>
      <point x="453" y="-57"/>
      <point x="463" y="-26"/>
      <point x="504" y="0" type="curve"/>
    </contour>
  </outline>
</glyph>
<glyph name="eogonek" format="1">
  <advance width="478"/>
  <unicode hex="0119"/>
  <outline>
    <contour>
      <point x="452" y="137" type="curve"/>
      <point x="363" y="154" type="line"/>
      <point x="354" y="116"/>
      <point x="328" y="76"/>
      <point x="259" y="76" type="curve" smooth="yes"/>
      <point x="185" y="76"/>
      <point x="145" y="121"/>
      <point x="139" y="202" type="curve"/>
      <point x="442" y="202" type="line"/>
      <point x="446" y="223"/>
      <point x="448" y="243"/>
      <point x="448" y="262" type="curve" smooth="yes"/>
      <point x="447" y="375"/>
      <point x="369" y="458"/>
      <point x="245" y="458" type="curve" smooth="yes"/>
      <point x="108" y="458"/>
      <point x="27" y="355"/>
      <point x="27" y="217" type="curve" smooth="yes"/>
      <point x="27" y="73"/>
      <point x="113" y="-4"/>
      <point x="237" y="-10" type="curve"/>
      <point x="203" y="-35"/>
      <point x="179" y="-72"/>
      <point x="179" y="-117" type="curve" smooth="yes"/>
      <point x="179" y="-179"/>
      <point x="228" y="-208"/>
      <point x="292" y="-208" type="curve" smooth="yes"/>
      <point x="327" y="-208"/>
      <point x="355" y="-200"/>
      <point x="377" y="-188" type="curve"/>
      <point x="369" y="-119" type="line"/>
      <point x="354" y="-128"/>
      <point x="336" y="-132"/>
      <point x="319" y="-132" type="curve" smooth="yes"/>
      <point x="292" y="-132"/>
      <point x="271" y="-121"/>
      <point x="271" y="-84" type="curve" smooth="yes"/>
      <point x="271" y="-58"/>
      <point x="280" y="-28"/>
      <point x="319" y="-2" type="curve"/>
      <point x="399" y="18"/>
      <point x="445" y="74"/>
    </contour>
    <contour>
      <point x="338" y="268" type="curve"/>
      <point x="140" y="268" type="line"/>
      <point x="148" y="331"/>
      <point x="180" y="379"/>
      <point x="244" y="379" type="curve" smooth="yes"/>
      <point x="315" y="379"/>
      <point x="344" y="321"/>
    </contour>
  </outline>
</glyph>
<glyph name="Ecaron" format="1">
  <advance width="591"/>
  <unicode hex="011A"/>
  <outline>
    <contour>
      <point x="472" y="791" type="line"/>
      <point x="446" y="837" type="line"/>
      <point x="327" y="776" type="line"/>
      <point x="197" y="836" type="line"/>
      <point x="172" y="791" type="line"/>
      <point x="304" y="691" type="line"/>
      <point x="340" y="691" type="line"/>
    </contour>
    <contour>
      <point x="535" y="0" type="line"/>
      <point x="555" y="188" type="line"/>
      <point x="460" y="196" type="line"/>
      <point x="440" y="95" type="line"/>
      <point x="226" y="95" type="line"/>
      <point x="226" y="280" type="line"/>
      <point x="512" y="280" type="line"/>
      <point x="512" y="375" type="line"/>
      <point x="226" y="375" type="line"/>
      <point x="226" y="555" type="line"/>
      <point x="433" y="555" type="line"/>
      <point x="453" y="454" type="line"/>
      <point x="548" y="462" type="line"/>
      <point x="528" y="650" type="line"/>
      <point x="40" y="650" type="line"/>
      <point x="40" y="555" type="line"/>
      <point x="115" y="555" type="line"/>
      <point x="115" y="95" type="line"/>
      <point x="40" y="95" type="line"/>
      <point x="40" y="0" type="line"/>
    </contour>
  </outline>
</glyph>
<glyph name="gbreve" format="1">
  <advance width="561"/>
  <unicode hex="011F"/>
  <outline>
    <contour>
      <point x="546" y="366" type="line"/>
      <point x="546" y="449" type="line"/>
      <point x="374" y="449" type="line"/>
      <point x="374" y="379" type="line"/>
      <point x="348" y="427"/>
      <point x="298" y="458"/>
      <point x="229" y="458" type="curve" smooth="yes"/>
      <point x="98" y="458"/>
      <point x="28" y="343"/>
      <point x="28" y="215" type="curve" smooth="yes"/>
      <point x="28" y="74"/>
      <point x="117" y="-2"/>
      <point x="222" y="-2" type="curve" smooth="yes"/>
      <point x="304" y="-2"/>
      <point x="349" y="37"/>
      <point x="374" y="85" type="curve"/>
      <point x="374" y="18" type="line" smooth="yes"/>
      <point x="374" y="-81"/>
      <point x="320" y="-136"/>
      <point x="246" y="-136" type="curve" smooth="yes"/>
      <point x="188" y="-136"/>
      <point x="138" y="-106"/>
      <point x="110" y="-44" type="curve"/>
      <point x="27" y="-89" type="line"/>
      <point x="60" y="-187"/>
      <point x="151" y="-222"/>
      <point x="244" y="-222" type="curve" smooth="yes"/>
      <point x="401" y="-222"/>
      <point x="481" y="-126"/>
      <point x="481" y="17" type="curve" smooth="yes"/>
      <point x="481" y="366" type="line"/>
    </contour>
    <contour>
      <point x="374" y="214" type="line"/>
      <point x="374" y="148"/>
      <point x="328" y="84"/>
      <point x="252" y="84" type="curve" smooth="yes"/>
      <point x="191" y="84"/>
      <point x="146" y="127"/>
      <point x="146" y="222" type="curve" smooth="yes"/>
      <point x="146" y="314"/>
      <point x="188" y="372"/>
      <point x="262" y="372" type="curve" smooth="yes"/>
      <point x="326" y="372"/>
      <point x="374" y="325"/>
      <point x="374" y="250" type="curve" smooth="yes"/>
    </contour>
    <contour>
      <point x="394" y="654" type="curve"/>
      <point x="309" y="654" type="line"/>
      <point x="309" y="615"/>
      <point x="295" y="588"/>
      <point x="261" y="588" type="curve" smooth="yes"/>
      <point x="230" y="588"/>
      <point x="214" y="611"/>
      <point x="214" y="654" type="curve"/>
      <point x="129" y="654" type="line"/>
      <point x="129" y="566"/>
      <point x="175" y="522"/>
      <point x="260" y="522" type="curve" smooth="yes"/>
      <point x="342" y="522"/>
      <point x="394" y="563"/>
    </contour>
  </outline>
</glyph>
<glyph name="Gcommaaccent" format="1">
  <advance width="686"/>
  <unicode hex="0122"/>
  <outline>
    <contour>
      <point x="400" y="-60" type="line"/>
      <point x="299" y="-60" type="line"/>
      <point x="294" y="-215" type="line"/>
      <point x="377" y="-215" type="line"/>
    </contour>
    <contour>
      <point x="660" y="255" type="line"/>
      <point x="660" y="350" type="line"/>
      <point x="372" y="350" type="line"/>
      <point x="372" y="255" type="line"/>
      <point x="510" y="255" type="line"/>
      <point x="510" y="231" type="line" smooth="yes"/>
      <point x="510" y="148"/>
      <point x="449" y="88"/>
      <point x="349" y="88" type="curve" smooth="yes"/>
      <point x="230" y="88"/>
      <point x="150" y="173"/>
      <point x="150" y="323" type="curve" smooth="yes"/>
      <point x="150" y="476"/>
      <point x="235" y="562"/>
      <point x="357" y="562" type="curve" smooth="yes"/>
      <point x="414" y="562"/>
      <point x="470" y="546"/>
      <point x="505" y="522" type="curve"/>
      <point x="523" y="440" type="line"/>
      <point x="614" y="449" type="line"/>
      <point x="596" y="583" type="line"/>
      <point x="551" y="626"/>
      <point x="464" y="660"/>
      <point x="359" y="660" type="curve" smooth="yes"/>
      <point x="151" y="660"/>
      <point x="31" y="507"/>
      <point x="31" y="321" type="curve" smooth="yes"/>
      <point x="31" y="134"/>
      <point x="149" y="-10"/>
      <point x="330" y="-10" type="curve" smooth="yes"/>
      <point x="418" y="-10"/>
      <point x="484" y="26"/>
      <point x="524" y="76" type="curve"/>
      <point x="535" y="0" type="line"/>
      <point x="621" y="0" type="line"/>
      <point x="621" y="255" type="line"/>
    </contour>
  </outline>
</glyph>
<glyph name="Hcircumflex" format="1">
  <advance width="759"/>
  <unicode hex="0124"/>
  <outline>
    <contour>
      <point x="718" y="0" type="line"/>
      <point x="718" y="95" type="line"/>
      <point x="644" y="95" type="line"/>
      <point x="644" y="555" type="line"/>
      <point x="718" y="555" type="line"/>
      <point x="718" y="650" type="line"/>
      <point x="458" y="650" type="line"/>
      <point x="458" y="555" type="line"/>
      <point x="533" y="555" type="line"/>
      <point x="533" y="377" type="line"/>
      <point x="226" y="377" type="line"/>
      <point x="226" y="555" type="line"/>
      <point x="300" y="555" type="line"/>
      <point x="300" y="650" type="line"/>
      <point x="40" y="650" type="line"/>
      <point x="40" y="555" type="line"/>
      <point x="115" y="555" type="line"/>
      <point x="115" y="95" type="line"/>
      <point x="40" y="95" type="line"/>
      <point x="40" y="0" type="line"/>
      <point x="300" y="0" type="line"/>
      <point x="300" y="95" type="line"/>
      <point x="226" y="95" type="line"/>
      <point x="226" y="283" type="line"/>
      <point x="533" y="283" type="line"/>
      <point x="533" y="95" type="line"/>
      <point x="458" y="95" type="line"/>
      <point x="458" y="0" type="line"/>
    </contour>
    <contour>
      <point x="532" y="737" type="line"/>
      <point x="400" y="837" type="line"/>
      <point x="364" y="837" type="line"/>
      <point x="232" y="736" type="line"/>
      <point x="257" y="691" type="line"/>
      <point x="378" y="752" type="line"/>
      <point x="507" y="691" type="line"/>
    </contour>
  </outline>
</glyph>
<glyph name="hbar" format="1">
  <advance width="574"/>
  <unicode hex="0127"/>
  <outline>
    <contour>
      <point x="562" y="0" type="line"/>
      <point x="562" y="82" type="line"/>
      <point x="495" y="82" type="line"/>
      <point x="495" y="297" type="line" smooth="yes"/>
      <point x="495" y="408"/>
      <point x="425" y="458"/>
      <point x="339" y="458" type="curve" smooth="yes"/>
      <point x="271" y="458"/>
      <point x="219" y="427"/>
      <point x="190" y="375" type="curve"/>
      <point x="190" y="498" type="line"/>
      <point x="367" y="498" type="line"/>
      <point x="367" y="562" type="line"/>
      <point x="190" y="562" type="line"/>
      <point x="190" y="688" type="line"/>
      <point x="16" y="688" type="line"/>
      <point x="16" y="606" type="line"/>
      <point x="83" y="606" type="line"/>
      <point x="83" y="562" type="line"/>
      <point x="20" y="562" type="line"/>
      <point x="20" y="498" type="line"/>
      <point x="83" y="498" type="line"/>
      <point x="83" y="82" type="line"/>
      <point x="16" y="82" type="line"/>
      <point x="16" y="0" type="line"/>
      <point x="256" y="0" type="line"/>
      <point x="256" y="82" type="line"/>
      <point x="190" y="82" type="line"/>
      <point x="190" y="265" type="line"/>
      <point x="193" y="326"/>
      <point x="233" y="375"/>
      <point x="299" y="375" type="curve" smooth="yes"/>
      <point x="354" y="375"/>
      <point x="388" y="343"/>
      <point x="388" y="258" type="curve" smooth="yes"/>
      <point x="388" y="82" type="line"/>
      <point x="321" y="82" type="line"/>
      <point x="321" y="0" type="line"/>
    </contour>
  </outline>
</glyph>
<glyph name="Imacron" format="1">
  <advance width="341"/>
  <unicode hex="012A"/>
  <outline>
    <contour>
      <point x="300" y="0" type="line"/>
      <point x="300" y="95" type="line"/>
      <point x="226" y="95" type="line"/>
      <point x="226" y="555" type="line"/>
      <point x="300" y="555" type="line"/>
      <point x="300" y="650" type="line"/>
      <point x="40" y="650" type="line"/>
      <point x="40" y="555" type="line"/>
      <point x="115" y="555" type="line"/>
      <point x="115" y="95" type="line"/>
      <point x="40" y="95" type="line"/>
      <point x="40" y="0" type="line"/>
    </contour>
    <contour>
      <point x="320" y="726" type="line"/>
      <point x="320" y="808" type="line"/>
      <point x="23" y="808" type="line"/>
      <point x="23" y="726" type="line"/>
    </contour>
  </outline>
</glyph>
<glyph name="Ibreve" format="1">
  <advance width="341"/>
  <unicode hex="012C"/>
  <outline>
    <contour>
      <point x="300" y="0" type="line"/>
      <point x="300" y="95" type="line"/>
      <point x="226" y="95" type="line"/>
      <point x="226" y="555" type="line"/>
      <point x="300" y="555" type="line"/>
      <point x="300" y="650" type="line"/>
      <point x="40" y="650" type="line"/>
      <point x="40" y="555" type="line"/>
      <point x="115" y="555" type="line"/>
      <point x="115" y="95" type="line"/>
      <point x="40" y="95" type="line"/>
      <point x="40" y="0" type="line"/>
    </contour>
    <contour>
      <point x="303" y="827" type="curve"/>
      <point x="218" y="827" type="line"/>
      <point x="218" y="788"/>
      <point x="204" y="762"/>
      <point x="170" y="762" type="curve" smooth="yes"/>
      <point x="138" y="762"/>
      <point x="123" y="784"/>
      <point x="123" y="827" type="curve"/>
      <point x="38" y="827" type="line"/>
      <point x="38" y="739"/>
      <point x="85" y="696"/>
      <point x="170" y="696" type="curve" smooth="yes"/>
      <point x="253" y="696"/>
      <point x="303" y="736"/>
    </contour>
  </outline>
</glyph>
<glyph name="ibreve" format="1">
  <advance width="292"/>
  <unicode hex="012D"/>
  <outline>
    <contour>
      <point x="33" y="82" type="line"/>
      <point x="100" y="82" type="line"/>
      <point x="100" y="366" type="line"/>
      <point x="29" y="366" type="line"/>
      <point x="29" y="449" type="line"/>
      <point x="206" y="449" type="line"/>
      <point x="206" y="82" type="line"/>
      <point x="273" y="82" type="line"/>
      <point x="273" y="0" type="line"/>
      <point x="33" y="0" type="line"/>
    </contour>
    <contour>
      <point x="278" y="654" type="curve"/>
      <point x="193" y="654" type="line"/>
      <point x="193" y="615"/>
      <point x="179" y="588"/>
      <point x="145" y="588" type="curve" smooth="yes"/>
      <point x="114" y="588"/>
      <point x="98" y="611"/>
      <point x="98" y="654" type="curve"/>
      <point x="13" y="654" type="line"/>
      <point x="13" y="566"/>
      <point x="59" y="522"/>
      <point x="144" y="522" type="curve" smooth="yes"/>
      <point x="226" y="522"/>
      <point x="278" y="563"/>
    </contour>
  </outline>
</glyph>
<glyph name="Iogonek" format="1">
  <advance width="340"/>
  <unicode hex="012E"/>
  <outline>
    <contour>
      <point x="265" y="-188" type="curve"/>
      <point x="257" y="-119" type="line"/>
      <point x="242" y="-128"/>
      <point x="224" y="-132"/>
      <point x="207" y="-132" type="curve" smooth="yes"/>
      <point x="180" y="-132"/>
      <point x="159" y="-121"/>
      <point x="159" y="-84" type="curve" smooth="yes"/>
      <point x="159" y="-57"/>
      <point x="169" y="-26"/>
      <point x="210" y="0" type="curve"/>
      <point x="300" y="0" type="line"/>
      <point x="300" y="95" type="line"/>
      <point x="226" y="95" type="line"/>
      <point x="226" y="555" type="line"/>
      <point x="300" y="555" type="line"/>
      <point x="300" y="650" type="line"/>
      <point x="40" y="650" type="line"/>
      <point x="40" y="555" type="line"/>
      <point x="115" y="555" type="line"/>
      <point x="115" y="95" type="line"/>
      <point x="40" y="95" type="line"/>
      <point x="40" y="0" type="line"/>
      <point x="139" y="0" type="line"/>
      <point x="98" y="-25"/>
      <point x="67" y="-66"/>
      <point x="67" y="-117" type="curve" smooth="yes"/>
      <point x="67" y="-179"/>
      <point x="116" y="-208"/>
      <point x="180" y="-208" type="curve" smooth="yes"/>
      <point x="215" y="-208"/>
      <point x="243" y="-200"/>
    </contour>
  </outline>
</glyph>
<glyph name="Idotaccent" format="1">
  <advance width="341"/>
  <unicode hex="0130"/>
  <outline>
    <contour>
      <point x="300" y="0" type="line"/>
      <point x="300" y="95" type="line"/>
      <point x="226" y="95" type="line"/>
      <point x="226" y="555" type="line"/>
      <point x="300" y="555" type="line"/>
      <point x="300" y="650" type="line"/>
      <point x="40" y="650" type="line"/>
      <point x="40" y="555" type="line"/>
      <point x="115" y="555" type="line"/>
      <point x="115" y="95" type="line"/>
      <point x="40" y="95" type="line"/>
      <point x="40" y="0" type="line"/>
    </contour>
    <contour>
      <point x="114" y="710" type="line"/>
      <point x="225" y="710" type="line"/>
      <point x="225" y="825" type="line"/>
      <point x="114" y="825" type="line"/>
    </contour>
  </outline>
</glyph>
<glyph name="dotlessi" format="1">
  <advance width="292"/>
  <unicode hex="0131"/>
  <outline>
    <contour>
      <point x="33" y="82" type="line"/>
      <point x="100" y="82" type="line"/>
      <point x="100" y="366" type="line"/>
      <point x="29" y="366" type="line"/>
      <point x="29" y="449" type="line"/>
      <point x="206" y="449" type="line"/>
      <point x="206" y="82" type="line"/>
      <point x="273" y="82" type="line"/>
      <point x="273" y="0" type="line"/>
      <point x="33" y="0" type="line"/>
    </contour>
    <contour>
      <point x="309" y="566" type="move" name="top"/>
    </contour>
  </outline>
</glyph>
<glyph name="IJ" format="1">
  <advance width="815"/>
  <unicode hex="0132"/>
  <outline>
    <contour>
      <point x="300" y="0" type="line"/>
      <point x="300" y="95" type="line"/>
      <point x="226" y="95" type="line"/>
      <point x="226" y="555" type="line"/>
      <point x="300" y="555" type="line"/>
      <point x="300" y="650" type="line"/>
      <point x="40" y="650" type="line"/>
      <point x="40" y="555" type="line"/>
      <point x="115" y="555" type="line"/>
      <point x="115" y="95" type="line"/>
      <point x="40" y="95" type="line"/>
      <point x="40" y="0" type="line"/>
    </contour>
    <contour>
      <point x="782" y="555" type="line"/>
      <point x="782" y="650" type="line"/>
      <point x="487" y="650" type="line"/>
      <point x="487" y="555" type="line"/>
      <point x="607" y="555" type="line"/>
      <point x="607" y="177" type="line" smooth="yes"/>
      <point x="607" y="128"/>
      <point x="582" y="93"/>
      <point x="522" y="93" type="curve" smooth="yes"/>
      <point x="485" y="93"/>
      <point x="453" y="106"/>
      <point x="428" y="163" type="curve"/>
      <point x="350" y="104" type="line"/>
      <point x="378" y="41"/>
      <point x="431" y="-10"/>
      <point x="532" y="-10" type="curve" smooth="yes"/>
      <point x="645" y="-10"/>
      <point x="718" y="52"/>
      <point x="718" y="178" type="curve" smooth="yes"/>
      <point x="718" y="555" type="line"/>
    </contour>
  </outline>
</glyph>
<glyph name="Kcommaaccent" format="1">
  <advance width="661"/>
  <unicode hex="0136"/>
  <outline>
    <contour>
      <point x="397" y="-60" type="line"/>
      <point x="296" y="-60" type="line"/>
      <point x="291" y="-215" type="line"/>
      <point x="374" y="-215" type="line"/>
    </contour>
    <contour>
      <point x="654" y="0" type="line"/>
      <point x="654" y="95" type="line"/>
      <point x="584" y="95" type="line"/>
      <point x="402" y="340" type="line"/>
      <point x="569" y="555" type="line"/>
      <point x="642" y="555" type="line"/>
      <point x="642" y="650" type="line"/>
      <point x="388" y="650" type="line"/>
      <point x="388" y="555" type="line"/>
      <point x="452" y="555" type="line"/>
      <point x="317" y="375" type="line"/>
      <point x="226" y="375" type="line"/>
      <point x="226" y="555" type="line"/>
      <point x="291" y="555" type="line"/>
      <point x="291" y="650" type="line"/>
      <point x="40" y="650" type="line"/>
      <point x="40" y="555" type="line"/>
      <point x="115" y="555" type="line"/>
      <point x="115" y="95" type="line"/>
      <point x="40" y="95" type="line"/>
      <point x="40" y="0" type="line"/>
      <point x="288" y="0" type="line"/>
      <point x="288" y="95" type="line"/>
      <point x="226" y="95" type="line"/>
      <point x="226" y="284" type="line"/>
      <point x="316" y="284" type="line"/>
      <point x="456" y="95" type="line"/>
      <point x="389" y="95" type="line"/>
      <point x="389" y="0" type="line"/>
    </contour>
  </outline>
</glyph>
<glyph name="kcommaaccent" format="1">
  <advance width="540"/>
  <unicode hex="0137"/>
  <outline>
    <contour>
      <point x="322" y="-60" type="line"/>
      <point x="221" y="-60" type="line"/>
      <point x="216" y="-215" type="line"/>
      <point x="299" y="-215" type="line"/>
    </contour>
    <contour>
      <point x="528" y="0" type="line"/>
      <point x="528" y="82" type="line"/>
      <point x="480" y="82" type="line"/>
      <point x="344" y="242" type="line"/>
      <point x="450" y="366" type="line"/>
      <point x="506" y="366" type="line"/>
      <point x="506" y="449" type="line"/>
      <point x="287" y="449" type="line"/>
      <point x="287" y="366" type="line"/>
      <point x="346" y="366" type="line"/>
      <point x="267" y="271" type="line"/>
      <point x="190" y="271" type="line"/>
      <point x="190" y="688" type="line"/>
      <point x="12" y="688" type="line"/>
      <point x="12" y="606" type="line"/>
      <point x="83" y="606" type="line"/>
      <point x="83" y="82" type="line"/>
      <point x="16" y="82" type="line"/>
      <point x="16" y="0" type="line"/>
      <point x="240" y="0" type="line"/>
      <point x="240" y="82" type="line"/>
      <point x="190" y="82" type="line"/>
      <point x="190" y="194" type="line"/>
      <point x="262" y="194" type="line"/>
      <point x="356" y="82" type="line"/>
      <point x="304" y="82" type="line"/>
      <point x="304" y="0" type="line"/>
    </contour>
  </outline>
</glyph>
<glyph name="lcommaaccent" format="1">
  <advance width="278"/>
  <unicode hex="013C"/>
  <outline>
    <contour>
      <point x="193" y="-60" type="line"/>
      <point x="92" y="-60" type="line"/>
      <point x="87" y="-215" type="line"/>
      <point x="170" y="-215" type="line"/>
    </contour>
    <contour>
      <point x="259" y="0" type="line"/>
      <point x="259" y="82" type="line"/>
      <point x="192" y="82" type="line"/>
      <point x="192" y="688" type="line"/>
      <point x="15" y="688" type="line"/>
      <point x="15" y="606" type="line"/>
      <point x="86" y="606" type="line"/>
      <point x="86" y="82" type="line"/>
      <point x="19" y="82" type="line"/>
      <point x="19" y="0" type="line"/>
    </contour>
  </outline>
</glyph>
<glyph name="lcaron" format="1">
  <advance width="288"/>
  <unicode hex="013E"/>
  <outline>
    <contour>
      <point x="355" y="681" type="line"/>
      <point x="255" y="681" type="line"/>
      <point x="242" y="457" type="line"/>
      <point x="324" y="457" type="line"/>
    </contour>
    <contour>
      <point x="259" y="0" type="line"/>
      <point x="259" y="82" type="line"/>
      <point x="192" y="82" type="line"/>
      <point x="192" y="688" type="line"/>
      <point x="15" y="688" type="line"/>
      <point x="15" y="606" type="line"/>
      <point x="86" y="606" type="line"/>
      <point x="86" y="82" type="line"/>
      <point x="19" y="82" type="line"/>
      <point x="19" y="0" type="line"/>
    </contour>
  </outline>
</glyph>
<glyph name="Ldot" format="1">
  <advance width="553"/>
  <unicode hex="013F"/>
  <outline>
    <contour>
      <point x="521" y="0" type="line"/>
      <point x="541" y="222" type="line"/>
      <point x="446" y="230" type="line"/>
      <point x="426" y="95" type="line"/>
      <point x="226" y="95" type="line"/>
      <point x="226" y="555" type="line"/>
      <point x="323" y="555" type="line"/>
      <point x="323" y="650" type="line"/>
      <point x="40" y="650" type="line"/>
      <point x="40" y="555" type="line"/>
      <point x="115" y="555" type="line"/>
      <point x="115" y="95" type="line"/>
      <point x="40" y="95" type="line"/>
      <point x="40" y="0" type="line"/>
    </contour>
    <contour>
      <point x="320" y="286" type="line"/>
      <point x="429" y="286" type="line"/>
      <point x="429" y="404" type="line"/>
      <point x="320" y="404" type="line"/>
    </contour>
  </outline>
</glyph>
<glyph name="Nacute" format="1">
  <advance width="752"/>
  <unicode hex="0143"/>
  <outline>
    <contour>
      <point x="526" y="727" type="line"/>
      <point x="501" y="826" type="line"/>
      <point x="303" y="743" type="line"/>
      <point x="317" y="694" type="line"/>
    </contour>
    <contour>
      <point x="722" y="555" type="line"/>
      <point x="722" y="650" type="line"/>
      <point x="448" y="650" type="line"/>
      <point x="448" y="555" type="line"/>
      <point x="543" y="555" type="line"/>
      <point x="543" y="220" type="line"/>
      <point x="539" y="220" type="line"/>
      <point x="196" y="650" type="line"/>
      <point x="33" y="650" type="line"/>
      <point x="33" y="555" type="line"/>
      <point x="115" y="555" type="line"/>
      <point x="115" y="95" type="line"/>
      <point x="43" y="95" type="line"/>
      <point x="43" y="0" type="line"/>
      <point x="314" y="0" type="line"/>
      <point x="314" y="95" type="line"/>
      <point x="219" y="95" type="line"/>
      <point x="219" y="450" type="line"/>
      <point x="223" y="450" type="line"/>
      <point x="583" y="-1" type="line"/>
      <point x="647" y="0" type="line"/>
      <point x="647" y="555" type="line"/>
    </contour>
  </outline>
</glyph>
<glyph name="Ncommaaccent" format="1">
  <advance width="752"/>
  <unicode hex="0145"/>
  <outline>
    <contour>
      <point x="445" y="-60" type="line"/>
      <point x="344" y="-60" type="line"/>
      <point x="339" y="-215" type="line"/>
      <point x="422" y="-215" type="line"/>
    </contour>
    <contour>
      <point x="722" y="555" type="line"/>
      <point x="722" y="650" type="line"/>
      <point x="448" y="650" type="line"/>
      <point x="448" y="555" type="line"/>
      <point x="543" y="555" type="line"/>
      <point x="543" y="220" type="line"/>
      <point x="539" y="220" type="line"/>
      <point x="196" y="650" type="line"/>
      <point x="33" y="650" type="line"/>
      <point x="33" y="555" type="line"/>
      <point x="115" y="555" type="line"/>
      <point x="115" y="95" type="line"/>
      <point x="43" y="95" type="line"/>
      <point x="43" y="0" type="line"/>
      <point x="314" y="0" type="line"/>
      <point x="314" y="95" type="line"/>
      <point x="219" y="95" type="line"/>
      <point x="219" y="450" type="line"/>
      <point x="223" y="450" type="line"/>
      <point x="583" y="-1" type="line"/>
      <point x="647" y="0" type="line"/>
      <point x="647" y="555" type="line"/>
    </contour>
  </outline>
</glyph>
<glyph name="ncommaaccent" format="1">
  <advance width="586"/>
  <unicode hex="0146"/>
  <outline>
    <contour>
      <point x="355" y="-60" type="line"/>
      <point x="254" y="-60" type="line"/>
      <point x="249" y="-215" type="line"/>
      <point x="332" y="-215" type="line"/>
    </contour>
    <contour>
      <point x="575" y="0" type="line"/>
      <point x="575" y="82" type="line"/>
      <point x="508" y="82" type="line"/>
      <point x="508" y="297" type="line" smooth="yes"/>
      <point x="508" y="408"/>
      <point x="438" y="458"/>
      <point x="352" y="458" type="curve" smooth="yes"/>
      <point x="284" y="458"/>
      <point x="232" y="427"/>
      <point x="203" y="376" type="curve"/>
      <point x="203" y="449" type="line"/>
      <point x="26" y="449" type="line"/>
      <point x="26" y="366" type="line"/>
      <point x="96" y="366" type="line"/>
      <point x="96" y="82" type="line"/>
      <point x="29" y="82" type="line"/>
      <point x="29" y="0" type="line"/>
      <point x="270" y="0" type="line"/>
      <point x="270" y="82" type="line"/>
      <point x="203" y="82" type="line"/>
      <point x="203" y="261" type="line"/>
      <point x="205" y="325"/>
      <point x="246" y="375"/>
      <point x="314" y="375" type="curve" smooth="yes"/>
      <point x="369" y="375"/>
      <point x="401" y="343"/>
      <point x="401" y="258" type="curve" smooth="yes"/>
      <point x="401" y="82" type="line"/>
      <point x="335" y="82" type="line"/>
      <point x="335" y="0" type="line"/>
    </contour>
  </outline>
</glyph>
<glyph name="obreve" format="1">
  <advance width="518"/>
  <unicode hex="014F"/>
  <outline>
    <contour>
      <point x="493" y="224" type="curve" smooth="yes"/>
      <point x="493" y="351"/>
      <point x="416" y="459"/>
      <point x="260" y="459" type="curve" smooth="yes"/>
      <point x="105" y="459"/>
      <point x="26" y="351"/>
      <point x="26" y="220" type="curve" smooth="yes"/>
      <point x="26" y="79"/>
      <point x="117" y="-10"/>
      <point x="254" y="-10" type="curve" smooth="yes"/>
      <point x="395" y="-10"/>
      <point x="493" y="84"/>
    </contour>
    <contour>
      <point x="382" y="227" type="curve" smooth="yes"/>
      <point x="382" y="136"/>
      <point x="335" y="74"/>
      <point x="258" y="74" type="curve" smooth="yes"/>
      <point x="178" y="74"/>
      <point x="137" y="141"/>
      <point x="137" y="226" type="curve" smooth="yes"/>
      <point x="137" y="316"/>
      <point x="182" y="375"/>
      <point x="258" y="375" type="curve" smooth="yes"/>
      <point x="331" y="375"/>
      <point x="382" y="323"/>
    </contour>
    <contour>
      <point x="398" y="654" type="curve"/>
      <point x="313" y="654" type="line"/>
      <point x="313" y="615"/>
      <point x="299" y="588"/>
      <point x="265" y="588" type="curve" smooth="yes"/>
      <point x="234" y="588"/>
      <point x="218" y="611"/>
      <point x="218" y="654" type="curve"/>
      <point x="133" y="654" type="line"/>
      <point x="133" y="566"/>
      <point x="179" y="522"/>
      <point x="264" y="522" type="curve" smooth="yes"/>
      <point x="346" y="522"/>
      <point x="398" y="563"/>
    </contour>
  </outline>
</glyph>
<glyph name="ohungarumlaut" format="1">
  <advance width="518"/>
  <unicode hex="0151"/>
  <outline>
    <contour>
      <point x="494" y="609" type="line"/>
      <point x="437" y="693" type="line"/>
      <point x="278" y="555" type="line"/>
      <point x="307" y="512" type="line"/>
    </contour>
    <contour>
      <point x="332" y="668" type="line"/>
      <point x="250" y="727" type="line"/>
      <point x="149" y="542" type="line"/>
      <point x="191" y="512" type="line"/>
    </contour>
    <contour>
      <point x="493" y="224" type="curve" smooth="yes"/>
      <point x="493" y="351"/>
      <point x="416" y="459"/>
      <point x="260" y="459" type="curve" smooth="yes"/>
      <point x="105" y="459"/>
      <point x="26" y="351"/>
      <point x="26" y="220" type="curve" smooth="yes"/>
      <point x="26" y="79"/>
      <point x="117" y="-10"/>
      <point x="254" y="-10" type="curve" smooth="yes"/>
      <point x="395" y="-10"/>
      <point x="493" y="84"/>
    </contour>
    <contour>
      <point x="382" y="227" type="curve" smooth="yes"/>
      <point x="382" y="136"/>
      <point x="335" y="74"/>
      <point x="258" y="74" type="curve" smooth="yes"/>
      <point x="178" y="74"/>
      <point x="137" y="141"/>
      <point x="137" y="226" type="curve" smooth="yes"/>
      <point x="137" y="316"/>
      <point x="182" y="375"/>
      <point x="258" y="375" type="curve" smooth="yes"/>
      <point x="331" y="375"/>
      <point x="382" y="323"/>
    </contour>
  </outline>
</glyph>
<glyph name="OE" format="1">
  <advance width="997"/>
  <unicode hex="0152"/>
  <outline>
    <contour>
      <point x="946" y="0" type="line"/>
      <point x="966" y="188" type="line"/>
      <point x="870" y="196" type="line"/>
      <point x="850" y="95" type="line"/>
      <point x="631" y="95" type="line"/>
      <point x="631" y="280" type="line"/>
      <point x="917" y="280" type="line"/>
      <point x="917" y="375" type="line"/>
      <point x="631" y="375" type="line"/>
      <point x="631" y="555" type="line"/>
      <point x="843" y="555" type="line"/>
      <point x="863" y="454" type="line"/>
      <point x="958" y="462" type="line"/>
      <point x="938" y="650" type="line"/>
      <point x="520" y="650" type="line"/>
      <point x="520" y="616" type="line"/>
      <point x="476" y="643"/>
      <point x="426" y="660"/>
      <point x="360" y="660" type="curve" smooth="yes"/>
      <point x="167" y="660"/>
      <point x="29" y="513"/>
      <point x="29" y="324" type="curve" smooth="yes"/>
      <point x="29" y="142"/>
      <point x="157" y="-10"/>
      <point x="360" y="-10" type="curve" smooth="yes"/>
      <point x="427" y="-10"/>
      <point x="477" y="6"/>
      <point x="520" y="32" type="curve"/>
      <point x="520" y="0" type="line"/>
    </contour>
    <contour>
      <point x="520" y="146" type="line"/>
      <point x="488" y="110"/>
      <point x="432" y="88"/>
      <point x="368" y="88" type="curve" smooth="yes"/>
      <point x="219" y="88"/>
      <point x="149" y="205"/>
      <point x="149" y="328" type="curve" smooth="yes"/>
      <point x="149" y="460"/>
      <point x="227" y="562"/>
      <point x="365" y="562" type="curve" smooth="yes"/>
      <point x="426" y="562"/>
      <point x="478" y="541"/>
      <point x="520" y="502" type="curve"/>
    </contour>
  </outline>
</glyph>
<glyph name="racute" format="1">
  <advance width="433"/>
  <unicode hex="0155"/>
  <outline>
    <contour>
      <point x="419" y="609" type="line"/>
      <point x="362" y="693" type="line"/>
      <point x="203" y="555" type="line"/>
      <point x="232" y="512" type="line"/>
    </contour>
    <contour>
      <point x="303" y="456" type="curve" smooth="yes"/>
      <point x="246" y="456"/>
      <point x="211" y="416"/>
      <point x="195" y="365" type="curve"/>
      <point x="195" y="449" type="line"/>
      <point x="26" y="449" type="line"/>
      <point x="26" y="366" type="line"/>
      <point x="96" y="366" type="line"/>
      <point x="96" y="82" type="line"/>
      <point x="29" y="82" type="line"/>
      <point x="29" y="0" type="line"/>
      <point x="292" y="0" type="line"/>
      <point x="292" y="82" type="line"/>
      <point x="203" y="82" type="line"/>
      <point x="203" y="281" type="line" smooth="yes"/>
      <point x="203" y="335"/>
      <point x="234" y="368"/>
      <point x="272" y="368" type="curve" smooth="yes"/>
      <point x="284" y="368"/>
      <point x="294" y="364"/>
      <point x="306" y="358" type="curve"/>
      <point x="323" y="281" type="line"/>
      <point x="406" y="291" type="line"/>
      <point x="387" y="431" type="line"/>
      <point x="359" y="449"/>
      <point x="330" y="456"/>
    </contour>
  </outline>
</glyph>
<glyph name="Rcommaaccent" format="1">
  <advance width="629"/>
  <unicode hex="0156"/>
  <outline>
    <contour>
      <point x="397" y="-60" type="line"/>
      <point x="296" y="-60" type="line"/>
      <point x="291" y="-215" type="line"/>
      <point x="374" y="-215" type="line"/>
    </contour>
    <contour>
      <point x="619" y="0" type="line"/>
      <point x="619" y="95" type="line"/>
      <point x="539" y="95" type="line"/>
      <point x="440" y="280" type="line"/>
      <point x="521" y="307"/>
      <point x="570" y="371"/>
      <point x="570" y="458" type="curve" smooth="yes"/>
      <point x="570" y="579"/>
      <point x="490" y="650"/>
      <point x="329" y="650" type="curve" smooth="yes"/>
      <point x="40" y="650" type="line"/>
      <point x="40" y="555" type="line"/>
      <point x="115" y="555" type="line"/>
      <point x="115" y="95" type="line"/>
      <point x="40" y="95" type="line"/>
      <point x="40" y="0" type="line"/>
      <point x="302" y="0" type="line"/>
      <point x="302" y="95" type="line"/>
      <point x="226" y="95" type="line"/>
      <point x="226" y="257" type="line"/>
      <point x="333" y="257" type="line"/>
      <point x="467" y="0" type="line"/>
    </contour>
    <contour>
      <point x="452" y="455" type="curve" smooth="yes"/>
      <point x="452" y="386"/>
      <point x="416" y="346"/>
      <point x="310" y="346" type="curve" smooth="yes"/>
      <point x="226" y="346" type="line"/>
      <point x="226" y="555" type="line"/>
      <point x="311" y="555" type="line" smooth="yes"/>
      <point x="414" y="555"/>
      <point x="452" y="528"/>
    </contour>
  </outline>
</glyph>
<glyph name="Tbar" format="1">
  <advance width="639"/>
  <unicode hex="0166"/>
  <outline>
    <contour>
      <point x="618" y="438" type="line"/>
      <point x="598" y="650" type="line"/>
      <point x="41" y="650" type="line"/>
      <point x="21" y="438" type="line"/>
      <point x="116" y="430" type="line"/>
      <point x="136" y="555" type="line"/>
      <point x="264" y="555" type="line"/>
      <point x="264" y="338" type="line"/>
      <point x="130" y="338" type="line"/>
      <point x="130" y="270" type="line"/>
      <point x="264" y="270" type="line"/>
      <point x="264" y="95" type="line"/>
      <point x="159" y="95" type="line"/>
      <point x="159" y="0" type="line"/>
      <point x="484" y="0" type="line"/>
      <point x="484" y="95" type="line"/>
      <point x="375" y="95" type="line"/>
      <point x="375" y="270" type="line"/>
      <point x="508" y="270" type="line"/>
      <point x="508" y="338" type="line"/>
      <point x="375" y="338" type="line"/>
      <point x="375" y="555" type="line"/>
      <point x="502" y="555" type="line"/>
      <point x="522" y="430" type="line"/>
    </contour>
  </outline>
</glyph>
<glyph name="tbar" format="1">
  <advance width="390"/>
  <unicode hex="0167"/>
  <outline>
    <contour>
      <point x="20" y="220" type="line"/>
      <point x="78" y="220" type="line"/>
      <point x="78" y="134" type="line" smooth="yes"/>
      <point x="78" y="43"/>
      <point x="139" y="-10"/>
      <point x="235" y="-10" type="curve" smooth="yes"/>
      <point x="324" y="-10"/>
      <point x="380" y="35"/>
      <point x="393" y="132" type="curve"/>
      <point x="314" y="157" type="line"/>
      <point x="304" y="88"/>
      <point x="270" y="80"/>
      <point x="247" y="80" type="curve" smooth="yes"/>
      <point x="207" y="80"/>
      <point x="185" y="103"/>
      <point x="185" y="151" type="curve" smooth="yes"/>
      <point x="185" y="220" type="line"/>
      <point x="337" y="220" type="line"/>
      <point x="337" y="293" type="line"/>
      <point x="185" y="293" type="line"/>
      <point x="185" y="370" type="line"/>
      <point x="352" y="370" type="line"/>
      <point x="352" y="449" type="line"/>
      <point x="185" y="449" type="line"/>
      <point x="185" y="588" type="line"/>
      <point x="78" y="588" type="line"/>
      <point x="78" y="449" type="line"/>
      <point x="12" y="449" type="line"/>
      <point x="12" y="370" type="line"/>
      <point x="78" y="370" type="line"/>
      <point x="78" y="293" type="line"/>
      <point x="20" y="293" type="line"/>
    </contour>
  </outline>
</glyph>
<glyph name="umacron" format="1">
  <advance width="576"/>
  <unicode hex="016B"/>
  <outline>
    <contour>
      <point x="561" y="0" type="line"/>
      <point x="561" y="82" type="line"/>
      <point x="491" y="82" type="line"/>
      <point x="491" y="449" type="line"/>
      <point x="304" y="449" type="line"/>
      <point x="304" y="367" type="line"/>
      <point x="384" y="367" type="line"/>
      <point x="384" y="192" type="line"/>
      <point x="383" y="128"/>
      <point x="341" y="74"/>
      <point x="274" y="74" type="curve" smooth="yes"/>
      <point x="218" y="74"/>
      <point x="186" y="106"/>
      <point x="186" y="191" type="curve" smooth="yes"/>
      <point x="186" y="449" type="line"/>
      <point x="12" y="449" type="line"/>
      <point x="12" y="367" type="line"/>
      <point x="79" y="367" type="line"/>
      <point x="79" y="152" type="line" smooth="yes"/>
      <point x="79" y="40"/>
      <point x="150" y="-9"/>
      <point x="236" y="-9" type="curve" smooth="yes"/>
      <point x="303" y="-9"/>
      <point x="356" y="22"/>
      <point x="384" y="75" type="curve"/>
      <point x="384" y="0" type="line"/>
    </contour>
    <contour>
      <point x="404" y="547" type="line"/>
      <point x="404" y="629" type="line"/>
      <point x="145" y="629" type="line"/>
      <point x="145" y="547" type="line"/>
    </contour>
  </outline>
</glyph>
<glyph name="Ubreve" format="1">
  <advance width="718"/>
  <unicode hex="016C"/>
  <outline>
    <contour>
      <point x="495" y="827" type="curve"/>
      <point x="410" y="827" type="line"/>
      <point x="410" y="788"/>
      <point x="396" y="762"/>
      <point x="362" y="762" type="curve" smooth="yes"/>
      <point x="330" y="762"/>
      <point x="315" y="784"/>
      <point x="315" y="827" type="curve"/>
      <point x="230" y="827" type="line"/>
      <point x="230" y="739"/>
      <point x="277" y="696"/>
      <point x="362" y="696" type="curve" smooth="yes"/>
      <point x="445" y="696"/>
      <point x="495" y="736"/>
    </contour>
    <contour>
      <point x="688" y="555" type="line"/>
      <point x="688" y="650" type="line"/>
      <point x="441" y="650" type="line"/>
      <point x="441" y="555" type="line"/>
      <point x="524" y="555" type="line"/>
      <point x="524" y="268" type="line" smooth="yes"/>
      <point x="524" y="155"/>
      <point x="471" y="88"/>
      <point x="362" y="88" type="curve" smooth="yes"/>
      <point x="250" y="88"/>
      <point x="204" y="157"/>
      <point x="204" y="260" type="curve" smooth="yes"/>
      <point x="204" y="555" type="line"/>
      <point x="285" y="555" type="line"/>
      <point x="285" y="650" type="line"/>
      <point x="31" y="650" type="line"/>
      <point x="31" y="555" type="line"/>
      <point x="93" y="555" type="line"/>
      <point x="93" y="257" type="line" smooth="yes"/>
      <point x="93" y="117"/>
      <point x="160" y="-10"/>
      <point x="356" y="-10" type="curve" smooth="yes"/>
      <point x="561" y="-10"/>
      <point x="628" y="130"/>
      <point x="628" y="268" type="curve" smooth="yes"/>
      <point x="628" y="555" type="line"/>
    </contour>
  </outline>
</glyph>
<glyph name="Uring" format="1">
  <advance width="718"/>
  <unicode hex="016E"/>
  <outline>
    <contour>
      <point x="688" y="555" type="line"/>
      <point x="688" y="650" type="line"/>
      <point x="441" y="650" type="line"/>
      <point x="441" y="555" type="line"/>
      <point x="524" y="555" type="line"/>
      <point x="524" y="268" type="line" smooth="yes"/>
      <point x="524" y="155"/>
      <point x="471" y="88"/>
      <point x="362" y="88" type="curve" smooth="yes"/>
      <point x="250" y="88"/>
      <point x="204" y="157"/>
      <point x="204" y="260" type="curve" smooth="yes"/>
      <point x="204" y="555" type="line"/>
      <point x="285" y="555" type="line"/>
      <point x="285" y="650" type="line"/>
      <point x="31" y="650" type="line"/>
      <point x="31" y="555" type="line"/>
      <point x="93" y="555" type="line"/>
      <point x="93" y="257" type="line" smooth="yes"/>
      <point x="93" y="117"/>
      <point x="160" y="-10"/>
      <point x="356" y="-10" type="curve" smooth="yes"/>
      <point x="561" y="-10"/>
      <point x="628" y="130"/>
      <point x="628" y="268" type="curve" smooth="yes"/>
      <point x="628" y="555" type="line"/>
    </contour>
    <contour>
      <point x="467" y="783" type="curve" smooth="yes"/>
      <point x="467" y="835"/>
      <point x="437" y="873"/>
      <point x="366" y="873" type="curve" smooth="yes"/>
      <point x="297" y="873"/>
      <point x="262" y="836"/>
      <point x="262" y="781" type="curve" smooth="yes"/>
      <point x="262" y="725"/>
      <point x="295" y="689"/>
      <point x="363" y="689" type="curve" smooth="yes"/>
      <point x="434" y="689"/>
      <point x="467" y="728"/>
    </contour>
    <contour>
      <point x="399" y="785" type="curve" smooth="yes"/>
      <point x="399" y="759"/>
      <point x="391" y="742"/>
      <point x="364" y="742" type="curve" smooth="yes"/>
      <point x="338" y="742"/>
      <point x="330" y="756"/>
      <point x="330" y="781" type="curve" smooth="yes"/>
      <point x="330" y="804"/>
      <point x="338" y="821"/>
      <point x="365" y="821" type="curve" smooth="yes"/>
      <point x="393" y="821"/>
      <point x="399" y="803"/>
    </contour>
  </outline>
</glyph>
<glyph name="uring" format="1">
  <advance width="576"/>
  <unicode hex="016F"/>
  <outline>
    <contour>
      <point x="375" y="608" type="curve" smooth="yes"/>
      <point x="375" y="660"/>
      <point x="345" y="698"/>
      <point x="274" y="698" type="curve" smooth="yes"/>
      <point x="205" y="698"/>
      <point x="170" y="661"/>
      <point x="170" y="605" type="curve" smooth="yes"/>
      <point x="170" y="550"/>
      <point x="203" y="514"/>
      <point x="271" y="514" type="curve" smooth="yes"/>
      <point x="342" y="514"/>
      <point x="375" y="553"/>
    </contour>
    <contour>
      <point x="307" y="609" type="curve" smooth="yes"/>
      <point x="307" y="583"/>
      <point x="299" y="566"/>
      <point x="272" y="566" type="curve" smooth="yes"/>
      <point x="246" y="566"/>
      <point x="238" y="581"/>
      <point x="238" y="605" type="curve" smooth="yes"/>
      <point x="238" y="629"/>
      <point x="246" y="646"/>
      <point x="273" y="646" type="curve" smooth="yes"/>
      <point x="301" y="646"/>
      <point x="307" y="628"/>
    </contour>
    <contour>
      <point x="561" y="0" type="line"/>
      <point x="561" y="82" type="line"/>
      <point x="491" y="82" type="line"/>
      <point x="491" y="449" type="line"/>
      <point x="304" y="449" type="line"/>
      <point x="304" y="367" type="line"/>
      <point x="384" y="367" type="line"/>
      <point x="384" y="192" type="line"/>
      <point x="383" y="128"/>
      <point x="341" y="74"/>
      <point x="274" y="74" type="curve" smooth="yes"/>
      <point x="218" y="74"/>
      <point x="186" y="106"/>
      <point x="186" y="191" type="curve" smooth="yes"/>
      <point x="186" y="449" type="line"/>
      <point x="12" y="449" type="line"/>
      <point x="12" y="367" type="line"/>
      <point x="79" y="367" type="line"/>
      <point x="79" y="152" type="line" smooth="yes"/>
      <point x="79" y="40"/>
      <point x="150" y="-9"/>
      <point x="236" y="-9" type="curve" smooth="yes"/>
      <point x="303" y="-9"/>
      <point x="356" y="22"/>
      <point x="384" y="75" type="curve"/>
      <point x="384" y="0" type="line"/>
    </contour>
  </outline>
</glyph>
<glyph name="Uhungarumlaut" format="1">
  <advance width="718"/>
  <unicode hex="0170"/>
  <outline>
    <contour>
      <point x="688" y="555" type="line"/>
      <point x="688" y="650" type="line"/>
      <point x="441" y="650" type="line"/>
      <point x="441" y="555" type="line"/>
      <point x="524" y="555" type="line"/>
      <point x="524" y="268" type="line" smooth="yes"/>
      <point x="524" y="155"/>
      <point x="471" y="88"/>
      <point x="362" y="88" type="curve" smooth="yes"/>
      <point x="250" y="88"/>
      <point x="204" y="157"/>
      <point x="204" y="260" type="curve" smooth="yes"/>
      <point x="204" y="555" type="line"/>
      <point x="285" y="555" type="line"/>
      <point x="285" y="650" type="line"/>
      <point x="31" y="650" type="line"/>
      <point x="31" y="555" type="line"/>
      <point x="93" y="555" type="line"/>
      <point x="93" y="257" type="line" smooth="yes"/>
      <point x="93" y="117"/>
      <point x="160" y="-10"/>
      <point x="356" y="-10" type="curve" smooth="yes"/>
      <point x="561" y="-10"/>
      <point x="628" y="130"/>
      <point x="628" y="268" type="curve" smooth="yes"/>
      <point x="628" y="555" type="line"/>
    </contour>
    <contour>
      <point x="589" y="727" type="line"/>
      <point x="565" y="826" type="line"/>
      <point x="367" y="743" type="line"/>
      <point x="381" y="694" type="line"/>
    </contour>
    <contour>
      <point x="436" y="825" type="line"/>
      <point x="366" y="897" type="line"/>
      <point x="235" y="728" type="line"/>
      <point x="272" y="693" type="line"/>
    </contour>
  </outline>
</glyph>
<glyph name="Uogonek" format="1">
  <advance width="719"/>
  <unicode hex="0172"/>
  <outline>
    <contour>
      <point x="688" y="555" type="line"/>
      <point x="688" y="650" type="line"/>
      <point x="441" y="650" type="line"/>
      <point x="441" y="555" type="line"/>
      <point x="524" y="555" type="line"/>
      <point x="524" y="268" type="line" smooth="yes"/>
      <point x="524" y="155"/>
      <point x="471" y="88"/>
      <point x="362" y="88" type="curve" smooth="yes"/>
      <point x="250" y="88"/>
      <point x="204" y="157"/>
      <point x="204" y="260" type="curve" smooth="yes"/>
      <point x="204" y="555" type="line"/>
      <point x="285" y="555" type="line"/>
      <point x="285" y="650" type="line"/>
      <point x="31" y="650" type="line"/>
      <point x="31" y="555" type="line"/>
      <point x="93" y="555" type="line"/>
      <point x="93" y="257" type="line" smooth="yes"/>
      <point x="93" y="119"/>
      <point x="158" y="-7"/>
      <point x="348" y="-10" type="curve"/>
      <point x="315" y="-35"/>
      <point x="291" y="-72"/>
      <point x="291" y="-117" type="curve" smooth="yes"/>
      <point x="291" y="-179"/>
      <point x="340" y="-208"/>
      <point x="404" y="-208" type="curve" smooth="yes"/>
      <point x="439" y="-208"/>
      <point x="467" y="-200"/>
      <point x="489" y="-188" type="curve"/>
      <point x="481" y="-119" type="line"/>
      <point x="466" y="-128"/>
      <point x="448" y="-132"/>
      <point x="431" y="-132" type="curve" smooth="yes"/>
      <point x="404" y="-132"/>
      <point x="383" y="-121"/>
      <point x="383" y="-84" type="curve" smooth="yes"/>
      <point x="383" y="-58"/>
      <point x="392" y="-29"/>
      <point x="430" y="-3" type="curve"/>
      <point x="577" y="27"/>
      <point x="628" y="148"/>
      <point x="628" y="268" type="curve" smooth="yes"/>
      <point x="628" y="555" type="line"/>
    </contour>
  </outline>
</glyph>
<glyph name="Wcircumflex" format="1">
  <advance width="968"/>
  <unicode hex="0174"/>
  <outline>
    <contour>
      <point x="959" y="555" type="line"/>
      <point x="959" y="650" type="line"/>
      <point x="715" y="650" type="line"/>
      <point x="715" y="555" type="line"/>
      <point x="795" y="555" type="line"/>
      <point x="693" y="178" type="line"/>
      <point x="688" y="178" type="line"/>
      <point x="559" y="555" type="line"/>
      <point x="612" y="555" type="line"/>
      <point x="612" y="650" type="line"/>
      <point x="366" y="650" type="line"/>
      <point x="366" y="555" type="line"/>
      <point x="423" y="555" type="line"/>
      <point x="294" y="183" type="line"/>
      <point x="289" y="183" type="line"/>
      <point x="177" y="555" type="line"/>
      <point x="249" y="555" type="line"/>
      <point x="249" y="650" type="line"/>
      <point x="2" y="650" type="line"/>
      <point x="2" y="555" type="line"/>
      <point x="58" y="555" type="line"/>
      <point x="246" y="0" type="line"/>
      <point x="329" y="0" type="line"/>
      <point x="483" y="458" type="line"/>
      <point x="488" y="458" type="line"/>
      <point x="647" y="0" type="line"/>
      <point x="729" y="0" type="line"/>
      <point x="906" y="555" type="line"/>
    </contour>
    <contour>
      <point x="644" y="737" type="line"/>
      <point x="512" y="837" type="line"/>
      <point x="476" y="837" type="line"/>
      <point x="344" y="736" type="line"/>
      <point x="369" y="691" type="line"/>
      <point x="490" y="752" type="line"/>
      <point x="619" y="691" type="line"/>
    </contour>
  </outline>
</glyph>
<glyph name="zacute" format="1">
  <advance width="472"/>
  <unicode hex="017A"/>
  <outline>
    <contour>
      <point x="387" y="609" type="line"/>
      <point x="330" y="693" type="line"/>
      <point x="171" y="555" type="line"/>
      <point x="200" y="512" type="line"/>
    </contour>
    <contour>
      <point x="424" y="0" type="line"/>
      <point x="450" y="150" type="line"/>
      <point x="365" y="160" type="line"/>
      <point x="343" y="82" type="line"/>
      <point x="167" y="82" type="line"/>
      <point x="428" y="390" type="line"/>
      <point x="421" y="449" type="line"/>
      <point x="39" y="449" type="line"/>
      <point x="24" y="298" type="line"/>
      <point x="103" y="290" type="line"/>
      <point x="121" y="367" type="line"/>
      <point x="284" y="367" type="line"/>
      <point x="28" y="58" type="line"/>
      <point x="37" y="0" type="line"/>
    </contour>
  </outline>
</glyph>
<glyph name="Zcaron" format="1">
  <advance width="584"/>
  <unicode hex="017D"/>
  <outline>
    <contour>
      <point x="447" y="791" type="line"/>
      <point x="421" y="837" type="line"/>
      <point x="302" y="776" type="line"/>
      <point x="172" y="836" type="line"/>
      <point x="147" y="791" type="line"/>
      <point x="279" y="691" type="line"/>
      <point x="315" y="691" type="line"/>
    </contour>
    <contour>
      <point x="536" y="0" type="line"/>
      <point x="559" y="212" type="line"/>
      <point x="464" y="222" type="line"/>
      <point x="441" y="95" type="line"/>
      <point x="184" y="95" type="line"/>
      <point x="184" y="97" type="line"/>
      <point x="538" y="597" type="line"/>
      <point x="536" y="650" type="line"/>
      <point x="65" y="650" type="line"/>
      <point x="43" y="451" type="line"/>
      <point x="137" y="442" type="line"/>
      <point x="160" y="555" type="line"/>
      <point x="376" y="555" type="line"/>
      <point x="376" y="553" type="line"/>
      <point x="25" y="59" type="line"/>
      <point x="28" y="0" type="line"/>
    </contour>
  </outline>
</glyph>
<glyph name="zcaron" format="1">
  <advance width="472"/>
  <unicode hex="017E"/>
  <outline>
    <contour>
      <point x="390" y="635" type="line"/>
      <point x="359" y="679" type="line"/>
      <point x="250" y="605" type="line"/>
      <point x="125" y="678" type="line"/>
      <point x="94" y="635" type="line"/>
      <point x="224" y="512" type="line"/>
      <point x="260" y="512" type="line"/>
    </contour>
    <contour>
      <point x="424" y="0" type="line"/>
      <point x="450" y="150" type="line"/>
      <point x="365" y="160" type="line"/>
      <point x="343" y="82" type="line"/>
      <point x="167" y="82" type="line"/>
      <point x="428" y="390" type="line"/>
      <point x="421" y="449" type="line"/>
      <point x="39" y="449" type="line"/>
      <point x="24" y="298" type="line"/>
      <point x="103" y="290" type="line"/>
      <point x="121" y="367" type="line"/>
      <point x="284" y="367" type="line"/>
      <point x="28" y="58" type="line"/>
      <point x="37" y="0" type="line"/>
    </contour>
  </outline>
</glyph>
<glyph name="florin" format="1">
  <advance width="373"/>
  <unicode hex="0192"/>
  <outline>
    <contour>
      <point x="40" y="282" type="line"/>
      <point x="111" y="282" type="line"/>
      <point x="117" y="381" type="line" smooth="yes"/>
      <point x="123" y="478"/>
      <point x="192" y="529"/>
      <point x="289" y="529" type="curve" smooth="yes"/>
      <point x="305" y="529"/>
      <point x="334" y="528"/>
      <point x="355" y="525" type="curve"/>
      <point x="355" y="452" type="line"/>
      <point x="330" y="455"/>
      <point x="308" y="458"/>
      <point x="291" y="458" type="curve" smooth="yes"/>
      <point x="236" y="458"/>
      <point x="225" y="432"/>
      <point x="222" y="379" type="curve" smooth="yes"/>
      <point x="216" y="282" type="line"/>
      <point x="321" y="282" type="line"/>
      <point x="321" y="218" type="line"/>
      <point x="213" y="218" type="line"/>
      <point x="202" y="18" type="line" smooth="yes"/>
      <point x="198" y="-46"/>
      <point x="166" y="-112"/>
      <point x="51" y="-112" type="curve" smooth="yes"/>
      <point x="38" y="-112"/>
      <point x="28" y="-111"/>
      <point x="6" y="-108" type="curve"/>
      <point x="6" y="-37" type="line"/>
      <point x="25" y="-41"/>
      <point x="32" y="-41"/>
      <point x="44" y="-41" type="curve" smooth="yes"/>
      <point x="79" y="-41"/>
      <point x="93" y="-31"/>
      <point x="97" y="38" type="curve" smooth="yes"/>
      <point x="107" y="218" type="line"/>
      <point x="40" y="218" type="line"/>
    </contour>
  </outline>
</glyph>
<glyph name="uni01C4" format="1">
  <advance width="1285"/>
  <unicode hex="01C4"/>
  <outline>
    <contour>
      <point x="1148" y="791" type="line"/>
      <point x="1122" y="837" type="line"/>
      <point x="1003" y="776" type="line"/>
      <point x="873" y="836" type="line"/>
      <point x="848" y="791" type="line"/>
      <point x="980" y="691" type="line"/>
      <point x="1016" y="691" type="line"/>
    </contour>
    <contour>
      <point x="1236" y="0" type="line"/>
      <point x="1259" y="212" type="line"/>
      <point x="1164" y="222" type="line"/>
      <point x="1141" y="95" type="line"/>
      <point x="884" y="95" type="line"/>
      <point x="884" y="97" type="line"/>
      <point x="1238" y="597" type="line"/>
      <point x="1236" y="650" type="line"/>
      <point x="765" y="650" type="line"/>
      <point x="743" y="451" type="line"/>
      <point x="837" y="442" type="line"/>
      <point x="860" y="555" type="line"/>
      <point x="1076" y="555" type="line"/>
      <point x="1076" y="553" type="line"/>
      <point x="725" y="59" type="line"/>
      <point x="728" y="0" type="line"/>
    </contour>
    <contour>
      <point x="670" y="327" type="curve" smooth="yes"/>
      <point x="670" y="518"/>
      <point x="554" y="650"/>
      <point x="336" y="650" type="curve" smooth="yes"/>
      <point x="40" y="650" type="line"/>
      <point x="40" y="555" type="line"/>
      <point x="115" y="555" type="line"/>
      <point x="115" y="95" type="line"/>
      <point x="40" y="95" type="line"/>
      <point x="40" y="0" type="line"/>
      <point x="342" y="0" type="line" smooth="yes"/>
      <point x="547" y="0"/>
      <point x="670" y="132"/>
    </contour>
    <contour>
      <point x="551" y="326" type="curve" smooth="yes"/>
      <point x="551" y="172"/>
      <point x="473" y="95"/>
      <point x="333" y="95" type="curve" smooth="yes"/>
      <point x="226" y="95" type="line"/>
      <point x="226" y="555" type="line"/>
      <point x="333" y="555" type="line" smooth="yes"/>
      <point x="475" y="555"/>
      <point x="551" y="474"/>
    </contour>
  </outline>
</glyph>
<glyph name="uni01C6" format="1">
  <advance width="1034"/>
  <unicode hex="01C6"/>
  <outline>
    <contour>
      <point x="953" y="635" type="line"/>
      <point x="922" y="679" type="line"/>
      <point x="813" y="605" type="line"/>
      <point x="688" y="678" type="line"/>
      <point x="657" y="635" type="line"/>
      <point x="787" y="512" type="line"/>
      <point x="823" y="512" type="line"/>
    </contour>
    <contour>
      <point x="986" y="0" type="line"/>
      <point x="1012" y="150" type="line"/>
      <point x="927" y="160" type="line"/>
      <point x="905" y="82" type="line"/>
      <point x="729" y="82" type="line"/>
      <point x="990" y="390" type="line"/>
      <point x="983" y="449" type="line"/>
      <point x="601" y="449" type="line"/>
      <point x="586" y="298" type="line"/>
      <point x="665" y="290" type="line"/>
      <point x="683" y="367" type="line"/>
      <point x="846" y="367" type="line"/>
      <point x="590" y="58" type="line"/>
      <point x="599" y="0" type="line"/>
    </contour>
    <contour>
      <point x="548" y="0" type="line"/>
      <point x="548" y="82" type="line"/>
      <point x="482" y="82" type="line"/>
      <point x="482" y="688" type="line"/>
      <point x="278" y="688" type="line"/>
      <point x="278" y="606" type="line"/>
      <point x="375" y="606" type="line"/>
      <point x="375" y="379" type="line"/>
      <point x="348" y="427"/>
      <point x="300" y="458"/>
      <point x="229" y="458" type="curve" smooth="yes"/>
      <point x="90" y="458"/>
      <point x="28" y="343"/>
      <point x="28" y="215" type="curve" smooth="yes"/>
      <point x="28" y="75"/>
      <point x="102" y="-10"/>
      <point x="219" y="-10" type="curve" smooth="yes"/>
      <point x="301" y="-10"/>
      <point x="348" y="34"/>
      <point x="375" y="86" type="curve"/>
      <point x="375" y="0" type="line"/>
    </contour>
    <contour>
      <point x="375" y="216" type="line"/>
      <point x="374" y="149"/>
      <point x="326" y="76"/>
      <point x="253" y="76" type="curve" smooth="yes"/>
      <point x="190" y="76"/>
      <point x="139" y="127"/>
      <point x="139" y="221" type="curve" smooth="yes"/>
      <point x="139" y="314"/>
      <point x="188" y="372"/>
      <point x="260" y="372" type="curve" smooth="yes"/>
      <point x="324" y="372"/>
      <point x="374" y="324"/>
      <point x="375" y="250" type="curve"/>
    </contour>
  </outline>
</glyph>
<glyph name="uni01C7" format="1">
  <advance width="1027"/>
  <unicode hex="01C7"/>
  <outline>
    <contour>
      <point x="995" y="555" type="line"/>
      <point x="995" y="650" type="line"/>
      <point x="700" y="650" type="line"/>
      <point x="700" y="555" type="line"/>
      <point x="820" y="555" type="line"/>
      <point x="820" y="177" type="line" smooth="yes"/>
      <point x="820" y="128"/>
      <point x="795" y="93"/>
      <point x="735" y="93" type="curve" smooth="yes"/>
      <point x="698" y="93"/>
      <point x="666" y="106"/>
      <point x="641" y="163" type="curve"/>
      <point x="563" y="104" type="line"/>
      <point x="591" y="41"/>
      <point x="644" y="-10"/>
      <point x="745" y="-10" type="curve" smooth="yes"/>
      <point x="858" y="-10"/>
      <point x="931" y="52"/>
      <point x="931" y="178" type="curve" smooth="yes"/>
      <point x="931" y="555" type="line"/>
    </contour>
    <contour>
      <point x="521" y="0" type="line"/>
      <point x="541" y="222" type="line"/>
      <point x="446" y="230" type="line"/>
      <point x="426" y="95" type="line"/>
      <point x="226" y="95" type="line"/>
      <point x="226" y="555" type="line"/>
      <point x="323" y="555" type="line"/>
      <point x="323" y="650" type="line"/>
      <point x="40" y="650" type="line"/>
      <point x="40" y="555" type="line"/>
      <point x="115" y="555" type="line"/>
      <point x="115" y="95" type="line"/>
      <point x="40" y="95" type="line"/>
      <point x="40" y="0" type="line"/>
    </contour>
  </outline>
</glyph>
<glyph name="uni01C8" format="1">
  <advance width="799"/>
  <unicode hex="01C8"/>
  <outline>
    <contour>
      <point x="738" y="5" type="curve" smooth="yes"/>
      <point x="738" y="449" type="line"/>
      <point x="550" y="449" type="line"/>
      <point x="550" y="366" type="line"/>
      <point x="631" y="366" type="line"/>
      <point x="631" y="5" type="line" smooth="yes"/>
      <point x="631" y="-139"/>
      <point x="578" y="-150"/>
      <point x="523" y="-150" type="curve"/>
      <point x="526" y="-223" type="line"/>
      <point x="676" y="-237"/>
      <point x="738" y="-165"/>
    </contour>
    <contour>
      <point x="629" y="542" type="line"/>
      <point x="738" y="542" type="line"/>
      <point x="738" y="660" type="line"/>
      <point x="629" y="660" type="line"/>
    </contour>
    <contour>
      <point x="521" y="0" type="line"/>
      <point x="541" y="222" type="line"/>
      <point x="446" y="230" type="line"/>
      <point x="426" y="95" type="line"/>
      <point x="226" y="95" type="line"/>
      <point x="226" y="555" type="line"/>
      <point x="323" y="555" type="line"/>
      <point x="323" y="650" type="line"/>
      <point x="40" y="650" type="line"/>
      <point x="40" y="555" type="line"/>
      <point x="115" y="555" type="line"/>
      <point x="115" y="95" type="line"/>
      <point x="40" y="95" type="line"/>
      <point x="40" y="0" type="line"/>
    </contour>
  </outline>
</glyph>
<glyph name="uni01CB" format="1">
  <advance width="994"/>
  <unicode hex="01CB"/>
  <outline>
    <contour>
      <point x="932" y="5" type="curve" smooth="yes"/>
      <point x="932" y="449" type="line"/>
      <point x="744" y="449" type="line"/>
      <point x="744" y="366" type="line"/>
      <point x="825" y="366" type="line"/>
      <point x="825" y="5" type="line" smooth="yes"/>
      <point x="825" y="-139"/>
      <point x="772" y="-150"/>
      <point x="717" y="-150" type="curve"/>
      <point x="720" y="-223" type="line"/>
      <point x="870" y="-237"/>
      <point x="932" y="-165"/>
    </contour>
    <contour>
      <point x="823" y="542" type="line"/>
      <point x="932" y="542" type="line"/>
      <point x="932" y="660" type="line"/>
      <point x="823" y="660" type="line"/>
    </contour>
    <contour>
      <point x="722" y="555" type="line"/>
      <point x="722" y="650" type="line"/>
      <point x="448" y="650" type="line"/>
      <point x="448" y="555" type="line"/>
      <point x="543" y="555" type="line"/>
      <point x="543" y="220" type="line"/>
      <point x="539" y="220" type="line"/>
      <point x="196" y="650" type="line"/>
      <point x="33" y="650" type="line"/>
      <point x="33" y="555" type="line"/>
      <point x="115" y="555" type="line"/>
      <point x="115" y="95" type="line"/>
      <point x="43" y="95" type="line"/>
      <point x="43" y="0" type="line"/>
      <point x="314" y="0" type="line"/>
      <point x="314" y="95" type="line"/>
      <point x="219" y="95" type="line"/>
      <point x="219" y="450" type="line"/>
      <point x="223" y="450" type="line"/>
      <point x="583" y="-1" type="line"/>
      <point x="647" y="0" type="line"/>
      <point x="647" y="555" type="line"/>
    </contour>
  </outline>
</glyph>
<glyph name="uni01D3" format="1">
  <advance width="718"/>
  <unicode hex="01D3"/>
  <outline>
    <contour>
      <point x="514" y="791" type="line"/>
      <point x="488" y="837" type="line"/>
      <point x="369" y="776" type="line"/>
      <point x="239" y="836" type="line"/>
      <point x="214" y="791" type="line"/>
      <point x="346" y="691" type="line"/>
      <point x="382" y="691" type="line"/>
    </contour>
    <contour>
      <point x="688" y="555" type="line"/>
      <point x="688" y="650" type="line"/>
      <point x="441" y="650" type="line"/>
      <point x="441" y="555" type="line"/>
      <point x="524" y="555" type="line"/>
      <point x="524" y="268" type="line" smooth="yes"/>
      <point x="524" y="155"/>
      <point x="471" y="88"/>
      <point x="362" y="88" type="curve" smooth="yes"/>
      <point x="250" y="88"/>
      <point x="204" y="157"/>
      <point x="204" y="260" type="curve" smooth="yes"/>
      <point x="204" y="555" type="line"/>
      <point x="285" y="555" type="line"/>
      <point x="285" y="650" type="line"/>
      <point x="31" y="650" type="line"/>
      <point x="31" y="555" type="line"/>
      <point x="93" y="555" type="line"/>
      <point x="93" y="257" type="line" smooth="yes"/>
      <point x="93" y="117"/>
      <point x="160" y="-10"/>
      <point x="356" y="-10" type="curve" smooth="yes"/>
      <point x="561" y="-10"/>
      <point x="628" y="130"/>
      <point x="628" y="268" type="curve" smooth="yes"/>
      <point x="628" y="555" type="line"/>
    </contour>
  </outline>
</glyph>
<glyph name="uni01F1" format="1">
  <advance width="1281"/>
  <unicode hex="01F1"/>
  <outline>
    <contour>
      <point x="1232" y="0" type="line"/>
      <point x="1255" y="212" type="line"/>
      <point x="1160" y="222" type="line"/>
      <point x="1137" y="95" type="line"/>
      <point x="880" y="95" type="line"/>
      <point x="880" y="97" type="line"/>
      <point x="1234" y="597" type="line"/>
      <point x="1232" y="650" type="line"/>
      <point x="761" y="650" type="line"/>
      <point x="739" y="451" type="line"/>
      <point x="833" y="442" type="line"/>
      <point x="856" y="555" type="line"/>
      <point x="1072" y="555" type="line"/>
      <point x="1072" y="553" type="line"/>
      <point x="721" y="59" type="line"/>
      <point x="724" y="0" type="line"/>
    </contour>
    <contour>
      <point x="670" y="327" type="curve" smooth="yes"/>
      <point x="670" y="518"/>
      <point x="554" y="650"/>
      <point x="336" y="650" type="curve" smooth="yes"/>
      <point x="40" y="650" type="line"/>
      <point x="40" y="555" type="line"/>
      <point x="115" y="555" type="line"/>
      <point x="115" y="95" type="line"/>
      <point x="40" y="95" type="line"/>
      <point x="40" y="0" type="line"/>
      <point x="342" y="0" type="line" smooth="yes"/>
      <point x="547" y="0"/>
      <point x="670" y="132"/>
    </contour>
    <contour>
      <point x="551" y="326" type="curve" smooth="yes"/>
      <point x="551" y="172"/>
      <point x="473" y="95"/>
      <point x="333" y="95" type="curve" smooth="yes"/>
      <point x="226" y="95" type="line"/>
      <point x="226" y="555" type="line"/>
      <point x="333" y="555" type="line" smooth="yes"/>
      <point x="475" y="555"/>
      <point x="551" y="474"/>
    </contour>
  </outline>
</glyph>
<glyph name="uni021B" format="1">
  <advance width="388"/>
  <unicode hex="021B"/>
  <outline>
    <contour>
      <point x="288" y="-60" type="line"/>
      <point x="187" y="-60" type="line"/>
      <point x="182" y="-215" type="line"/>
      <point x="265" y="-215" type="line"/>
    </contour>
    <contour>
      <point x="391" y="132" type="curve"/>
      <point x="312" y="157" type="line"/>
      <point x="302" y="88"/>
      <point x="268" y="80"/>
      <point x="245" y="80" type="curve" smooth="yes"/>
      <point x="205" y="80"/>
      <point x="183" y="103"/>
      <point x="183" y="151" type="curve" smooth="yes"/>
      <point x="183" y="370" type="line"/>
      <point x="350" y="370" type="line"/>
      <point x="350" y="449" type="line"/>
      <point x="183" y="449" type="line"/>
      <point x="183" y="588" type="line"/>
      <point x="76" y="588" type="line"/>
      <point x="76" y="449" type="line"/>
      <point x="10" y="449" type="line"/>
      <point x="10" y="370" type="line"/>
      <point x="76" y="370" type="line"/>
      <point x="76" y="134" type="line" smooth="yes"/>
      <point x="76" y="43"/>
      <point x="137" y="-10"/>
      <point x="233" y="-10" type="curve" smooth="yes"/>
      <point x="322" y="-10"/>
      <point x="378" y="35"/>
    </contour>
  </outline>
</glyph>
<glyph name="schwa" format="1">
  <advance width="478"/>
  <unicode hex="0259"/>
  <outline>
    <contour>
      <point x="26" y="311" type="curve"/>
      <point x="115" y="294" type="line"/>
      <point x="124" y="332"/>
      <point x="150" y="372"/>
      <point x="219" y="372" type="curve" smooth="yes"/>
      <point x="293" y="372"/>
      <point x="333" y="327"/>
      <point x="339" y="246" type="curve"/>
      <point x="36" y="246" type="line"/>
      <point x="32" y="225"/>
      <point x="30" y="205"/>
      <point x="30" y="186" type="curve" smooth="yes"/>
      <point x="31" y="73"/>
      <point x="109" y="-10"/>
      <point x="233" y="-10" type="curve" smooth="yes"/>
      <point x="370" y="-10"/>
      <point x="451" y="93"/>
      <point x="451" y="231" type="curve" smooth="yes"/>
      <point x="451" y="380"/>
      <point x="358" y="458"/>
      <point x="227" y="458" type="curve" smooth="yes"/>
      <point x="105" y="458"/>
      <point x="34" y="390"/>
    </contour>
    <contour>
      <point x="140" y="180" type="curve"/>
      <point x="338" y="180" type="line"/>
      <point x="330" y="117"/>
      <point x="298" y="69"/>
      <point x="234" y="69" type="curve" smooth="yes"/>
      <point x="163" y="69"/>
      <point x="134" y="127"/>
    </contour>
  </outline>
</glyph>
<glyph name="caron" format="1">
  <advance width="338"/>
  <unicode hex="02C7"/>
  <outline>
    <contour>
      <point x="346" y="635" type="line"/>
      <point x="315" y="679" type="line"/>
      <point x="206" y="605" type="line"/>
      <point x="81" y="678" type="line"/>
      <point x="50" y="635" type="line"/>
      <point x="180" y="512" type="line"/>
      <point x="216" y="512" type="line"/>
    </contour>
  </outline>
</glyph>
<glyph name="breve" format="1">
  <advance width="399"/>
  <unicode hex="02D8"/>
  <outline>
    <contour>
      <point x="330" y="654" type="curve"/>
      <point x="245" y="654" type="line"/>
      <point x="245" y="615"/>
      <point x="231" y="588"/>
      <point x="197" y="588" type="curve" smooth="yes"/>
      <point x="166" y="588"/>
      <point x="150" y="611"/>
      <point x="150" y="654" type="curve"/>
      <point x="65" y="654" type="line"/>
      <point x="65" y="566"/>
      <point x="111" y="522"/>
      <point x="196" y="522" type="curve" smooth="yes"/>
      <point x="278" y="522"/>
      <point x="330" y="563"/>
    </contour>
  </outline>
</glyph>
<glyph name="dotaccent" format="1">
  <advance width="222"/>
  <unicode hex="02D9"/>
  <outline>
    <contour>
      <point x="49" y="539" type="line"/>
      <point x="158" y="539" type="line"/>
      <point x="158" y="657" type="line"/>
      <point x="49" y="657" type="line"/>
    </contour>
  </outline>
</glyph>
<glyph name="ogonek" format="1">
  <advance width="280"/>
  <unicode hex="02DB"/>
  <outline>
    <contour>
      <point x="234" y="-188" type="curve"/>
      <point x="226" y="-119" type="line"/>
      <point x="211" y="-128"/>
      <point x="193" y="-132"/>
      <point x="176" y="-132" type="curve" smooth="yes"/>
      <point x="149" y="-132"/>
      <point x="128" y="-121"/>
      <point x="128" y="-84" type="curve" smooth="yes"/>
      <point x="128" y="-55"/>
      <point x="140" y="-20"/>
      <point x="193" y="8" type="curve"/>
      <point x="132" y="12" type="line"/>
      <point x="80" y="-10"/>
      <point x="36" y="-57"/>
      <point x="36" y="-117" type="curve" smooth="yes"/>
      <point x="36" y="-179"/>
      <point x="85" y="-208"/>
      <point x="149" y="-208" type="curve" smooth="yes"/>
      <point x="184" y="-208"/>
      <point x="212" y="-200"/>
    </contour>
  </outline>
</glyph>
<glyph name="dotbelowcmb" format="1">
  <advance width="833"/>
  <unicode hex="0323"/>
  <outline>
    <contour>
      <point x="78" y="-188" type="line"/>
      <point x="187" y="-188" type="line"/>
      <point x="187" y="-70" type="line"/>
      <point x="78" y="-70" type="line"/>
    </contour>
  </outline>
</glyph>
<glyph name="uni0394" format="1">
  <advance width="483"/>
  <unicode hex="0394"/>
  <outline>
    <contour>
      <point x="-6" y="0" type="line"/>
      <point x="486" y="0" type="line"/>
      <point x="246" y="661" type="line"/>
    </contour>
    <contour>
      <point x="114" y="82" type="line"/>
      <point x="243" y="437" type="line"/>
      <point x="366" y="82" type="line"/>
    </contour>
  </outline>
</glyph>
<glyph name="Wgrave" format="1">
  <advance width="968"/>
  <unicode hex="1E80"/>
  <outline>
    <contour>
      <point x="580" y="743" type="line"/>
      <point x="383" y="826" type="line"/>
      <point x="358" y="727" type="line"/>
      <point x="567" y="694" type="line"/>
    </contour>
    <contour>
      <point x="959" y="555" type="line"/>
      <point x="959" y="650" type="line"/>
      <point x="715" y="650" type="line"/>
      <point x="715" y="555" type="line"/>
      <point x="795" y="555" type="line"/>
      <point x="693" y="178" type="line"/>
      <point x="688" y="178" type="line"/>
      <point x="559" y="555" type="line"/>
      <point x="612" y="555" type="line"/>
      <point x="612" y="650" type="line"/>
      <point x="366" y="650" type="line"/>
      <point x="366" y="555" type="line"/>
      <point x="423" y="555" type="line"/>
      <point x="294" y="183" type="line"/>
      <point x="289" y="183" type="line"/>
      <point x="177" y="555" type="line"/>
      <point x="249" y="555" type="line"/>
      <point x="249" y="650" type="line"/>
      <point x="2" y="650" type="line"/>
      <point x="2" y="555" type="line"/>
      <point x="58" y="555" type="line"/>
      <point x="246" y="0" type="line"/>
      <point x="329" y="0" type="line"/>
      <point x="483" y="458" type="line"/>
      <point x="488" y="458" type="line"/>
      <point x="647" y="0" type="line"/>
      <point x="729" y="0" type="line"/>
      <point x="906" y="555" type="line"/>
    </contour>
  </outline>
</glyph>
<glyph name="uni1EBC" format="1">
  <advance width="591"/>
  <unicode hex="1EBC"/>
  <outline>
    <contour>
      <point x="475" y="812" type="curve"/>
      <point x="428" y="822" type="line"/>
      <point x="418" y="790"/>
      <point x="399" y="782"/>
      <point x="380" y="782" type="curve" smooth="yes"/>
      <point x="341" y="782"/>
      <point x="308" y="815"/>
      <point x="264" y="815" type="curve" smooth="yes"/>
      <point x="202" y="815"/>
      <point x="179" y="751"/>
      <point x="179" y="716" type="curve"/>
      <point x="223" y="701" type="line"/>
      <point x="231" y="729"/>
      <point x="247" y="736"/>
      <point x="268" y="736" type="curve" smooth="yes"/>
      <point x="311" y="736"/>
      <point x="343" y="704"/>
      <point x="392" y="704" type="curve" smooth="yes"/>
      <point x="453" y="704"/>
      <point x="471" y="755"/>
    </contour>
    <contour>
      <point x="535" y="0" type="line"/>
      <point x="555" y="188" type="line"/>
      <point x="460" y="196" type="line"/>
      <point x="440" y="95" type="line"/>
      <point x="226" y="95" type="line"/>
      <point x="226" y="280" type="line"/>
      <point x="512" y="280" type="line"/>
      <point x="512" y="375" type="line"/>
      <point x="226" y="375" type="line"/>
      <point x="226" y="555" type="line"/>
      <point x="433" y="555" type="line"/>
      <point x="453" y="454" type="line"/>
      <point x="548" y="462" type="line"/>
      <point x="528" y="650" type="line"/>
      <point x="40" y="650" type="line"/>
      <point x="40" y="555" type="line"/>
      <point x="115" y="555" type="line"/>
      <point x="115" y="95" type="line"/>
      <point x="40" y="95" type="line"/>
      <point x="40" y="0" type="line"/>
    </contour>
  </outline>
</glyph>
<glyph name="Ygrave" format="1">
  <advance width="633"/>
  <unicode hex="1EF2"/>
  <outline>
    <contour>
      <point x="626" y="555" type="line"/>
      <point x="626" y="650" type="line"/>
      <point x="381" y="650" type="line"/>
      <point x="381" y="555" type="line"/>
      <point x="453" y="555" type="line"/>
      <point x="326" y="351" type="line"/>
      <point x="320" y="351" type="line"/>
      <point x="190" y="555" type="line"/>
      <point x="258" y="555" type="line"/>
      <point x="258" y="650" type="line"/>
      <point x="1" y="650" type="line"/>
      <point x="1" y="555" type="line"/>
      <point x="61" y="555" type="line"/>
      <point x="262" y="253" type="line"/>
      <point x="262" y="95" type="line"/>
      <point x="158" y="95" type="line"/>
      <point x="158" y="0" type="line"/>
      <point x="482" y="0" type="line"/>
      <point x="482" y="95" type="line"/>
      <point x="373" y="95" type="line"/>
      <point x="373" y="252" type="line"/>
      <point x="567" y="555" type="line"/>
    </contour>
    <contour>
      <point x="387" y="743" type="line"/>
      <point x="190" y="826" type="line"/>
      <point x="165" y="727" type="line"/>
      <point x="374" y="694" type="line"/>
    </contour>
  </outline>
</glyph>
<glyph name="uni2012" format="1">
  <advance width="347"/>
  <unicode hex="2012"/>
  <outline>
    <contour>
      <point x="347" y="296" type="line"/>
      <point x="0" y="296" type="line"/>
      <point x="0" y="206" type="line"/>
      <point x="347" y="206" type="line"/>
    </contour>
  </outline>
</glyph>
<glyph name="endash" format="1">
  <advance width="603"/>
  <unicode hex="2013"/>
  <outline>
    <contour>
      <point x="50" y="270" type="line"/>
      <point x="552" y="270" type="line"/>
      <point x="552" y="198" type="line"/>
      <point x="50" y="198" type="line"/>
    </contour>
  </outline>
</glyph>
<glyph name="emdash" format="1">
  <advance width="1047"/>
  <unicode hex="2014"/>
  <outline>
    <contour>
      <point x="55" y="270" type="line"/>
      <point x="995" y="270" type="line"/>
      <point x="995" y="198" type="line"/>
      <point x="55" y="198" type="line"/>
    </contour>
  </outline>
</glyph>
<glyph name="quoteright" format="1">
  <advance width="214"/>
  <unicode hex="2019"/>
  <outline>
    <contour>
      <point x="31" y="489" type="line"/>
      <point x="135" y="489" type="line"/>
      <point x="192" y="717" type="line"/>
      <point x="88" y="717" type="line"/>
    </contour>
  </outline>
</glyph>
<glyph name="quotesinglbase" format="1">
  <advance width="214"/>
  <unicode hex="201A"/>
  <outline>
    <contour>
      <point x="11" y="-92" type="line"/>
      <point x="115" y="-92" type="line"/>
      <point x="172" y="136" type="line"/>
      <point x="68" y="136" type="line"/>
    </contour>
  </outline>
</glyph>
<glyph name="quotedblright" format="1">
  <advance width="383"/>
  <unicode hex="201D"/>
  <outline>
    <contour>
      <point x="23" y="442" type="line"/>
      <point x="127" y="442" type="line"/>
      <point x="184" y="670" type="line"/>
      <point x="80" y="670" type="line"/>
    </contour>
    <contour>
      <point x="195" y="442" type="line"/>
      <point x="299" y="442" type="line"/>
      <point x="356" y="670" type="line"/>
      <point x="252" y="670" type="line"/>
    </contour>
  </outline>
</glyph>
<glyph name="quotedblbase" format="1">
  <advance width="387"/>
  <unicode hex="201E"/>
  <outline>
    <contour>
      <point x="11" y="-92" type="line"/>
      <point x="115" y="-92" type="line"/>
      <point x="172" y="136" type="line"/>
      <point x="68" y="136" type="line"/>
    </contour>
    <contour>
      <point x="185" y="-92" type="line"/>
      <point x="289" y="-92" type="line"/>
      <point x="346" y="136" type="line"/>
      <point x="242" y="136" type="line"/>
    </contour>
  </outline>
</glyph>
<glyph name="dagger" format="1">
  <advance width="463"/>
  <unicode hex="2020"/>
  <outline>
    <contour>
      <point x="26" y="436" type="line"/>
      <point x="185" y="436" type="line"/>
      <point x="185" y="650" type="line"/>
      <point x="278" y="650" type="line"/>
      <point x="278" y="436" type="line"/>
      <point x="436" y="436" type="line"/>
      <point x="436" y="344" type="line"/>
      <point x="278" y="344" type="line"/>
      <point x="278" y="-141" type="line"/>
      <point x="185" y="-141" type="line"/>
      <point x="185" y="344" type="line"/>
      <point x="26" y="344" type="line"/>
    </contour>
  </outline>
</glyph>
<glyph name="daggerdbl" format="1">
  <advance width="494"/>
  <unicode hex="2021"/>
  <outline>
    <contour>
      <point x="42" y="144" type="line"/>
      <point x="201" y="144" type="line"/>
      <point x="201" y="344" type="line"/>
      <point x="42" y="344" type="line"/>
      <point x="42" y="436" type="line"/>
      <point x="201" y="436" type="line"/>
      <point x="201" y="650" type="line"/>
      <point x="293" y="650" type="line"/>
      <point x="293" y="436" type="line"/>
      <point x="452" y="436" type="line"/>
      <point x="452" y="344" type="line"/>
      <point x="293" y="344" type="line"/>
      <point x="293" y="144" type="line"/>
      <point x="452" y="144" type="line"/>
      <point x="452" y="53" type="line"/>
      <point x="293" y="53" type="line"/>
      <point x="293" y="-141" type="line"/>
      <point x="201" y="-141" type="line"/>
      <point x="201" y="53" type="line"/>
      <point x="42" y="53" type="line"/>
    </contour>
  </outline>
</glyph>
<glyph name="ellipsis" format="1">
  <advance width="632"/>
  <unicode hex="2026"/>
  <outline>
    <contour>
      <point x="44" y="0" type="line"/>
      <point x="176" y="0" type="line"/>
      <point x="176" y="142" type="line"/>
      <point x="44" y="142" type="line"/>
    </contour>
    <contour>
      <point x="249" y="0" type="line"/>
      <point x="381" y="0" type="line"/>
      <point x="381" y="142" type="line"/>
      <point x="249" y="142" type="line"/>
    </contour>
    <contour>
      <point x="454" y="0" type="line"/>
      <point x="586" y="0" type="line"/>
      <point x="586" y="142" type="line"/>
      <point x="454" y="142" type="line"/>
    </contour>
  </outline>
</glyph>
<glyph name="perthousand" format="1">
  <advance width="1035"/>
  <unicode hex="2030"/>
  <outline>
    <contour>
      <point x="615" y="521" type="line"/>
      <point x="408" y="262" type="line"/>
      <point x="211" y="0" type="line"/>
      <point x="99" y="0" type="line"/>
      <point x="332" y="286" type="line"/>
      <point x="503" y="521" type="line"/>
    </contour>
    <contour>
      <point x="181" y="242" type="curve" smooth="yes"/>
      <point x="279" y="242"/>
      <point x="334" y="303"/>
      <point x="334" y="389" type="curve" smooth="yes"/>
      <point x="334" y="474"/>
      <point x="281" y="531"/>
      <point x="186" y="531" type="curve" smooth="yes"/>
      <point x="90" y="531"/>
      <point x="31" y="472"/>
      <point x="31" y="384" type="curve" smooth="yes"/>
      <point x="31" y="298"/>
      <point x="87" y="242"/>
    </contour>
    <contour>
      <point x="181" y="312" type="curve" smooth="yes"/>
      <point x="143" y="312"/>
      <point x="118" y="333"/>
      <point x="118" y="385" type="curve" smooth="yes"/>
      <point x="118" y="440"/>
      <point x="146" y="461"/>
      <point x="184" y="461" type="curve" smooth="yes"/>
      <point x="222" y="461"/>
      <point x="247" y="440"/>
      <point x="247" y="388" type="curve" smooth="yes"/>
      <point x="247" y="335"/>
      <point x="222" y="312"/>
    </contour>
    <contour>
      <point x="535" y="-10" type="curve" smooth="yes"/>
      <point x="634" y="-10"/>
      <point x="689" y="51"/>
      <point x="689" y="137" type="curve" smooth="yes"/>
      <point x="689" y="222"/>
      <point x="635" y="280"/>
      <point x="541" y="280" type="curve" smooth="yes"/>
      <point x="444" y="280"/>
      <point x="385" y="220"/>
      <point x="385" y="132" type="curve" smooth="yes"/>
      <point x="385" y="46"/>
      <point x="441" y="-10"/>
    </contour>
    <contour>
      <point x="535" y="60" type="curve" smooth="yes"/>
      <point x="497" y="60"/>
      <point x="472" y="81"/>
      <point x="472" y="133" type="curve" smooth="yes"/>
      <point x="472" y="189"/>
      <point x="500" y="210"/>
      <point x="539" y="210" type="curve" smooth="yes"/>
      <point x="577" y="210"/>
      <point x="602" y="189"/>
      <point x="602" y="136" type="curve" smooth="yes"/>
      <point x="602" y="83"/>
      <point x="576" y="60"/>
    </contour>
    <contour>
      <point x="854" y="-10" type="curve" smooth="yes"/>
      <point x="952" y="-10"/>
      <point x="1007" y="51"/>
      <point x="1007" y="137" type="curve" smooth="yes"/>
      <point x="1007" y="222"/>
      <point x="953" y="280"/>
      <point x="859" y="280" type="curve" smooth="yes"/>
      <point x="763" y="280"/>
      <point x="703" y="220"/>
      <point x="703" y="132" type="curve" smooth="yes"/>
      <point x="703" y="46"/>
      <point x="760" y="-10"/>
    </contour>
    <contour>
      <point x="854" y="60" type="curve" smooth="yes"/>
      <point x="815" y="60"/>
      <point x="790" y="81"/>
      <point x="790" y="133" type="curve" smooth="yes"/>
      <point x="790" y="189"/>
      <point x="818" y="210"/>
      <point x="857" y="210" type="curve" smooth="yes"/>
      <point x="895" y="210"/>
      <point x="920" y="189"/>
      <point x="920" y="136" type="curve" smooth="yes"/>
      <point x="920" y="83"/>
      <point x="895" y="60"/>
    </contour>
  </outline>
</glyph>
<glyph name="guilsinglleft" format="1">
  <advance width="296"/>
  <unicode hex="2039"/>
  <outline>
    <contour>
      <point x="258" y="25" type="line"/>
      <point x="137" y="271" type="line"/>
      <point x="258" y="511" type="line"/>
      <point x="169" y="511" type="line"/>
      <point x="31" y="271" type="line"/>
      <point x="169" y="25" type="line"/>
    </contour>
  </outline>
</glyph>
<glyph name="guilsinglright" format="1">
  <advance width="296"/>
  <unicode hex="203A"/>
  <outline>
    <contour>
      <point x="127" y="25" type="line"/>
      <point x="265" y="271" type="line"/>
      <point x="127" y="511" type="line"/>
      <point x="37" y="511" type="line"/>
      <point x="159" y="271" type="line"/>
      <point x="37" y="25" type="line"/>
    </contour>
  </outline>
</glyph>
<glyph name="uni203D" format="1">
  <advance width="698"/>
  <unicode hex="203D"/>
  <outline>
    <contour>
      <point x="287" y="228" type="line"/>
      <point x="140" y="638" type="line"/>
      <point x="25" y="584" type="line"/>
      <point x="215" y="196" type="line"/>
    </contour>
    <contour>
      <point x="239" y="0" type="line"/>
      <point x="366" y="0" type="line"/>
      <point x="366" y="127" type="line"/>
      <point x="239" y="127" type="line"/>
    </contour>
    <contour>
      <point x="346" y="465" type="line"/>
      <point x="376" y="550" type="line"/>
      <point x="392" y="558"/>
      <point x="411" y="563"/>
      <point x="429" y="563" type="curve" smooth="yes"/>
      <point x="469" y="563"/>
      <point x="543" y="544"/>
      <point x="543" y="484" type="curve" smooth="yes"/>
      <point x="543" y="378"/>
      <point x="319" y="388"/>
      <point x="309" y="232" type="curve"/>
      <point x="379" y="207" type="line"/>
      <point x="409" y="344"/>
      <point x="668" y="323"/>
      <point x="668" y="493" type="curve" smooth="yes"/>
      <point x="668" y="605"/>
      <point x="556" y="652"/>
      <point x="438" y="652" type="curve" smooth="yes"/>
      <point x="387" y="652"/>
      <point x="336" y="640"/>
      <point x="299" y="622" type="curve"/>
      <point x="266" y="486" type="line"/>
    </contour>
  </outline>
</glyph>
<glyph name="fraction" format="1">
  <advance width="151"/>
  <unicode hex="2044"/>
  <outline>
    <contour>
      <point x="299" y="650" type="line"/>
      <point x="108" y="325" type="line"/>
      <point x="-73" y="0" type="line"/>
      <point x="-148" y="0" type="line"/>
      <point x="50" y="337" type="line"/>
      <point x="224" y="650" type="line"/>
    </contour>
  </outline>
</glyph>
<glyph name="fivesuperior" format="1">
  <advance width="338"/>
  <unicode hex="2075"/>
  <outline>
    <contour>
      <point x="314" y="527" type="curve" smooth="yes"/>
      <point x="314" y="621"/>
      <point x="238" y="644"/>
      <point x="153" y="644" type="curve" smooth="yes"/>
      <point x="132" y="644" type="line"/>
      <point x="132" y="715" type="line"/>
      <point x="220" y="715" type="line"/>
      <point x="226" y="671" type="line"/>
      <point x="296" y="678" type="line"/>
      <point x="288" y="779" type="line"/>
      <point x="287" y="778" type="line"/>
      <point x="287" y="779" type="line"/>
      <point x="53" y="779" type="line"/>
      <point x="53" y="603" type="line"/>
      <point x="80" y="581" type="line"/>
      <point x="98" y="582"/>
      <point x="118" y="584"/>
      <point x="138" y="584" type="curve" smooth="yes"/>
      <point x="183" y="584"/>
      <point x="222" y="575"/>
      <point x="222" y="528" type="curve" smooth="yes"/>
      <point x="222" y="497"/>
      <point x="200" y="474"/>
      <point x="159" y="474" type="curve" smooth="yes"/>
      <point x="119" y="474"/>
      <point x="100" y="496"/>
      <point x="91" y="526" type="curve"/>
      <point x="29" y="506" type="line"/>
      <point x="41" y="439"/>
      <point x="92" y="408"/>
      <point x="162" y="408" type="curve" smooth="yes"/>
      <point x="249" y="408"/>
      <point x="314" y="449"/>
    </contour>
  </outline>
</glyph>
